<svg width="2192" height="1169" xmlns="http://www.w3.org/2000/svg" xmlns:xlink="http://www.w3.org/1999/xlink" overflow="hidden"><defs><clipPath id="clip0"><rect x="95" y="4583" width="2192" height="1169"/></clipPath><clipPath id="clip1"><rect x="96" y="4584" width="2188" height="1166"/></clipPath><clipPath id="clip2"><rect x="96" y="4584" width="2188" height="1166"/></clipPath><clipPath id="clip3"><rect x="96" y="4584" width="2188" height="1166"/></clipPath><clipPath id="clip4"><rect x="96" y="4584" width="2188" height="1166"/></clipPath><clipPath id="clip5"><rect x="313" y="4832" width="1903" height="613"/></clipPath><clipPath id="clip6"><rect x="96" y="4584" width="2188" height="1166"/></clipPath><clipPath id="clip7"><rect x="313" y="4832" width="1900" height="609"/></clipPath><clipPath id="clip8"><rect x="96" y="4584" width="2188" height="1166"/></clipPath><clipPath id="clip9"><rect x="96" y="4584" width="2188" height="1166"/></clipPath><clipPath id="clip10"><rect x="96" y="4584" width="2188" height="1166"/></clipPath><clipPath id="clip11"><rect x="96" y="4584" width="2188" height="1166"/></clipPath><clipPath id="clip12"><rect x="96" y="4584" width="2188" height="1166"/></clipPath><clipPath id="clip13"><rect x="96" y="4584" width="2188" height="1166"/></clipPath><clipPath id="clip14"><rect x="96" y="4584" width="2188" height="1166"/></clipPath><clipPath id="clip15"><rect x="96" y="4584" width="2188" height="1166"/></clipPath><clipPath id="clip16"><rect x="96" y="4584" width="2188" height="1166"/></clipPath><clipPath id="clip17"><rect x="96" y="4584" width="2188" height="1166"/></clipPath><clipPath id="clip18"><rect x="96" y="4584" width="2188" height="1166"/></clipPath><clipPath id="clip19"><rect x="96" y="4584" width="2188" height="1166"/></clipPath><clipPath id="clip20"><rect x="96" y="4584" width="2188" height="1166"/></clipPath><clipPath id="clip21"><rect x="96" y="4584" width="2188" height="1166"/></clipPath><clipPath id="clip22"><rect x="96" y="4584" width="2188" height="1166"/></clipPath><clipPath id="clip23"><rect x="96" y="4584" width="2188" height="1166"/></clipPath><clipPath id="clip24"><rect x="96" y="4584" width="2188" height="1166"/></clipPath><clipPath id="clip25"><rect x="96" y="4584" width="2188" height="1166"/></clipPath><clipPath id="clip26"><rect x="96" y="4584" width="2188" height="1166"/></clipPath><clipPath id="clip27"><rect x="96" y="4584" width="2188" height="1166"/></clipPath><clipPath id="clip28"><rect x="96" y="4584" width="2188" height="1166"/></clipPath><clipPath id="clip29"><rect x="96" y="4584" width="2188" height="1166"/></clipPath><clipPath id="clip30"><rect x="96" y="4584" width="2188" height="1166"/></clipPath><clipPath id="clip31"><rect x="96" y="4584" width="2188" height="1166"/></clipPath><clipPath id="clip32"><rect x="96" y="4584" width="2188" height="1166"/></clipPath><clipPath id="clip33"><rect x="96" y="4584" width="2188" height="1166"/></clipPath><clipPath id="clip34"><rect x="96" y="4584" width="2188" height="1166"/></clipPath></defs><g clip-path="url(#clip0)" transform="translate(-95 -4583)"><rect x="95.9999" y="4584" width="2189" height="1166" fill="#FFFFFF"/><g clip-path="url(#clip1)"><path d="M313.5 5373.68 2213.5 5373.68M313.5 5306.67 2213.5 5306.67M313.5 5238.67 2213.5 5238.67M313.5 5170.67 2213.5 5170.67M313.5 5103.67 2213.5 5103.67M313.5 5035.67 2213.5 5035.67M313.5 4967.66 2213.5 4967.66M313.5 4899.66 2213.5 4899.66M313.5 4832.5 2213.5 4832.5" stroke="#D9D9D9" stroke-width="3.4375" stroke-linejoin="round" stroke-miterlimit="10" fill="none"/></g><g clip-path="url(#clip2)"><path d="M659.522 4832.5 659.522 5441.5M1004.53 4832.5 1004.53 5441.5M1349.54 4832.5 1349.54 5441.5M1695.56 4832.5 1695.56 5441.5M2040.5 4832.5 2040.5 5441.5" stroke="#D9D9D9" stroke-width="3.4375" stroke-linejoin="round" stroke-miterlimit="10" fill="none"/></g><g clip-path="url(#clip3)"><path d="M0 0 0.000360892 609" stroke="#BFBFBF" stroke-width="3.4375" stroke-linejoin="round" stroke-miterlimit="10" fill="none" fill-rule="evenodd" transform="matrix(1 0 0 -1 313.5 5441.5)"/></g><g clip-path="url(#clip4)"><path d="M313.5 5441.5 2213.5 5441.5" stroke="#BFBFBF" stroke-width="3.4375" stroke-linejoin="round" stroke-miterlimit="10" fill="none" fill-rule="evenodd"/></g><g clip-path="url(#clip5)"><path d="M486.5 5401.5C515.277 5384.58 544.055 5366.53 572.833 5350.73 601.611 5334.94 630.388 5321.4 659.166 5306.73 687.944 5292.06 716.722 5276.27 745.5 5262.73 774.277 5249.19 803.055 5237.35 831.833 5225.5 860.611 5213.65 889.388 5201.81 918.166 5191.65 946.944 5181.5 975.722 5172.47 1004.5 5164.58 1033.28 5156.68 1062.06 5151.6 1090.83 5144.27 1119.61 5136.94 1148.39 5127.91 1177.17 5120.58 1205.94 5113.24 1234.72 5106.47 1263.5 5100.27 1292.28 5094.06 1321.06 5088.99 1349.83 5083.35 1378.61 5077.71 1407.39 5072.06 1436.17 5066.42 1464.94 5060.78 1493.72 5055.14 1522.5 5049.5" stroke="#4472C4" stroke-width="6.875" stroke-linecap="round" stroke-linejoin="round" stroke-miterlimit="10" fill="none"/></g><g clip-path="url(#clip6)"><path d="M497.749 5401.55C497.749 5407.63 492.825 5412.55 486.75 5412.55 480.675 5412.55 475.75 5407.63 475.75 5401.55 475.75 5395.48 480.675 5390.55 486.75 5390.55 492.825 5390.55 497.749 5395.48 497.749 5401.55Z" stroke="#4472C4" stroke-width="3.4375" stroke-linejoin="round" stroke-miterlimit="10" fill="#4472C4"/><path d="M583.75 5350.55C583.75 5356.63 578.825 5361.55 572.75 5361.55 566.675 5361.55 561.75 5356.63 561.75 5350.55 561.75 5344.48 566.675 5339.55 572.75 5339.55 578.825 5339.55 583.75 5344.48 583.75 5350.55Z" stroke="#4472C4" stroke-width="3.4375" stroke-linejoin="round" stroke-miterlimit="10" fill="#4472C4"/><path d="M670.75 5306.55C670.75 5312.63 665.825 5317.55 659.75 5317.55 653.675 5317.55 648.75 5312.63 648.75 5306.55 648.75 5300.48 653.675 5295.55 659.75 5295.55 665.825 5295.55 670.75 5300.48 670.75 5306.55Z" stroke="#4472C4" stroke-width="3.4375" stroke-linejoin="round" stroke-miterlimit="10" fill="#4472C4"/><path d="M756.749 5262.55C756.749 5268.63 751.825 5273.55 745.75 5273.55 739.675 5273.55 734.75 5268.63 734.75 5262.55 734.75 5256.48 739.675 5251.55 745.75 5251.55 751.825 5251.55 756.749 5256.48 756.749 5262.55Z" stroke="#4472C4" stroke-width="3.4375" stroke-linejoin="round" stroke-miterlimit="10" fill="#4472C4"/><path d="M842.749 5225.55C842.749 5231.63 837.825 5236.55 831.75 5236.55 825.675 5236.55 820.75 5231.63 820.75 5225.55 820.75 5219.48 825.675 5214.55 831.75 5214.55 837.825 5214.55 842.749 5219.48 842.749 5225.55Z" stroke="#4472C4" stroke-width="3.4375" stroke-linejoin="round" stroke-miterlimit="10" fill="#4472C4"/><path d="M929.749 5191.55C929.749 5197.63 924.825 5202.55 918.75 5202.55 912.675 5202.55 907.75 5197.63 907.75 5191.55 907.75 5185.48 912.675 5180.55 918.75 5180.55 924.825 5180.55 929.749 5185.48 929.749 5191.55Z" stroke="#4472C4" stroke-width="3.4375" stroke-linejoin="round" stroke-miterlimit="10" fill="#4472C4"/><path d="M1015.75 5164.55C1015.75 5170.63 1010.82 5175.55 1004.75 5175.55 998.675 5175.55 993.75 5170.63 993.75 5164.55 993.75 5158.48 998.675 5153.55 1004.75 5153.55 1010.82 5153.55 1015.75 5158.48 1015.75 5164.55Z" stroke="#4472C4" stroke-width="3.4375" stroke-linejoin="round" stroke-miterlimit="10" fill="#4472C4"/><path d="M1101.75 5143.55C1101.75 5149.63 1096.82 5154.55 1090.75 5154.55 1084.67 5154.55 1079.75 5149.63 1079.75 5143.55 1079.75 5137.48 1084.67 5132.55 1090.75 5132.55 1096.82 5132.55 1101.75 5137.48 1101.75 5143.55Z" stroke="#4472C4" stroke-width="3.4375" stroke-linejoin="round" stroke-miterlimit="10" fill="#4472C4"/><path d="M1188.75 5120.55C1188.75 5126.63 1183.82 5131.55 1177.75 5131.55 1171.68 5131.55 1166.75 5126.63 1166.75 5120.55 1166.75 5114.48 1171.68 5109.55 1177.75 5109.55 1183.82 5109.55 1188.75 5114.48 1188.75 5120.55Z" stroke="#4472C4" stroke-width="3.4375" stroke-linejoin="round" stroke-miterlimit="10" fill="#4472C4"/><path d="M1274.75 5099.55C1274.75 5105.63 1269.82 5110.55 1263.75 5110.55 1257.67 5110.55 1252.75 5105.63 1252.75 5099.55 1252.75 5093.48 1257.67 5088.55 1263.75 5088.55 1269.82 5088.55 1274.75 5093.48 1274.75 5099.55Z" stroke="#4472C4" stroke-width="3.4375" stroke-linejoin="round" stroke-miterlimit="10" fill="#4472C4"/><path d="M1360.75 5082.55C1360.75 5088.63 1355.82 5093.55 1349.75 5093.55 1343.67 5093.55 1338.75 5088.63 1338.75 5082.55 1338.75 5076.48 1343.67 5071.55 1349.75 5071.55 1355.82 5071.55 1360.75 5076.48 1360.75 5082.55Z" stroke="#4472C4" stroke-width="3.4375" stroke-linejoin="round" stroke-miterlimit="10" fill="#4472C4"/><path d="M1447.75 5066.55C1447.75 5072.63 1442.82 5077.55 1436.75 5077.55 1430.67 5077.55 1425.75 5072.63 1425.75 5066.55 1425.75 5060.48 1430.67 5055.55 1436.75 5055.55 1442.82 5055.55 1447.75 5060.48 1447.75 5066.55Z" stroke="#4472C4" stroke-width="3.4375" stroke-linejoin="round" stroke-miterlimit="10" fill="#4472C4"/><path d="M1533.75 5049.55C1533.75 5055.63 1528.82 5060.55 1522.75 5060.55 1516.67 5060.55 1511.75 5055.63 1511.75 5049.55 1511.75 5043.48 1516.67 5038.55 1522.75 5038.55 1528.82 5038.55 1533.75 5043.48 1533.75 5049.55Z" stroke="#4472C4" stroke-width="3.4375" stroke-linejoin="round" stroke-miterlimit="10" fill="#4472C4"/></g><g clip-path="url(#clip7)"><path d="M486.5 5395.5 489.516 5393.68 492.516 5391.68 495.516 5389.68 498.517 5387.68 501.517 5385.68 505.517 5383.68 508.517 5381.68 511.517 5380.68 514.517 5378.68 517.517 5376.68 520.517 5374.68 523.517 5372.68 526.517 5370.68 530.518 5369.68 533.518 5367.68 536.518 5365.68 539.518 5363.68 542.518 5362.68 545.518 5360.68 548.518 5358.68 552.518 5356.68 555.518 5355.68 558.518 5353.68 561.519 5351.68 564.519 5350.68 567.519 5348.68 570.519 5346.68 573.519 5345.68 577.519 5343.68 580.519 5341.68 583.519 5340.68 586.519 5338.68 589.52 5336.68 592.52 5335.68 595.52 5333.68 598.52 5331.68 602.52 5330.67 605.52 5328.67 608.52 5327.67 611.52 5325.67 614.52 5324.67 617.52 5322.67 620.521 5320.67 623.521 5319.67 627.521 5317.67 630.521 5316.67 633.521 5314.67 636.521 5313.67 639.521 5311.67 642.521 5310.67 645.521 5308.67 648.521 5307.67 652.522 5305.67 655.522 5304.67 658.522 5302.67 661.522 5301.67 664.522 5300.67 667.522 5298.67 670.522 5297.67 674.522 5295.67 677.522 5294.67 680.523 5292.67 683.523 5291.67 686.523 5290.67 689.523 5288.67 692.523 5287.67 695.523 5285.67 699.523 5284.67 702.523 5283.67 705.523 5281.67 708.523 5280.67 711.524 5279.67 714.524 5277.67 717.524 5276.67 720.524 5275.67 724.524 5273.67 727.524 5272.67 730.524 5271.67 733.524 5269.67 736.524 5268.67 739.524 5267.67 742.525 5265.67 745.525 5264.67 749.525 5263.67 752.525 5261.67 755.525 5260.67 758.525 5259.67 761.525 5258.67 764.525 5256.67 767.525 5255.67 771.526 5254.67 774.526 5253.67 777.526 5251.67 780.526 5250.67 783.526 5249.67 786.526 5248.67 789.526 5246.67 792.526 5245.67 796.526 5244.67 799.526 5243.67 802.526 5241.67 805.527 5240.67 808.527 5239.67 811.527 5238.67 814.527 5237.67 817.527 5235.67 821.527 5234.67 824.527 5233.67 827.527 5232.67 830.527 5231.67 833.528 5230.67 836.528 5228.67 839.528 5227.67 842.528 5226.67 846.528 5225.67 849.528 5224.67 852.528 5223.67 855.528 5222.67 858.528 5220.67 861.528 5219.67 864.529 5218.67 868.529 5217.67 871.529 5216.67 874.529 5215.67 877.529 5214.67 880.529 5213.67 883.529 5211.67 886.529 5210.67 889.529 5209.67 893.53 5208.67 896.53 5207.67 899.53 5206.67 902.53 5205.67 905.53 5204.67 908.53 5203.67 911.53 5202.67 914.53 5201.67 918.53 5200.67 921.53 5199.67 924.531 5197.67 927.531 5196.67 930.531 5195.67 933.531 5194.67 936.531 5193.67 939.531 5192.67 943.531 5191.67 946.531 5190.67 949.531 5189.67 952.531 5188.67 955.531 5187.67 958.532 5186.67 961.532 5185.67 965.532 5184.67 968.532 5183.67 971.532 5182.67 974.532 5181.67 977.532 5180.67 980.532 5179.67 983.532 5178.67 986.533 5177.67 990.533 5176.67 993.533 5175.67 996.533 5174.67 999.533 5173.67 1002.53 5172.67 1005.53 5171.67 1008.53 5170.67 1011.53 5169.67 1015.53 5168.67 1018.53 5167.67 1021.53 5166.67 1024.53 5165.67 1027.53 5164.67 1030.53 5164.67 1033.53 5163.67 1036.53 5162.67 1040.53 5161.67 1043.53 5160.67 1046.53 5159.67 1049.53 5158.67 1052.53 5157.67 1055.53 5156.67 1058.53 5155.67 1062.54 5154.67 1065.54 5153.67 1068.54 5152.67 1071.54 5151.67 1074.54 5151.67 1077.54 5150.67 1080.54 5149.67 1083.54 5148.67 1087.54 5147.67 1090.54 5146.67 1093.54 5145.67 1096.54 5144.67 1099.54 5143.67 1102.54 5142.67 1105.54 5142.67 1108.54 5141.67 1112.54 5140.67 1115.54 5139.67 1118.54 5138.67 1121.54 5137.67 1124.54 5136.67 1127.54 5135.67 1130.54 5135.67 1133.54 5134.67 1137.54 5133.67 1140.54 5132.67 1143.54 5131.67 1146.54 5130.67 1149.54 5129.67 1152.54 5129.67 1155.54 5128.67 1159.54 5127.67 1162.54 5126.67 1165.54 5125.67 1168.54 5124.67 1171.54 5123.67 1174.54 5123.67 1177.54 5122.67 1180.54 5121.67 1184.54 5120.67 1187.54 5119.67 1190.54 5118.67 1193.54 5118.67 1196.54 5117.67 1199.54 5116.67 1202.54 5115.67 1205.54 5114.67 1209.54 5114.67 1212.54 5113.67 1215.54 5112.67 1218.54 5111.67 1221.54 5110.67 1224.54 5110.67 1227.54 5109.67 1230.54 5108.67 1234.54 5107.67 1237.54 5106.67 1240.54 5106.67 1243.54 5105.67 1246.54 5104.67 1249.54 5103.67 1252.54 5102.67 1256.54 5102.67 1259.54 5101.67 1262.54 5100.67 1265.54 5099.67 1268.54 5098.67 1271.54 5098.67 1274.54 5097.67 1277.54 5096.67 1281.54 5095.67 1284.54 5095.67 1287.54 5094.67 1290.54 5093.67 1293.54 5092.67 1296.54 5092.67 1299.54 5091.67 1302.54 5090.67 1306.54 5089.67 1309.54 5089.67 1312.54 5088.67 1315.54 5087.67 1318.54 5086.67 1321.54 5086.67 1324.54 5085.67 1327.54 5084.67 1331.54 5083.67 1334.54 5083.67 1337.54 5082.67 1340.54 5081.67 1343.54 5080.67 1346.54 5080.67 1349.54 5079.67 1353.54 5078.67 1356.54 5077.67 1359.54 5077.67 1362.54 5076.67 1365.55 5075.67 1368.55 5075.67 1371.55 5074.67 1374.55 5073.67 1378.55 5072.67 1381.55 5072.67 1384.55 5071.67 1387.55 5070.67 1390.55 5070.67 1393.55 5069.67 1396.55 5068.67 1399.55 5067.67 1403.55 5067.67 1406.55 5066.67 1409.55 5065.67 1412.55 5065.67 1415.55 5064.67 1418.55 5063.67 1421.55 5063.67 1424.55 5062.67 1428.55 5061.67 1431.55 5060.67 1434.55 5060.67 1437.55 5059.67 1440.55 5058.67 1443.55 5058.67 1446.55 5057.67 1450.55 5056.67 1453.55 5056.67 1456.55 5055.67 1459.55 5054.67 1462.55 5054.67 1465.55 5053.67 1468.55 5052.67 1471.55 5052.67 1475.55 5051.67 1478.55 5050.67 1481.55 5050.67 1484.55 5049.67 1487.55 5048.67 1490.55 5048.67 1493.55 5047.67 1496.55 5046.67 1500.55 5046.67 1503.55 5045.67 1506.55 5044.67 1509.55 5044.67 1512.55 5043.67 1515.55 5042.67 1518.55 5042.67 1521.55 5041.67 1525.55 5040.67 1528.55 5040.67 1531.55 5039.67 1534.55 5039.67 1537.55 5038.67 1540.55 5037.67 1543.55 5037.67 1547.55 5036.67 1550.55 5035.67 1553.55 5035.67 1556.55 5034.67 1559.55 5033.67 1562.55 5033.67 1565.55 5032.67 1568.55 5032.67 1572.55 5031.67 1575.55 5030.67 1578.55 5030.67 1581.55 5029.67 1584.55 5028.67 1587.55 5028.67 1590.55 5027.67 1593.55 5027.67 1597.55 5026.67 1600.55 5025.67 1603.55 5025.67 1606.55 5024.67 1609.55 5023.67 1612.55 5023.67 1615.55 5022.67 1618.55 5022.67 1622.55 5021.67 1625.55 5020.67 1628.55 5020.67 1631.55 5019.67 1634.55 5019.67 1637.55 5018.67 1640.55 5017.66 1644.55 5017.66 1647.55 5016.66 1650.55 5016.66 1653.55 5015.66 1656.55 5014.66 1659.55 5014.66 1662.55 5013.66 1665.55 5013.66 1669.55 5012.66 1672.56 5011.66 1675.56 5011.66 1678.56 5010.66 1681.56 5010.66 1684.56 5009.66 1687.56 5008.66 1690.56 5008.66 1694.56 5007.66 1697.56 5007.66 1700.56 5006.66 1703.56 5006.66 1706.56 5005.66 1709.56 5004.66 1712.56 5004.66 1715.56 5003.66 1719.56 5003.66 1722.56 5002.66 1725.56 5002.66 1728.56 5001.66 1731.56 5000.66 1734.56 5000.66 1737.56 4999.66 1740.56 4999.66 1744.56 4998.66 1747.56 4998.66 1750.56 4997.66 1753.56 4996.66 1756.56 4996.66 1759.56 4995.66 1762.56 4995.66 1766.56 4994.66 1769.56 4994.66 1772.56 4993.66 1775.56 4992.66 1778.56 4992.66 1781.56 4991.66 1784.56 4991.66 1787.56 4990.66 1791.56 4990.66 1794.56 4989.66 1797.56 4989.66 1800.56 4988.66 1803.56 4987.66 1806.56 4987.66 1809.56 4986.66 1812.56 4986.66 1816.56 4985.66 1819.56 4985.66 1822.56 4984.66 1825.56 4984.66 1828.56 4983.66 1831.56 4983.66 1834.56 4982.66 1837.56 4981.66 1841.56 4981.66 1844.56 4980.66 1847.56 4980.66 1850.56 4979.66 1853.56 4979.66 1856.56 4978.66 1859.56 4978.66 1863.56 4977.66 1866.56 4977.66 1869.56 4976.66 1872.56 4976.66 1875.56 4975.66 1878.56 4975.66 1881.56 4974.66 1884.56 4974.66 1888.56 4973.66 1891.56 4972.66 1894.56 4972.66 1897.56 4971.66 1900.56 4971.66 1903.56 4970.66 1906.56 4970.66 1909.56 4969.66 1913.56 4969.66 1916.56 4968.66 1919.56 4968.66 1922.56 4967.66 1925.56 4967.66 1928.56 4966.66 1931.56 4966.66 1934.56 4965.66 1938.56 4965.66 1941.56 4964.66 1944.56 4964.66 1947.56 4963.66 1950.56 4963.66 1953.56 4962.66 1956.56 4962.66 1960.56 4961.66 1963.56 4961.66 1966.56 4960.66 1969.56 4960.66 1972.56 4959.66 1975.56 4959.66 1978.57 4958.66 1981.57 4958.66 1985.57 4957.66 1988.57 4957.66 1991.57 4956.66 1994.57 4956.66 1997.57 4955.66 2000.57 4955.66 2003.57 4954.66 2006.57 4954.66 2010.57 4953.66 2013.57 4953.66 2016.57 4952.66 2019.57 4952.66 2022.57 4951.66 2025.57 4951.66 2028.57 4950.66 2031.57 4950.66 2035.57 4949.66 2038.57 4949.66 2041.57 4948.66 2044.57 4948.66 2047.57 4947.66 2050.57 4947.66 2053.57 4946.66 2057.57 4946.66 2060.57 4945.66 2063.57 4945.66 2066.57 4944.66 2069.57 4944.66 2072.57 4943.66 2075.57 4943.66 2078.57 4942.66 2082.57 4942.66 2085.57 4942.66 2088.57 4941.66 2091.57 4941.66 2094.57 4940.66 2097.57 4940.66 2100.57 4939.66 2103.57 4939.66 2107.57 4938.66 2110.57 4938.66 2113.57 4937.66 2116.57 4937.66 2119.57 4936.66 2122.57 4936.66 2125.57 4935.66 2128.57 4935.66 2132.57 4934.66 2135.57 4934.66 2138.57 4934.66 2141.57 4933.66 2144.57 4933.66 2147.57 4932.66 2150.57 4932.66 2154.57 4931.66 2157.57 4931.66 2160.57 4930.66 2163.57 4930.66 2166.57 4929.66 2169.57 4929.66 2172.57 4928.66 2175.57 4928.66 2179.57 4928.66 2182.57 4927.66 2185.57 4927.66 2188.57 4926.66 2191.57 4926.66 2194.57 4925.66 2197.57 4925.66 2200.57 4924.66 2204.57 4924.66 2207.57 4923.66 2210.57 4923.66 2213.5 4923.5" stroke="#4472C4" stroke-width="6.875" stroke-linecap="round" stroke-linejoin="round" stroke-miterlimit="10" stroke-dasharray="0 13.75" fill="none"/></g><g clip-path="url(#clip8)"><text fill="#595959" font-family="Calibri,Calibri_MSFontService,sans-serif" font-weight="400" font-size="41" transform="matrix(1 0 0 1 223.231 5453)">0,6</text></g><g clip-path="url(#clip9)"><text fill="#595959" font-family="Calibri,Calibri_MSFontService,sans-serif" font-weight="400" font-size="41" transform="matrix(1 0 0 1 223.231 5386)">0,8</text></g><g clip-path="url(#clip10)"><text fill="#595959" font-family="Calibri,Calibri_MSFontService,sans-serif" font-weight="400" font-size="41" transform="matrix(1 0 0 1 254.421 5318)">1</text></g><g clip-path="url(#clip11)"><text fill="#595959" font-family="Calibri,Calibri_MSFontService,sans-serif" font-weight="400" font-size="41" transform="matrix(1 0 0 1 223.231 5250)">1,2</text></g><g clip-path="url(#clip12)"><text fill="#595959" font-family="Calibri,Calibri_MSFontService,sans-serif" font-weight="400" font-size="41" transform="matrix(1 0 0 1 223.231 5183)">1,4</text></g><g clip-path="url(#clip13)"><text fill="#595959" font-family="Calibri,Calibri_MSFontService,sans-serif" font-weight="400" font-size="41" transform="matrix(1 0 0 1 223.231 5115)">1,6</text></g><g clip-path="url(#clip14)"><text fill="#595959" font-family="Calibri,Calibri_MSFontService,sans-serif" font-weight="400" font-size="41" transform="matrix(1 0 0 1 223.231 5047)">1,8</text></g><g clip-path="url(#clip15)"><text fill="#595959" font-family="Calibri,Calibri_MSFontService,sans-serif" font-weight="400" font-size="41" transform="matrix(1 0 0 1 254.421 4979)">2</text></g><g clip-path="url(#clip16)"><text fill="#595959" font-family="Calibri,Calibri_MSFontService,sans-serif" font-weight="400" font-size="41" transform="matrix(1 0 0 1 223.231 4912)">2,2</text></g><g clip-path="url(#clip17)"><text fill="#595959" font-family="Calibri,Calibri_MSFontService,sans-serif" font-weight="400" font-size="41" transform="matrix(1 0 0 1 223.231 4844)">2,4</text></g><g clip-path="url(#clip18)"><text fill="#595959" font-family="Calibri,Calibri_MSFontService,sans-serif" font-weight="400" font-size="41" transform="matrix(1 0 0 1 292.688 5507)">10</text></g><g clip-path="url(#clip19)"><text fill="#595959" font-family="Calibri,Calibri_MSFontService,sans-serif" font-weight="400" font-size="41" transform="matrix(1 0 0 1 638.134 5507)">20</text></g><g clip-path="url(#clip20)"><text fill="#595959" font-family="Calibri,Calibri_MSFontService,sans-serif" font-weight="400" font-size="41" transform="matrix(1 0 0 1 983.58 5507)">30</text></g><g clip-path="url(#clip21)"><text fill="#595959" font-family="Calibri,Calibri_MSFontService,sans-serif" font-weight="400" font-size="41" transform="matrix(1 0 0 1 1329.03 5507)">40</text></g><g clip-path="url(#clip22)"><text fill="#595959" font-family="Calibri,Calibri_MSFontService,sans-serif" font-weight="400" font-size="41" transform="matrix(1 0 0 1 1674.47 5507)">50</text></g><g clip-path="url(#clip23)"><text fill="#595959" font-family="Calibri,Calibri_MSFontService,sans-serif" font-weight="400" font-size="41" transform="matrix(1 0 0 1 2019.92 5507)">60</text></g><g clip-path="url(#clip24)"><text fill="#595959" font-family="Calibri,Calibri_MSFontService,sans-serif" font-weight="400" font-size="46" transform="matrix(6.12323e-17 -1 1 6.12323e-17 197.542 5339)">Factor X de Confianza</text></g><g clip-path="url(#clip25)"><text fill="#595959" font-family="Calibri,Calibri_MSFontService,sans-serif" font-weight="400" font-size="46" transform="matrix(1 0 0 1 976.109 5576)">Temperatura de bulbo seco, </text></g><g clip-path="url(#clip26)"><text fill="#595959" font-family="Calibri,Calibri_MSFontService,sans-serif" font-weight="400" font-size="46" transform="matrix(1 0 0 1 1511.05 5576)">°</text></g><g clip-path="url(#clip27)"><text fill="#595959" font-family="Calibri,Calibri_MSFontService,sans-serif" font-weight="400" font-size="46" transform="matrix(1 0 0 1 1526.59 5576)">C</text></g><g clip-path="url(#clip28)"><text fill="#595959" font-family="Calibri,Calibri_MSFontService,sans-serif" font-weight="400" font-size="64" transform="matrix(1 0 0 1 346.681 4679)">Confiabilidad respecto a las variaciones de temperatura de bulbo </text></g><g clip-path="url(#clip29)"><text fill="#595959" font-family="Calibri,Calibri_MSFontService,sans-serif" font-weight="400" font-size="64" transform="matrix(1 0 0 1 1131.83 4757)">seco</text></g><g clip-path="url(#clip30)"><path d="M686.5 5684.5 802.5 5684.5" stroke="#4472C4" stroke-width="6.875" stroke-linecap="round" stroke-linejoin="round" stroke-miterlimit="10" fill="none" fill-rule="evenodd"/></g><g clip-path="url(#clip31)"><path d="M755 5684C755 5690.07 750.075 5695 744 5695 737.925 5695 733 5690.07 733 5684 733 5677.92 737.925 5673 744 5673 750.075 5673 755 5677.92 755 5684Z" stroke="#4472C4" stroke-width="3.4375" stroke-linejoin="round" stroke-miterlimit="10" fill="#4472C4"/></g><g clip-path="url(#clip32)"><text fill="#595959" font-family="Calibri,Calibri_MSFontService,sans-serif" font-weight="400" font-size="41" transform="matrix(1 0 0 1 814.781 5696)">Límites promedio</text></g><g clip-path="url(#clip33)"><path d="M1189.5 5684.5 1304.5 5684.5" stroke="#4472C4" stroke-width="6.875" stroke-linecap="round" stroke-linejoin="round" stroke-miterlimit="10" stroke-dasharray="0 13.75" fill="none" fill-rule="evenodd"/></g><g clip-path="url(#clip34)"><text fill="#595959" font-family="Calibri,Calibri_MSFontService,sans-serif" font-weight="400" font-size="41" transform="matrix(1 0 0 1 1317.63 5696)">Log. (Límites promedio)</text></g><rect x="96.5001" y="4584.5" width="2189" height="1166" stroke="#D9D9D9" stroke-width="3.4375" stroke-linejoin="round" stroke-miterlimit="10" fill="none"/></g></svg>