<svg width="1374" height="1165" xmlns="http://www.w3.org/2000/svg" xmlns:xlink="http://www.w3.org/1999/xlink" overflow="hidden"><defs><clipPath id="clip0"><rect x="1323" y="7228" width="1374" height="1165"/></clipPath><clipPath id="clip1"><rect x="1323" y="7228" width="1372" height="1163"/></clipPath><clipPath id="clip2"><rect x="1323" y="7228" width="1372" height="1163"/></clipPath><clipPath id="clip3"><rect x="1562" y="7476" width="1086" height="715"/></clipPath><clipPath id="clip4"><rect x="1562" y="7476" width="1086" height="715"/></clipPath><clipPath id="clip5"><rect x="1323" y="7228" width="1372" height="1163"/></clipPath><clipPath id="clip6"><rect x="1323" y="7228" width="1372" height="1163"/></clipPath><clipPath id="clip7"><rect x="1323" y="7228" width="1372" height="1163"/></clipPath><clipPath id="clip8"><rect x="1323" y="7228" width="1372" height="1163"/></clipPath><clipPath id="clip9"><rect x="1323" y="7228" width="1372" height="1163"/></clipPath><clipPath id="clip10"><rect x="1323" y="7228" width="1372" height="1163"/></clipPath><clipPath id="clip11"><rect x="1323" y="7228" width="1372" height="1163"/></clipPath><clipPath id="clip12"><rect x="1323" y="7228" width="1372" height="1163"/></clipPath><clipPath id="clip13"><rect x="1323" y="7228" width="1372" height="1163"/></clipPath><clipPath id="clip14"><rect x="1323" y="7228" width="1372" height="1163"/></clipPath><clipPath id="clip15"><rect x="1323" y="7228" width="1372" height="1163"/></clipPath><clipPath id="clip16"><rect x="1323" y="7228" width="1372" height="1163"/></clipPath><clipPath id="clip17"><rect x="1323" y="7228" width="1372" height="1163"/></clipPath><clipPath id="clip18"><rect x="1323" y="7228" width="1372" height="1163"/></clipPath><clipPath id="clip19"><rect x="1323" y="7228" width="1372" height="1163"/></clipPath><clipPath id="clip20"><rect x="1323" y="7228" width="1372" height="1163"/></clipPath><clipPath id="clip21"><rect x="1323" y="7228" width="1372" height="1163"/></clipPath><clipPath id="clip22"><rect x="1323" y="7228" width="1372" height="1163"/></clipPath><clipPath id="clip23"><rect x="1323" y="7228" width="1372" height="1163"/></clipPath><clipPath id="clip24"><rect x="1323" y="7228" width="1372" height="1163"/></clipPath></defs><g clip-path="url(#clip0)" transform="translate(-1323 -7228)"><rect x="1324" y="7229" width="1371" height="1162" fill="#FFFFFF"/><g clip-path="url(#clip1)"><path d="M1562.5 8045.76 2644.5 8045.76M1562.5 7903.76 2644.5 7903.76M1562.5 7761.75 2644.5 7761.75M1562.5 7618.75 2644.5 7618.75M1562.5 7476.5 2644.5 7476.5" stroke="#D9D9D9" stroke-width="3.4375" stroke-linejoin="round" stroke-miterlimit="10" fill="none"/></g><g clip-path="url(#clip2)"><path d="M1742.56 7476.5 1742.56 8187.5M1922.56 7476.5 1922.56 8187.5M2103.57 7476.5 2103.57 8187.5M2283.58 7476.5 2283.58 8187.5M2464.58 7476.5 2464.58 8187.5M2644.5 7476.5 2644.5 8187.5" stroke="#D9D9D9" stroke-width="3.4375" stroke-linejoin="round" stroke-miterlimit="10" fill="none"/></g><g clip-path="url(#clip3)"><path d="M1652 8188 1833.06 8145.27 2013.07 8111.27 2194.07 8074.27 2374.08 7974.26 2554 7619 2554 8188 2374.08 8188 2194.07 8188 2013.07 8188 1833.06 8188 1652 8188Z" fill="#4472C4"/></g><g clip-path="url(#clip4)"><path d="M1652 8188 1833.06 8188 2013.07 8188 2194.07 8159.27 2374.08 8102.27 2554 8017 2554 8188 2374.08 8188 2194.07 8188 2013.07 8188 1833.06 8188 1652 8188Z" fill="#FFFFFF"/></g><g clip-path="url(#clip5)"><path d="M0 0 0.000360892 711" stroke="#BFBFBF" stroke-width="3.4375" stroke-linejoin="round" stroke-miterlimit="10" fill="none" fill-rule="evenodd" transform="matrix(1 0 0 -1 1562.5 8187.5)"/></g><g clip-path="url(#clip6)"><path d="M1562.5 8187.5 2644.5 8187.5" stroke="#BFBFBF" stroke-width="3.4375" stroke-linejoin="round" stroke-miterlimit="10" fill="none" fill-rule="evenodd"/></g><g clip-path="url(#clip7)"><text fill="#595959" font-family="Calibri,Calibri_MSFontService,sans-serif" font-weight="400" font-size="41" transform="matrix(1 0 0 1 1503 8199)">1</text></g><g clip-path="url(#clip8)"><text fill="#595959" font-family="Calibri,Calibri_MSFontService,sans-serif" font-weight="400" font-size="41" transform="matrix(1 0 0 1 1450.91 8057)">1,05</text></g><g clip-path="url(#clip9)"><text fill="#595959" font-family="Calibri,Calibri_MSFontService,sans-serif" font-weight="400" font-size="41" transform="matrix(1 0 0 1 1471.81 7915)">1,1</text></g><g clip-path="url(#clip10)"><text fill="#595959" font-family="Calibri,Calibri_MSFontService,sans-serif" font-weight="400" font-size="41" transform="matrix(1 0 0 1 1450.91 7773)">1,15</text></g><g clip-path="url(#clip11)"><text fill="#595959" font-family="Calibri,Calibri_MSFontService,sans-serif" font-weight="400" font-size="41" transform="matrix(1 0 0 1 1471.81 7631)">1,2</text></g><g clip-path="url(#clip12)"><text fill="#595959" font-family="Calibri,Calibri_MSFontService,sans-serif" font-weight="400" font-size="41" transform="matrix(1 0 0 1 1450.91 7488)">1,25</text></g><g clip-path="url(#clip13)"><text fill="#595959" font-family="Calibri,Calibri_MSFontService,sans-serif" font-weight="400" font-size="41" transform="matrix(1 0 0 1 1631.47 8253)">15</text></g><g clip-path="url(#clip14)"><text fill="#595959" font-family="Calibri,Calibri_MSFontService,sans-serif" font-weight="400" font-size="41" transform="matrix(1 0 0 1 1811.87 8253)">24</text></g><g clip-path="url(#clip15)"><text fill="#595959" font-family="Calibri,Calibri_MSFontService,sans-serif" font-weight="400" font-size="41" transform="matrix(1 0 0 1 1992.27 8253)">25</text></g><g clip-path="url(#clip16)"><text fill="#595959" font-family="Calibri,Calibri_MSFontService,sans-serif" font-weight="400" font-size="41" transform="matrix(1 0 0 1 2172.68 8253)">27</text></g><g clip-path="url(#clip17)"><text fill="#595959" font-family="Calibri,Calibri_MSFontService,sans-serif" font-weight="400" font-size="41" transform="matrix(1 0 0 1 2353.08 8253)">30</text></g><g clip-path="url(#clip18)"><text fill="#595959" font-family="Calibri,Calibri_MSFontService,sans-serif" font-weight="400" font-size="41" transform="matrix(1 0 0 1 2533.48 8253)">35</text></g><g clip-path="url(#clip19)"><text fill="#595959" font-family="Calibri,Calibri_MSFontService,sans-serif" font-weight="400" font-size="46" transform="matrix(6.12323e-17 -1 1 6.12323e-17 1425.22 8201)">Incremento de potencia en el servidor</text></g><g clip-path="url(#clip20)"><text fill="#595959" font-family="Calibri,Calibri_MSFontService,sans-serif" font-weight="400" font-size="46" transform="matrix(1 0 0 1 1859.67 8322)">Temperatura Ambiente </text></g><g clip-path="url(#clip21)"><text fill="#595959" font-family="Calibri,Calibri_MSFontService,sans-serif" font-weight="400" font-size="46" transform="matrix(1 0 0 1 2307.12 8322)">°</text></g><g clip-path="url(#clip22)"><text fill="#595959" font-family="Calibri,Calibri_MSFontService,sans-serif" font-weight="400" font-size="46" transform="matrix(1 0 0 1 2322.65 8322)">C</text></g><g clip-path="url(#clip23)"><text fill="#595959" font-family="Calibri,Calibri_MSFontService,sans-serif" font-weight="400" font-size="64" transform="matrix(1 0 0 1 1497.91 7324)">Potencia en los servidores respecto a la </text></g><g clip-path="url(#clip24)"><text fill="#595959" font-family="Calibri,Calibri_MSFontService,sans-serif" font-weight="400" font-size="64" transform="matrix(1 0 0 1 1596.52 7402)">temperatura ambiente Clase A2</text></g><rect x="1324.5" y="7229.5" width="1371" height="1162" stroke="#D9D9D9" stroke-width="3.4375" stroke-linejoin="round" stroke-miterlimit="10" fill="none"/></g></svg>