<svg width="1370" height="1166" xmlns="http://www.w3.org/2000/svg" xmlns:xlink="http://www.w3.org/1999/xlink" overflow="hidden"><defs><clipPath id="clip0"><rect x="1700" y="8477" width="1370" height="1166"/></clipPath><clipPath id="clip1"><rect x="1701" y="8477" width="1367" height="1163"/></clipPath><clipPath id="clip2"><rect x="1701" y="8477" width="1367" height="1163"/></clipPath><clipPath id="clip3"><rect x="1939" y="8726" width="1061" height="714"/></clipPath><clipPath id="clip4"><rect x="1939" y="8726" width="1061" height="714"/></clipPath><clipPath id="clip5"><rect x="1701" y="8477" width="1367" height="1163"/></clipPath><clipPath id="clip6"><rect x="1701" y="8477" width="1367" height="1163"/></clipPath><clipPath id="clip7"><rect x="1701" y="8477" width="1367" height="1163"/></clipPath><clipPath id="clip8"><rect x="1701" y="8477" width="1367" height="1163"/></clipPath><clipPath id="clip9"><rect x="1701" y="8477" width="1367" height="1163"/></clipPath><clipPath id="clip10"><rect x="1701" y="8477" width="1367" height="1163"/></clipPath><clipPath id="clip11"><rect x="1701" y="8477" width="1367" height="1163"/></clipPath><clipPath id="clip12"><rect x="1701" y="8477" width="1367" height="1163"/></clipPath><clipPath id="clip13"><rect x="1701" y="8477" width="1367" height="1163"/></clipPath><clipPath id="clip14"><rect x="1701" y="8477" width="1367" height="1163"/></clipPath><clipPath id="clip15"><rect x="1701" y="8477" width="1367" height="1163"/></clipPath><clipPath id="clip16"><rect x="1701" y="8477" width="1367" height="1163"/></clipPath><clipPath id="clip17"><rect x="1701" y="8477" width="1367" height="1163"/></clipPath><clipPath id="clip18"><rect x="1701" y="8477" width="1367" height="1163"/></clipPath><clipPath id="clip19"><rect x="1701" y="8477" width="1367" height="1163"/></clipPath><clipPath id="clip20"><rect x="1701" y="8477" width="1367" height="1163"/></clipPath><clipPath id="clip21"><rect x="1701" y="8477" width="1367" height="1163"/></clipPath><clipPath id="clip22"><rect x="1701" y="8477" width="1367" height="1163"/></clipPath><clipPath id="clip23"><rect x="1701" y="8477" width="1367" height="1163"/></clipPath><clipPath id="clip24"><rect x="1701" y="8477" width="1367" height="1163"/></clipPath></defs><g clip-path="url(#clip0)" transform="translate(-1700 -8477)"><rect x="1701" y="8478" width="1367" height="1163" fill="#FFFFFF"/><g clip-path="url(#clip1)"><path d="M1939.5 9294.8 2996.5 9294.8M1939.5 9152.8 2996.5 9152.8M1939.5 9010.8 2996.5 9010.8M1939.5 8868.79 2996.5 8868.79M1939.5 8726.5 2996.5 8726.5" stroke="#D9D9D9" stroke-width="3.4375" stroke-linejoin="round" stroke-miterlimit="10" fill="none"/></g><g clip-path="url(#clip2)"><path d="M2150.57 8726.5 2150.57 9437.5M2362.58 8726.5 2362.58 9437.5M2573.58 8726.5 2573.58 9437.5M2785.59 8726.5 2785.59 9437.5M2996.5 8726.5 2996.5 9437.5" stroke="#D9D9D9" stroke-width="3.4375" stroke-linejoin="round" stroke-miterlimit="10" fill="none"/></g><g clip-path="url(#clip3)"><path d="M1939 9437 2151.07 9374.31 2362.08 9352.31 2574.08 9295.3 2785.09 9152.3 2997 8868 2997 9437 2785.09 9437 2574.08 9437 2362.08 9437 2151.07 9437 1939 9437Z" fill="#4472C4"/></g><g clip-path="url(#clip4)"><path d="M1939 9437 2151.07 9437 2362.08 9437 2574.08 9380.31 2785.09 9337.31 2997 9238 2997 9437 2785.09 9437 2574.08 9437 2362.08 9437 2151.07 9437 1939 9437Z" fill="#FFFFFF"/></g><g clip-path="url(#clip5)"><path d="M0 0 0.000360892 711" stroke="#BFBFBF" stroke-width="3.4375" stroke-linejoin="round" stroke-miterlimit="10" fill="none" fill-rule="evenodd" transform="matrix(1 0 0 -1 1939.5 9437.5)"/></g><g clip-path="url(#clip6)"><path d="M1939.5 9437.5 2996.5 9437.5" stroke="#BFBFBF" stroke-width="3.4375" stroke-linejoin="round" stroke-miterlimit="10" fill="none" fill-rule="evenodd"/></g><g clip-path="url(#clip7)"><text fill="#595959" font-family="Calibri,Calibri_MSFontService,sans-serif" font-weight="400" font-size="41" transform="matrix(1 0 0 1 1880.14 9449)">1</text></g><g clip-path="url(#clip8)"><text fill="#595959" font-family="Calibri,Calibri_MSFontService,sans-serif" font-weight="400" font-size="41" transform="matrix(1 0 0 1 1828.05 9307)">1,05</text></g><g clip-path="url(#clip9)"><text fill="#595959" font-family="Calibri,Calibri_MSFontService,sans-serif" font-weight="400" font-size="41" transform="matrix(1 0 0 1 1848.95 9164)">1,1</text></g><g clip-path="url(#clip10)"><text fill="#595959" font-family="Calibri,Calibri_MSFontService,sans-serif" font-weight="400" font-size="41" transform="matrix(1 0 0 1 1828.05 9022)">1,15</text></g><g clip-path="url(#clip11)"><text fill="#595959" font-family="Calibri,Calibri_MSFontService,sans-serif" font-weight="400" font-size="41" transform="matrix(1 0 0 1 1848.95 8880)">1,2</text></g><g clip-path="url(#clip12)"><text fill="#595959" font-family="Calibri,Calibri_MSFontService,sans-serif" font-weight="400" font-size="41" transform="matrix(1 0 0 1 1828.05 8738)">1,25</text></g><g clip-path="url(#clip13)"><text fill="#595959" font-family="Calibri,Calibri_MSFontService,sans-serif" font-weight="400" font-size="41" transform="matrix(1 0 0 1 1918.41 9502)">15</text></g><g clip-path="url(#clip14)"><text fill="#595959" font-family="Calibri,Calibri_MSFontService,sans-serif" font-weight="400" font-size="41" transform="matrix(1 0 0 1 2129.93 9502)">25</text></g><g clip-path="url(#clip15)"><text fill="#595959" font-family="Calibri,Calibri_MSFontService,sans-serif" font-weight="400" font-size="41" transform="matrix(1 0 0 1 2325.85 9502)">27,5</text></g><g clip-path="url(#clip16)"><text fill="#595959" font-family="Calibri,Calibri_MSFontService,sans-serif" font-weight="400" font-size="41" transform="matrix(1 0 0 1 2552.96 9502)">32</text></g><g clip-path="url(#clip17)"><text fill="#595959" font-family="Calibri,Calibri_MSFontService,sans-serif" font-weight="400" font-size="41" transform="matrix(1 0 0 1 2764.48 9502)">35</text></g><g clip-path="url(#clip18)"><text fill="#595959" font-family="Calibri,Calibri_MSFontService,sans-serif" font-weight="400" font-size="41" transform="matrix(1 0 0 1 2976 9502)">40</text></g><g clip-path="url(#clip19)"><text fill="#595959" font-family="Calibri,Calibri_MSFontService,sans-serif" font-weight="400" font-size="46" transform="matrix(6.12323e-17 -1 1 6.12323e-17 1793.72 9417)">Incremento de potencia en el servidor</text></g><g clip-path="url(#clip20)"><text fill="#595959" font-family="Calibri,Calibri_MSFontService,sans-serif" font-weight="400" font-size="46" transform="matrix(1 0 0 1 2224.4 9571)">Temperatura Ambiente </text></g><g clip-path="url(#clip21)"><text fill="#595959" font-family="Calibri,Calibri_MSFontService,sans-serif" font-weight="400" font-size="46" transform="matrix(1 0 0 1 2671.84 9571)">°</text></g><g clip-path="url(#clip22)"><text fill="#595959" font-family="Calibri,Calibri_MSFontService,sans-serif" font-weight="400" font-size="46" transform="matrix(1 0 0 1 2687.38 9571)">C</text></g><g clip-path="url(#clip23)"><text fill="#595959" font-family="Calibri,Calibri_MSFontService,sans-serif" font-weight="400" font-size="64" transform="matrix(1 0 0 1 1873.09 8573)">Potencia en los servidores respecto a la </text></g><g clip-path="url(#clip24)"><text fill="#595959" font-family="Calibri,Calibri_MSFontService,sans-serif" font-weight="400" font-size="64" transform="matrix(1 0 0 1 1971.7 8651)">temperatura ambiente Clase A3</text></g><rect x="1701.5" y="8478.5" width="1367" height="1163" stroke="#D9D9D9" stroke-width="3.4375" stroke-linejoin="round" stroke-miterlimit="10" fill="none"/></g></svg>