<svg width="1652" height="993" xmlns="http://www.w3.org/2000/svg" xmlns:xlink="http://www.w3.org/1999/xlink" overflow="hidden"><defs><clipPath id="clip0"><rect x="1732" y="460" width="1652" height="993"/></clipPath><clipPath id="clip1"><rect x="1732" y="460" width="1650" height="990"/></clipPath><clipPath id="clip2"><rect x="1732" y="460" width="1650" height="990"/></clipPath><clipPath id="clip3"><rect x="1732" y="460" width="1650" height="990"/></clipPath><clipPath id="clip4"><rect x="1939" y="708" width="1396" height="542"/></clipPath><clipPath id="clip5"><rect x="1732" y="460" width="1650" height="990"/></clipPath><clipPath id="clip6"><rect x="1732" y="460" width="1650" height="990"/></clipPath><clipPath id="clip7"><rect x="1732" y="460" width="1650" height="990"/></clipPath><clipPath id="clip8"><rect x="1732" y="460" width="1650" height="990"/></clipPath><clipPath id="clip9"><rect x="1732" y="460" width="1650" height="990"/></clipPath><clipPath id="clip10"><rect x="1732" y="460" width="1650" height="990"/></clipPath><clipPath id="clip11"><rect x="1732" y="460" width="1650" height="990"/></clipPath><clipPath id="clip12"><rect x="1732" y="460" width="1650" height="990"/></clipPath><clipPath id="clip13"><rect x="1732" y="460" width="1650" height="990"/></clipPath><clipPath id="clip14"><rect x="1732" y="460" width="1650" height="990"/></clipPath><clipPath id="clip15"><rect x="1732" y="460" width="1650" height="990"/></clipPath><clipPath id="clip16"><rect x="1732" y="460" width="1650" height="990"/></clipPath><clipPath id="clip17"><rect x="1732" y="460" width="1650" height="990"/></clipPath><clipPath id="clip18"><rect x="1732" y="460" width="1650" height="990"/></clipPath><clipPath id="clip19"><rect x="1732" y="460" width="1650" height="990"/></clipPath><clipPath id="clip20"><rect x="1732" y="460" width="1650" height="990"/></clipPath><clipPath id="clip21"><rect x="1732" y="460" width="1650" height="990"/></clipPath><clipPath id="clip22"><rect x="1732" y="460" width="1650" height="990"/></clipPath><clipPath id="clip23"><rect x="1732" y="460" width="1650" height="990"/></clipPath><clipPath id="clip24"><rect x="1732" y="460" width="1650" height="990"/></clipPath><clipPath id="clip25"><rect x="1732" y="460" width="1650" height="990"/></clipPath><clipPath id="clip26"><rect x="1732" y="460" width="1650" height="990"/></clipPath><clipPath id="clip27"><rect x="1732" y="460" width="1650" height="990"/></clipPath><clipPath id="clip28"><rect x="1732" y="460" width="1650" height="990"/></clipPath><clipPath id="clip29"><rect x="1732" y="460" width="1650" height="990"/></clipPath><clipPath id="clip30"><rect x="1732" y="460" width="1650" height="990"/></clipPath><clipPath id="clip31"><rect x="1732" y="460" width="1650" height="990"/></clipPath><clipPath id="clip32"><rect x="1732" y="460" width="1650" height="990"/></clipPath><clipPath id="clip33"><rect x="1732" y="460" width="1650" height="990"/></clipPath><clipPath id="clip34"><rect x="1732" y="460" width="1650" height="990"/></clipPath><clipPath id="clip35"><rect x="1732" y="460" width="1650" height="990"/></clipPath><clipPath id="clip36"><rect x="1732" y="460" width="1650" height="990"/></clipPath><clipPath id="clip37"><rect x="1732" y="460" width="1650" height="990"/></clipPath><clipPath id="clip38"><rect x="1732" y="460" width="1650" height="990"/></clipPath><clipPath id="clip39"><rect x="1732" y="460" width="1650" height="990"/></clipPath></defs><g clip-path="url(#clip0)" transform="translate(-1732 -460)"><rect x="1733" y="461" width="1649" height="990" fill="#FFFFFF"/><g clip-path="url(#clip1)"><path d="M1939.5 1157.54 3332.5 1157.54M1939.5 1067.54 3332.5 1067.54M1939.5 977.532 3332.5 977.532M1939.5 888.529 3332.5 888.529M1939.5 798.526 3332.5 798.526M1939.5 708.5 3332.5 708.5" stroke="#D9D9D9" stroke-width="3.4375" stroke-linejoin="round" stroke-miterlimit="10" fill="none"/></g><g clip-path="url(#clip2)"><path d="M1939.5 1247.5 3332.5 1247.5" stroke="#D9D9D9" stroke-width="3.4375" stroke-linejoin="round" stroke-miterlimit="10" fill="none" fill-rule="evenodd"/></g><g clip-path="url(#clip3)"><path d="M1939.5 1247.5 1939.5 1260.5M2026.57 1247.5 2026.57 1260.5M2113.57 1247.5 2113.57 1260.5M2200.57 1247.5 2200.57 1260.5M2287.58 1247.5 2287.58 1260.5M2374.58 1247.5 2374.58 1260.5M2461.58 1247.5 2461.58 1260.5M2548.58 1247.5 2548.58 1260.5M2635.59 1247.5 2635.59 1260.5M2722.59 1247.5 2722.59 1260.5M2809.59 1247.5 2809.59 1260.5M2896.6 1247.5 2896.6 1260.5M2983.6 1247.5 2983.6 1260.5M3070.6 1247.5 3070.6 1260.5M3157.6 1247.5 3157.6 1260.5M3244.61 1247.5 3244.61 1260.5M3332.5 1247.5 3332.5 1260.5" stroke="#D9D9D9" stroke-width="3.4375" stroke-linejoin="round" stroke-miterlimit="10" fill="none"/></g><g clip-path="url(#clip4)"><path d="M1983 969.032 2070.07 978 2157.07 969.032 2244.07 960.031 2331.08 956.031 2418.08 947.031 2505.08 938.031 2592.08 929.03 2679.09 911.03 2766.09 888.029 2853.09 866.028 2940.1 843.028 3027.1 826.027 3114.1 808.026 3201.1 790.026 3289 772" stroke="#4472C4" stroke-width="10.3125" stroke-linecap="round" stroke-linejoin="round" stroke-miterlimit="10" fill="none"/></g><g clip-path="url(#clip5)"><text fill="#595959" font-family="Calibri,Calibri_MSFontService,sans-serif" font-weight="400" font-size="41" transform="matrix(1 0 0 1 1859.48 1259)">20</text></g><g clip-path="url(#clip6)"><text fill="#595959" font-family="Calibri,Calibri_MSFontService,sans-serif" font-weight="400" font-size="41" transform="matrix(1 0 0 1 1859.48 1169)">30</text></g><g clip-path="url(#clip7)"><text fill="#595959" font-family="Calibri,Calibri_MSFontService,sans-serif" font-weight="400" font-size="41" transform="matrix(1 0 0 1 1859.48 1079)">40</text></g><g clip-path="url(#clip8)"><text fill="#595959" font-family="Calibri,Calibri_MSFontService,sans-serif" font-weight="400" font-size="41" transform="matrix(1 0 0 1 1859.48 990)">50</text></g><g clip-path="url(#clip9)"><text fill="#595959" font-family="Calibri,Calibri_MSFontService,sans-serif" font-weight="400" font-size="41" transform="matrix(1 0 0 1 1859.48 900)">60</text></g><g clip-path="url(#clip10)"><text fill="#595959" font-family="Calibri,Calibri_MSFontService,sans-serif" font-weight="400" font-size="41" transform="matrix(1 0 0 1 1859.48 810)">70</text></g><g clip-path="url(#clip11)"><text fill="#595959" font-family="Calibri,Calibri_MSFontService,sans-serif" font-weight="400" font-size="41" transform="matrix(1 0 0 1 1859.48 721)">80</text></g><g clip-path="url(#clip12)"><text fill="#595959" font-family="Calibri,Calibri_MSFontService,sans-serif" font-weight="400" font-size="41" transform="matrix(1 0 0 1 1946.57 1312)">22,5</text></g><g clip-path="url(#clip13)"><text fill="#595959" font-family="Calibri,Calibri_MSFontService,sans-serif" font-weight="400" font-size="41" transform="matrix(1 0 0 1 2049.2 1312)">25</text></g><g clip-path="url(#clip14)"><text fill="#595959" font-family="Calibri,Calibri_MSFontService,sans-serif" font-weight="400" font-size="41" transform="matrix(1 0 0 1 2120.64 1312)">27,5</text></g><g clip-path="url(#clip15)"><text fill="#595959" font-family="Calibri,Calibri_MSFontService,sans-serif" font-weight="400" font-size="41" transform="matrix(1 0 0 1 2223.27 1312)">30</text></g><g clip-path="url(#clip16)"><text fill="#595959" font-family="Calibri,Calibri_MSFontService,sans-serif" font-weight="400" font-size="41" transform="matrix(1 0 0 1 2294.7 1312)">32,5</text></g><g clip-path="url(#clip17)"><text fill="#595959" font-family="Calibri,Calibri_MSFontService,sans-serif" font-weight="400" font-size="41" transform="matrix(1 0 0 1 2397.33 1312)">35</text></g><g clip-path="url(#clip18)"><text fill="#595959" font-family="Calibri,Calibri_MSFontService,sans-serif" font-weight="400" font-size="41" transform="matrix(1 0 0 1 2468.77 1312)">37,5</text></g><g clip-path="url(#clip19)"><text fill="#595959" font-family="Calibri,Calibri_MSFontService,sans-serif" font-weight="400" font-size="41" transform="matrix(1 0 0 1 2571.4 1312)">40</text></g><g clip-path="url(#clip20)"><text fill="#595959" font-family="Calibri,Calibri_MSFontService,sans-serif" font-weight="400" font-size="41" transform="matrix(1 0 0 1 2642.84 1312)">42,5</text></g><g clip-path="url(#clip21)"><text fill="#595959" font-family="Calibri,Calibri_MSFontService,sans-serif" font-weight="400" font-size="41" transform="matrix(1 0 0 1 2745.47 1312)">45</text></g><g clip-path="url(#clip22)"><text fill="#595959" font-family="Calibri,Calibri_MSFontService,sans-serif" font-weight="400" font-size="41" transform="matrix(1 0 0 1 2816.9 1312)">47,5</text></g><g clip-path="url(#clip23)"><text fill="#595959" font-family="Calibri,Calibri_MSFontService,sans-serif" font-weight="400" font-size="41" transform="matrix(1 0 0 1 2919.53 1312)">50</text></g><g clip-path="url(#clip24)"><text fill="#595959" font-family="Calibri,Calibri_MSFontService,sans-serif" font-weight="400" font-size="41" transform="matrix(1 0 0 1 2990.97 1312)">52,5</text></g><g clip-path="url(#clip25)"><text fill="#595959" font-family="Calibri,Calibri_MSFontService,sans-serif" font-weight="400" font-size="41" transform="matrix(1 0 0 1 3093.6 1312)">55</text></g><g clip-path="url(#clip26)"><text fill="#595959" font-family="Calibri,Calibri_MSFontService,sans-serif" font-weight="400" font-size="41" transform="matrix(1 0 0 1 3165.04 1312)">57,5</text></g><g clip-path="url(#clip27)"><text fill="#595959" font-family="Calibri,Calibri_MSFontService,sans-serif" font-weight="400" font-size="41" transform="matrix(1 0 0 1 3267.67 1312)">60</text></g><g clip-path="url(#clip28)"><text fill="#595959" font-family="Calibri,Calibri_MSFontService,sans-serif" font-weight="400" font-size="46" transform="matrix(6.12323e-17 -1 1 6.12323e-17 1833.79 1328)">Temperatura de aire </text></g><g clip-path="url(#clip29)"><text fill="#595959" font-family="Calibri,Calibri_MSFontService,sans-serif" font-weight="400" font-size="46" transform="matrix(6.12323e-17 -1 1 6.12323e-17 1833.79 935)">-</text></g><g clip-path="url(#clip30)"><text fill="#595959" font-family="Calibri,Calibri_MSFontService,sans-serif" font-weight="400" font-size="46" transform="matrix(6.12323e-17 -1 1 6.12323e-17 1833.79 911)">Salida (C</text></g><g clip-path="url(#clip31)"><text fill="#595959" font-family="Calibri,Calibri_MSFontService,sans-serif" font-weight="400" font-size="46" transform="matrix(6.12323e-17 -1 1 6.12323e-17 1833.79 752)">°</text></g><g clip-path="url(#clip32)"><text fill="#595959" font-family="Calibri,Calibri_MSFontService,sans-serif" font-weight="400" font-size="46" transform="matrix(6.12323e-17 -1 1 6.12323e-17 1833.79 737)">)</text></g><g clip-path="url(#clip33)"><text fill="#595959" font-family="Calibri,Calibri_MSFontService,sans-serif" font-weight="400" font-size="46" transform="matrix(1 0 0 1 2315.1 1381)">Temperatura de aire </text></g><g clip-path="url(#clip34)"><text fill="#595959" font-family="Calibri,Calibri_MSFontService,sans-serif" font-weight="400" font-size="46" transform="matrix(1 0 0 1 2708.26 1381)">-</text></g><g clip-path="url(#clip35)"><text fill="#595959" font-family="Calibri,Calibri_MSFontService,sans-serif" font-weight="400" font-size="46" transform="matrix(1 0 0 1 2732.64 1381)">Entrada (C</text></g><g clip-path="url(#clip36)"><text fill="#595959" font-family="Calibri,Calibri_MSFontService,sans-serif" font-weight="400" font-size="46" transform="matrix(1 0 0 1 2927.11 1381)">°</text></g><g clip-path="url(#clip37)"><text fill="#595959" font-family="Calibri,Calibri_MSFontService,sans-serif" font-weight="400" font-size="46" transform="matrix(1 0 0 1 2942.65 1381)">)</text></g><g clip-path="url(#clip38)"><text fill="#595959" font-family="Calibri,Calibri_MSFontService,sans-serif" font-weight="400" font-size="64" transform="matrix(1 0 0 1 1931.78 556)">Respuesta de temperatura del aire de escape de </text></g><g clip-path="url(#clip39)"><text fill="#595959" font-family="Calibri,Calibri_MSFontService,sans-serif" font-weight="400" font-size="64" transform="matrix(1 0 0 1 2384.98 634)">un enrutador </text></g><rect x="1733.5" y="461.5" width="1649" height="990" stroke="#D9D9D9" stroke-width="3.4375" stroke-linejoin="round" stroke-miterlimit="10" fill="none"/></g></svg>