
<svg xmlns="http://www.w3.org/2000/svg"
     xmlns:xlink="http://www.w3.org/1999/xlink" version="1.1" width="369"
     height="130">
    <defs/>
    <g transform=" scale(1) translate(-216,-215)">
        <rect x="480" y="250" width="100" height="40" rx="2.69" ry="2.69"
              fill="transparent" stroke="#000000" pointer-events="none"/>
        <g fill="#000" font-family="Arial,Helvetica" font-weight="bold"
           text-anchor="middle" font-size="14px">
            <text x="530" y="267.5">
                Equipo de
            </text>
            <text x="530" y="284.5">
                medición
            </text>
        </g>
        <rect x="214" y="274" width="2" height="2" fill="#000000" stroke="none"
              transform="rotate(90,245,280)" pointer-events="none"/>
        <rect x="274" y="274" width="2" height="2" fill="#000000" stroke="none"
              transform="rotate(90,245,280)" pointer-events="none"/>
        <ellipse cx="245" cy="275" rx="18.99984629" ry="18.99984629"
                 fill="#ffffff" stroke="#000000" stroke-width="2"
                 transform="rotate(90,245,280)" pointer-events="none"/>
        <path d="M 216 275 L 225 275" fill="none" stroke="#000000"
              stroke-width="2" stroke-linecap="square" stroke-miterlimit="10"
              transform="rotate(90,245,280)" pointer-events="none"/>
        <path d="M 265 275 L 274 275" fill="none" stroke="#000000"
              stroke-width="2" stroke-linecap="square" stroke-miterlimit="10"
              transform="rotate(90,245,280)" pointer-events="none"/>
        <path d="M 230.43 275 C 245 239.92 245.05 309.74 259.31 275.12"
              fill="none" stroke="#000000" stroke-width="2"
              stroke-linejoin="round" stroke-linecap="round"
              stroke-miterlimit="10" transform="rotate(90,245,280)"
              pointer-events="none"/>
        <path d="M 218.1 268.7 L 224.59 268.7" fill="none" stroke="#000000"
              stroke-width="1.29" stroke-linecap="round" stroke-miterlimit="10"
              transform="rotate(90,245,280)" pointer-events="none"/>
        <path d="M 221.27 265.43 L 221.27 272.24" fill="none" stroke="#000000"
              stroke-width="1.39" stroke-linecap="round" stroke-miterlimit="10"
              transform="rotate(90,245,280)" pointer-events="none"/>
        <rect x="254" y="234" width="16" height="12" fill-opacity="0"
              fill="#dae2f2" stroke="none" pointer-events="none"/>
        <g fill="#000000" font-family="Arial,Helvetica" font-weight="bold"
           text-anchor="middle" font-size="12px">
            <text x="262" y="245">
                V1
            </text>
        </g>
        <rect x="280" y="300" width="90" height="40" rx="2.69" ry="2.69"
              fill="transparent" stroke="#000000" pointer-events="none"/>
        <g fill="#000" font-family="Arial,Helvetica" font-weight="bold"
           text-anchor="middle" font-size="16px">
            <text x="325" y="327">
                CARGA
            </text>
        </g>
        <rect x="389" y="239" width="2" height="2" fill="#000000" stroke="none"
              transform="rotate(180,390,270)" pointer-events="none"/>
        <rect x="389" y="299" width="2" height="2" fill="#000000" stroke="none"
              transform="rotate(180,390,270)" pointer-events="none"/>
        <path d="M 388.14 260 C 385.11 260.01 382.65 257.78 382.64 255.01 C 382.63 252.25 385.08 250.01 388.1 250 C 388.11 250 388.11 250 388.12 250"
              fill="none" stroke="#000000" stroke-width="2"
              stroke-linejoin="round" stroke-linecap="round"
              stroke-miterlimit="10" transform="rotate(180,390,270)"
              pointer-events="none"/>
        <path d="M 388 250 L 390 250" fill="none" stroke="#000000"
              stroke-width="2" stroke-linejoin="round" stroke-linecap="round"
              stroke-miterlimit="10" transform="rotate(180,390,270)"
              pointer-events="none"/>
        <path d="M 388 260 L 390 260" fill="none" stroke="#000000"
              stroke-width="2" stroke-linejoin="round" stroke-linecap="round"
              stroke-miterlimit="10" transform="rotate(180,390,270)"
              pointer-events="none"/>
        <path d="M 388.14 270 C 385.11 270.01 382.65 267.78 382.64 265.01 C 382.63 262.25 385.08 260.01 388.1 260 C 388.11 260 388.11 260 388.12 260"
              fill="none" stroke="#000000" stroke-width="2"
              stroke-linejoin="round" stroke-linecap="round"
              stroke-miterlimit="10" transform="rotate(180,390,270)"
              pointer-events="none"/>
        <path d="M 388 260 L 390 260" fill="none" stroke="#000000"
              stroke-width="2" stroke-linejoin="round" stroke-linecap="round"
              stroke-miterlimit="10" transform="rotate(180,390,270)"
              pointer-events="none"/>
        <path d="M 388 270 L 390 270" fill="none" stroke="#000000"
              stroke-width="2" stroke-linejoin="round" stroke-linecap="round"
              stroke-miterlimit="10" transform="rotate(180,390,270)"
              pointer-events="none"/>
        <path d="M 388.14 280 C 385.11 280.01 382.65 277.78 382.64 275.01 C 382.63 272.25 385.08 270.01 388.1 270 C 388.11 270 388.11 270 388.12 270"
              fill="none" stroke="#000000" stroke-width="2"
              stroke-linejoin="round" stroke-linecap="round"
              stroke-miterlimit="10" transform="rotate(180,390,270)"
              pointer-events="none"/>
        <path d="M 388 270 L 390 270" fill="none" stroke="#000000"
              stroke-width="2" stroke-linejoin="round" stroke-linecap="round"
              stroke-miterlimit="10" transform="rotate(180,390,270)"
              pointer-events="none"/>
        <path d="M 388 280 L 390 280" fill="none" stroke="#000000"
              stroke-width="2" stroke-linejoin="round" stroke-linecap="round"
              stroke-miterlimit="10" transform="rotate(180,390,270)"
              pointer-events="none"/>
        <path d="M 388.14 290 C 385.11 290.01 382.65 287.78 382.64 285.01 C 382.63 282.25 385.08 280.01 388.1 280 C 388.11 280 388.11 280 388.12 280"
              fill="none" stroke="#000000" stroke-width="2"
              stroke-linejoin="round" stroke-linecap="round"
              stroke-miterlimit="10" transform="rotate(180,390,270)"
              pointer-events="none"/>
        <path d="M 388 280 L 390 280" fill="none" stroke="#000000"
              stroke-width="2" stroke-linejoin="round" stroke-linecap="round"
              stroke-miterlimit="10" transform="rotate(180,390,270)"
              pointer-events="none"/>
        <path d="M 388 290 L 390 290" fill="none" stroke="#000000"
              stroke-width="2" stroke-linejoin="round" stroke-linecap="round"
              stroke-miterlimit="10" transform="rotate(180,390,270)"
              pointer-events="none"/>
        <path d="M 390 241 L 390 249" fill="none" stroke="#000000"
              stroke-width="2" stroke-linecap="square" stroke-miterlimit="10"
              transform="rotate(180,390,270)" pointer-events="none"/>
        <path d="M 390 291 L 390 299" fill="none" stroke="#000000"
              stroke-width="2" stroke-linecap="square" stroke-miterlimit="10"
              transform="rotate(180,390,270)" pointer-events="none"/>
        <rect x="400" y="284" width="14" height="12" fill-opacity="0"
              fill="#dae2f2" stroke="none" pointer-events="none"/>
        <g fill="#000000" font-family="Arial,Helvetica" font-weight="bold"
           text-anchor="middle" font-size="12px">
            <text x="407" y="295">
                L2
            </text>
        </g>
        <rect x="439" y="239" width="2" height="2" fill="#000000" stroke="none"
              pointer-events="none"/>
        <rect x="439" y="299" width="2" height="2" fill="#000000" stroke="none"
              pointer-events="none"/>
        <path d="M 438.14 260 C 435.11 260.01 432.65 257.78 432.64 255.01 C 432.63 252.25 435.08 250.01 438.1 250 C 438.11 250 438.11 250 438.12 250"
              fill="none" stroke="#000000" stroke-width="2"
              stroke-linejoin="round" stroke-linecap="round"
              stroke-miterlimit="10" pointer-events="none"/>
        <path d="M 438 250 L 440 250" fill="none" stroke="#000000"
              stroke-width="2" stroke-linejoin="round" stroke-linecap="round"
              stroke-miterlimit="10" pointer-events="none"/>
        <path d="M 438 260 L 440 260" fill="none" stroke="#000000"
              stroke-width="2" stroke-linejoin="round" stroke-linecap="round"
              stroke-miterlimit="10" pointer-events="none"/>
        <path d="M 438.14 270 C 435.11 270.01 432.65 267.78 432.64 265.01 C 432.63 262.25 435.08 260.01 438.1 260 C 438.11 260 438.11 260 438.12 260"
              fill="none" stroke="#000000" stroke-width="2"
              stroke-linejoin="round" stroke-linecap="round"
              stroke-miterlimit="10" pointer-events="none"/>
        <path d="M 438 260 L 440 260" fill="none" stroke="#000000"
              stroke-width="2" stroke-linejoin="round" stroke-linecap="round"
              stroke-miterlimit="10" pointer-events="none"/>
        <path d="M 438 270 L 440 270" fill="none" stroke="#000000"
              stroke-width="2" stroke-linejoin="round" stroke-linecap="round"
              stroke-miterlimit="10" pointer-events="none"/>
        <path d="M 438.14 280 C 435.11 280.01 432.65 277.78 432.64 275.01 C 432.63 272.25 435.08 270.01 438.1 270 C 438.11 270 438.11 270 438.12 270"
              fill="none" stroke="#000000" stroke-width="2"
              stroke-linejoin="round" stroke-linecap="round"
              stroke-miterlimit="10" pointer-events="none"/>
        <path d="M 438 270 L 440 270" fill="none" stroke="#000000"
              stroke-width="2" stroke-linejoin="round" stroke-linecap="round"
              stroke-miterlimit="10" pointer-events="none"/>
        <path d="M 438 280 L 440 280" fill="none" stroke="#000000"
              stroke-width="2" stroke-linejoin="round" stroke-linecap="round"
              stroke-miterlimit="10" pointer-events="none"/>
        <path d="M 438.14 290 C 435.11 290.01 432.65 287.78 432.64 285.01 C 432.63 282.25 435.08 280.01 438.1 280 C 438.11 280 438.11 280 438.12 280"
              fill="none" stroke="#000000" stroke-width="2"
              stroke-linejoin="round" stroke-linecap="round"
              stroke-miterlimit="10" pointer-events="none"/>
        <path d="M 438 280 L 440 280" fill="none" stroke="#000000"
              stroke-width="2" stroke-linejoin="round" stroke-linecap="round"
              stroke-miterlimit="10" pointer-events="none"/>
        <path d="M 438 290 L 440 290" fill="none" stroke="#000000"
              stroke-width="2" stroke-linejoin="round" stroke-linecap="round"
              stroke-miterlimit="10" pointer-events="none"/>
        <path d="M 440 241 L 440 249" fill="none" stroke="#000000"
              stroke-width="2" stroke-linecap="square" stroke-miterlimit="10"
              pointer-events="none"/>
        <path d="M 440 291 L 440 299" fill="none" stroke="#000000"
              stroke-width="2" stroke-linecap="square" stroke-miterlimit="10"
              pointer-events="none"/>
        <path d="M 429 250 L 429 290" fill="none" stroke="#000000"
              stroke-width="2" stroke-linejoin="round" stroke-linecap="round"
              stroke-miterlimit="10" pointer-events="none"/>
        <path d="M 426 250 L 426 290" fill="none" stroke="#000000"
              stroke-width="2" stroke-linejoin="round" stroke-linecap="round"
              stroke-miterlimit="10" pointer-events="none"/>
        <rect x="406" y="240" width="14" height="12" fill-opacity="0"
              fill="#dae2f2" stroke="none" pointer-events="none"/>
        <g fill="#000000" font-family="Arial,Helvetica" font-weight="bold"
           text-anchor="middle" font-size="12px">
            <text x="413" y="251">
                L1
            </text>
        </g>
        <path d="M 440 240 L 440 230 Q 440 220 450 220 L 520 220 Q 530 220 530 230 L 530 250"
              fill="none" stroke="#000000" stroke-width="2"
              stroke-miterlimit="10" pointer-events="none"/>
        <path d="M 440 300 L 440 310 Q 440 320 450 320 L 520 320 Q 530 320 530 310 L 530 290"
              fill="none" stroke="#000000" stroke-width="2"
              stroke-miterlimit="10" pointer-events="none"/>
        <path d="M 390 300 L 390 310 Q 390 320 380 320 L 370 320" fill="none"
              stroke="#000000" stroke-width="2" stroke-miterlimit="10"
              pointer-events="none"/>
        <path d="M 250 250 L 250 220 L 390 220 L 390 240" fill="none"
              stroke="#000000" stroke-width="2" stroke-miterlimit="10"
              pointer-events="none"/>
        <path d="M 250 310 L 250 315 Q 250 320 260 320 L 280 320" fill="none"
              stroke="#000000" stroke-width="2" stroke-miterlimit="10"
              pointer-events="none"/>
    </g>
</svg>