<svg version="1.1" xmlns="http://www.w3.org/2000/svg" xmlns:xlink="http://www.w3.org/1999/xlink" width="800" height="800"><defs/><g transform="scale(2,2)"><g id="background-d3612f77"><rect fill="white" stroke="none" x="0" y="0" width="400" height="400" class="dcg-svg-background"/></g><g id="background-images-d3612f77"/><g id="graphpaper-d3612f77"><g id="grid-d3612f77"><g><path fill="none" stroke="rgb(0,0,0)" class="dcg-svg-minor-gridline" paint-order="fill stroke markers" d=" M 12.5 0 L 12.5 400" stroke-opacity="0.2" stroke-miterlimit="10" stroke-dasharray=""/><path fill="none" stroke="rgb(0,0,0)" class="dcg-svg-minor-gridline" paint-order="fill stroke markers" d=" M 39.5 0 L 39.5 400" stroke-opacity="0.2" stroke-miterlimit="10" stroke-dasharray=""/><path fill="none" stroke="rgb(0,0,0)" class="dcg-svg-minor-gridline" paint-order="fill stroke markers" d=" M 66.5 0 L 66.5 400" stroke-opacity="0.2" stroke-miterlimit="10" stroke-dasharray=""/><path fill="none" stroke="rgb(0,0,0)" class="dcg-svg-minor-gridline" paint-order="fill stroke markers" d=" M 92.5 0 L 92.5 400" stroke-opacity="0.2" stroke-miterlimit="10" stroke-dasharray=""/><path fill="none" stroke="rgb(0,0,0)" class="dcg-svg-minor-gridline" paint-order="fill stroke markers" d=" M 119.5 0 L 119.5 400" stroke-opacity="0.2" stroke-miterlimit="10" stroke-dasharray=""/><path fill="none" stroke="rgb(0,0,0)" class="dcg-svg-minor-gridline" paint-order="fill stroke markers" d=" M 146.5 0 L 146.5 400" stroke-opacity="0.2" stroke-miterlimit="10" stroke-dasharray=""/><path fill="none" stroke="rgb(0,0,0)" class="dcg-svg-minor-gridline" paint-order="fill stroke markers" d=" M 172.5 0 L 172.5 400" stroke-opacity="0.2" stroke-miterlimit="10" stroke-dasharray=""/><path fill="none" stroke="rgb(0,0,0)" class="dcg-svg-minor-gridline" paint-order="fill stroke markers" d=" M 226.5 0 L 226.5 400" stroke-opacity="0.2" stroke-miterlimit="10" stroke-dasharray=""/><path fill="none" stroke="rgb(0,0,0)" class="dcg-svg-minor-gridline" paint-order="fill stroke markers" d=" M 252.5 0 L 252.5 400" stroke-opacity="0.2" stroke-miterlimit="10" stroke-dasharray=""/><path fill="none" stroke="rgb(0,0,0)" class="dcg-svg-minor-gridline" paint-order="fill stroke markers" d=" M 279.5 0 L 279.5 400" stroke-opacity="0.2" stroke-miterlimit="10" stroke-dasharray=""/><path fill="none" stroke="rgb(0,0,0)" class="dcg-svg-minor-gridline" paint-order="fill stroke markers" d=" M 306.5 0 L 306.5 400" stroke-opacity="0.2" stroke-miterlimit="10" stroke-dasharray=""/><path fill="none" stroke="rgb(0,0,0)" class="dcg-svg-minor-gridline" paint-order="fill stroke markers" d=" M 332.5 0 L 332.5 400" stroke-opacity="0.2" stroke-miterlimit="10" stroke-dasharray=""/><path fill="none" stroke="rgb(0,0,0)" class="dcg-svg-minor-gridline" paint-order="fill stroke markers" d=" M 359.5 0 L 359.5 400" stroke-opacity="0.2" stroke-miterlimit="10" stroke-dasharray=""/><path fill="none" stroke="rgb(0,0,0)" class="dcg-svg-minor-gridline" paint-order="fill stroke markers" d=" M 386.5 0 L 386.5 400" stroke-opacity="0.2" stroke-miterlimit="10" stroke-dasharray=""/><path fill="none" stroke="rgb(0,0,0)" class="dcg-svg-minor-gridline" paint-order="fill stroke markers" d=" M 0 372.5 L 400 372.5" stroke-opacity="0.2" stroke-miterlimit="10" stroke-dasharray=""/><path fill="none" stroke="rgb(0,0,0)" class="dcg-svg-minor-gridline" paint-order="fill stroke markers" d=" M 0 346.5 L 400 346.5" stroke-opacity="0.2" stroke-miterlimit="10" stroke-dasharray=""/><path fill="none" stroke="rgb(0,0,0)" class="dcg-svg-minor-gridline" paint-order="fill stroke markers" d=" M 0 319.5 L 400 319.5" stroke-opacity="0.2" stroke-miterlimit="10" stroke-dasharray=""/><path fill="none" stroke="rgb(0,0,0)" class="dcg-svg-minor-gridline" paint-order="fill stroke markers" d=" M 0 292.5 L 400 292.5" stroke-opacity="0.2" stroke-miterlimit="10" stroke-dasharray=""/><path fill="none" stroke="rgb(0,0,0)" class="dcg-svg-minor-gridline" paint-order="fill stroke markers" d=" M 0 266.5 L 400 266.5" stroke-opacity="0.2" stroke-miterlimit="10" stroke-dasharray=""/><path fill="none" stroke="rgb(0,0,0)" class="dcg-svg-minor-gridline" paint-order="fill stroke markers" d=" M 0 239.5 L 400 239.5" stroke-opacity="0.2" stroke-miterlimit="10" stroke-dasharray=""/><path fill="none" stroke="rgb(0,0,0)" class="dcg-svg-minor-gridline" paint-order="fill stroke markers" d=" M 0 212.5 L 400 212.5" stroke-opacity="0.2" stroke-miterlimit="10" stroke-dasharray=""/><path fill="none" stroke="rgb(0,0,0)" class="dcg-svg-minor-gridline" paint-order="fill stroke markers" d=" M 0 186.5 L 400 186.5" stroke-opacity="0.2" stroke-miterlimit="10" stroke-dasharray=""/><path fill="none" stroke="rgb(0,0,0)" class="dcg-svg-minor-gridline" paint-order="fill stroke markers" d=" M 0 159.5 L 400 159.5" stroke-opacity="0.2" stroke-miterlimit="10" stroke-dasharray=""/><path fill="none" stroke="rgb(0,0,0)" class="dcg-svg-minor-gridline" paint-order="fill stroke markers" d=" M 0 132.5 L 400 132.5" stroke-opacity="0.2" stroke-miterlimit="10" stroke-dasharray=""/><path fill="none" stroke="rgb(0,0,0)" class="dcg-svg-minor-gridline" paint-order="fill stroke markers" d=" M 0 106.5 L 400 106.5" stroke-opacity="0.2" stroke-miterlimit="10" stroke-dasharray=""/><path fill="none" stroke="rgb(0,0,0)" class="dcg-svg-minor-gridline" paint-order="fill stroke markers" d=" M 0 79.5 L 400 79.5" stroke-opacity="0.2" stroke-miterlimit="10" stroke-dasharray=""/><path fill="none" stroke="rgb(0,0,0)" class="dcg-svg-minor-gridline" paint-order="fill stroke markers" d=" M 0 52.5 L 400 52.5" stroke-opacity="0.2" stroke-miterlimit="10" stroke-dasharray=""/><path fill="none" stroke="rgb(0,0,0)" class="dcg-svg-minor-gridline" paint-order="fill stroke markers" d=" M 0 26.5 L 400 26.5" stroke-opacity="0.2" stroke-miterlimit="10" stroke-dasharray=""/><path fill="none" stroke="rgb(0,0,0)" class="dcg-svg-minor-gridline" paint-order="fill stroke markers" d=" M 0 -0.5 L 400 -0.5" stroke-opacity="0.2" stroke-miterlimit="10" stroke-dasharray=""/><path fill="none" stroke="rgb(0,0,0)" class="dcg-svg-major-gridline" paint-order="fill stroke markers" d=" M 66.5 0 L 66.5 400" stroke-opacity="0.2500000000000001" stroke-miterlimit="10" stroke-dasharray=""/><path fill="none" stroke="rgb(0,0,0)" class="dcg-svg-major-gridline" paint-order="fill stroke markers" d=" M 332.5 0 L 332.5 400" stroke-opacity="0.2500000000000001" stroke-miterlimit="10" stroke-dasharray=""/><path fill="none" stroke="rgb(0,0,0)" class="dcg-svg-major-gridline" paint-order="fill stroke markers" d=" M 0 266.5 L 400 266.5" stroke-opacity="0.2500000000000001" stroke-miterlimit="10" stroke-dasharray=""/><path fill="none" stroke="rgb(0,0,0)" class="dcg-svg-major-gridline" paint-order="fill stroke markers" d=" M 0 132.5 L 400 132.5" stroke-opacity="0.2500000000000001" stroke-miterlimit="10" stroke-dasharray=""/><path fill="none" stroke="rgb(0,0,0)" class="dcg-svg-major-gridline" paint-order="fill stroke markers" d=" M 0 -0.5 L 400 -0.5" stroke-opacity="0.2500000000000001" stroke-miterlimit="10" stroke-dasharray=""/></g></g><g id="axis-d3612f77"><g id="yaxis-d3612f77"><title>Voltaje [V]</title><path fill="none" stroke="rgb(0,0,0)" class="dcg-svg-axis-line" paint-order="fill stroke markers" d=" M 200 0 L 200 400" stroke-opacity="0.9" stroke-miterlimit="10" stroke-width="1.5" stroke-dasharray=""/></g><g id="xaxis-d3612f77"><title>tiempo [s]</title><path fill="none" stroke="rgb(0,0,0)" class="dcg-svg-axis-line" paint-order="fill stroke markers" d=" M 0 400 L 400 400" stroke-opacity="0.9" stroke-miterlimit="10" stroke-width="1.5" stroke-dasharray=""/></g><g><g class="dcg-svg-axis-value"><text fill="none" stroke="#ffffff" font-family="Arial" font-size="14px" font-style="normal" font-weight="normal" text-decoration="normal" x="191.10693359375" y="415.808" text-anchor="middle" stroke-miterlimit="2" stroke-width="3" stroke-dasharray="">0</text><text fill="#000000" stroke="none" font-family="Arial" font-size="14px" font-style="normal" font-weight="normal" text-decoration="normal" x="191.10693359375" y="415.808" text-anchor="middle">0</text></g><g class="dcg-svg-axis-value"><text fill="none" stroke="#ffffff" font-family="Arial" font-size="14px" font-style="normal" font-weight="normal" text-decoration="normal" x="64.33561197916666" y="393.808" text-anchor="middle" stroke-miterlimit="2" stroke-width="3" stroke-dasharray="">-1</text><text fill="rgb(150,150,150)" stroke="none" font-family="Arial" font-size="14px" font-style="normal" font-weight="normal" text-decoration="normal" x="64.33561197916666" y="393.808" text-anchor="middle" fill-opacity="1">-1</text></g><g class="dcg-svg-axis-value"><text fill="none" stroke="#ffffff" font-family="Arial" font-size="14px" font-style="normal" font-weight="normal" text-decoration="normal" x="333.33333333333337" y="393.808" text-anchor="middle" stroke-miterlimit="2" stroke-width="3" stroke-dasharray="">1</text><text fill="rgb(150,150,150)" stroke="none" font-family="Arial" font-size="14px" font-style="normal" font-weight="normal" text-decoration="normal" x="333.33333333333337" y="393.808" text-anchor="middle" fill-opacity="1">1</text></g><g class="dcg-svg-axis-value"><text fill="none" stroke="#ffffff" font-family="Arial" font-size="14px" font-style="normal" font-weight="normal" text-decoration="normal" x="191.10693359375" y="270.4746666666666" text-anchor="middle" stroke-miterlimit="2" stroke-width="3" stroke-dasharray="">1</text><text fill="#000000" stroke="none" font-family="Arial" font-size="14px" font-style="normal" font-weight="normal" text-decoration="normal" x="191.10693359375" y="270.4746666666666" text-anchor="middle">1</text></g><g class="dcg-svg-axis-value"><text fill="none" stroke="#ffffff" font-family="Arial" font-size="14px" font-style="normal" font-weight="normal" text-decoration="normal" x="191.10693359375" y="137.1413333333333" text-anchor="middle" stroke-miterlimit="2" stroke-width="3" stroke-dasharray="">2</text><text fill="#000000" stroke="none" font-family="Arial" font-size="14px" font-style="normal" font-weight="normal" text-decoration="normal" x="191.10693359375" y="137.1413333333333" text-anchor="middle">2</text></g><g class="dcg-svg-axis-value dcg-svg-offcenter-axis-value"><text fill="none" stroke="#ffffff" font-family="Arial" font-size="14px" font-style="normal" font-weight="normal" text-decoration="normal" x="191.10693359375" y="13.808" text-anchor="middle" stroke-miterlimit="2" stroke-width="3" stroke-dasharray="">3</text><text fill="#000000" stroke="none" font-family="Arial" font-size="14px" font-style="normal" font-weight="normal" text-decoration="normal" x="191.10693359375" y="13.808" text-anchor="middle">3</text></g></g><g class="dcg-svg-axis-label"><text fill="none" stroke="#ffffff" font-family="Arial" font-size="17px" font-style="normal" font-weight="normal" text-decoration="normal" x="311.3056640625" y="376" text-anchor="start" stroke-miterlimit="2" stroke-width="3" stroke-dasharray="">tiempo [s]</text><text fill="#000000" stroke="none" font-family="Arial" font-size="17px" font-style="normal" font-weight="normal" text-decoration="normal" x="311.3056640625" y="376" text-anchor="start">tiempo [s]</text></g><g class="dcg-svg-axis-label" transform="translate(180.2138671875,91.5498046875) rotate(-90,0,0)"><text fill="none" stroke="#ffffff" font-family="Arial" font-size="17px" font-style="normal" font-weight="normal" text-decoration="normal" x="0" y="0" text-anchor="start" stroke-miterlimit="2" stroke-width="3" stroke-dasharray="">Voltaje [V]</text><text fill="#000000" stroke="none" font-family="Arial" font-size="17px" font-style="normal" font-weight="normal" text-decoration="normal" x="0" y="0" text-anchor="start">Voltaje [V]</text></g></g></g><g id="expressions-d3612f77"><g id="sketch-d3612f77"><title>Expression 1</title><path fill="#2d70b3" stroke="none" paint-order="stroke fill markers" d="" fill-opacity="0.4"/><g><path fill="none" stroke="#2d70b3" class="dcg-svg-curve" paint-order="fill stroke markers" d=" M -5.5 70.98940492618804 L -5.5 70.98940492618804 L -0.7604166666666667 76.06819039843754 L 3.927083333333334 80.57898925156536 L 7.833333333333334 83.85763396589499 L 11.21875 86.26131329492506 L 14.213541666666668 88.00118214659904 L 16.947916666666668 89.24462177479433 L 19.421875 90.06934768780786 L 21.765625 90.57779996559486 L 24.109375 90.81496278156379 L 26.453125000000004 90.7782004623964 L 28.796875000000004 90.46792156060246 L 31.140625000000004 89.88757431413376 L 33.614583333333336 88.98916657143025 L 36.21875 87.73846772410343 L 39.083333333333336 86.02171211202165 L 42.208333333333336 83.774260495465 L 45.723958333333336 80.83284212742154 L 49.89062500000001 76.87885676917864 L 55.35937500000001 71.14313004339073 L 71.50520833333334 53.837159317545 L 75.80208333333334 49.961659931378335 L 79.31770833333334 47.23420866996696 L 82.44270833333334 45.20491467103324 L 85.30729166666667 43.70744419093762 L 87.91145833333334 42.66897459894017 L 90.38541666666667 41.98080982820164 L 92.72916666666667 41.60499330451637 L 95.07291666666667 41.502139247021205 L 97.41666666666667 41.67339070882878 L 99.76041666666667 42.11684451255121 L 102.10416666666667 42.82757240097561 L 104.57812500000001 43.8589723464479 L 107.31250000000001 45.319644925719274 L 110.30729166666667 47.280188813750385 L 113.56250000000001 49.79834600145392 L 117.33854166666667 53.15462655815776 L 121.89583333333334 57.69473894534633 L 128.40625 64.7460095384925 L 138.69270833333334 75.89179292759735 L 143.51041666666669 80.54022086775211 L 147.41666666666669 83.8243341635449 L 150.80208333333334 86.23358998900449 L 153.796875 87.9789317023126 L 156.53125 89.2277233378241 L 159.00520833333334 90.05751402272773 L 161.34895833333334 90.57090069434184 L 163.69270833333334 90.81307457815228 L 166.03645833333334 90.78134431109117 L 168.38020833333334 90.47606252271362 L 170.72395833333334 89.90062191630199 L 173.19791666666669 89.0072350223844 L 175.80208333333334 87.76157845951462 L 178.66666666666669 86.05000067043039 L 181.79166666666669 83.80765945384547 L 185.30729166666669 80.8711975781323 L 189.47395833333334 76.92183768405022 L 194.8125 71.33129223145448 L 211.34895833333334 53.62873759090331 L 215.51562500000003 49.88880964903649 L 219.03125000000003 47.1723088289682 L 222.15625000000003 45.15405585301818 L 225.02083333333334 43.667594071219696 L 227.62500000000003 42.639711239225505 L 230.09895833333334 41.96197800722382 L 232.44270833333334 41.59626119785082 L 234.78645833333334 41.50360389762312 L 237.13020833333334 41.685035839523835 L 239.47395833333334 42.138540706929234 L 241.81770833333334 42.85907854164054 L 244.29166666666669 43.90045143909833 L 247.02604166666669 45.371544414702896 L 250.02083333333334 47.34259523338551 L 253.27604166666669 49.870883651487986 L 257.05208333333337 53.23695717052931 L 261.73958333333337 57.9217855590104 L 268.38020833333337 65.13138332166244 L 278.2760416666667 75.84790399831883 L 283.09375 80.50139864904628 L 287 83.79096822594255 L 290.3854166666667 86.20579152417417 L 293.38020833333337 87.95659956209136 L 296.11458333333337 89.2107385276791 L 298.5885416666667 90.04559087656429 L 300.9322916666667 90.56391001916057 L 303.2760416666667 90.8110940637713 L 305.6197916666667 90.78439596765952 L 307.9635416666667 90.48411243610451 L 310.3072916666667 89.91358062501268 L 312.78125 89.02521792598344 L 315.3854166666667 87.7846083130687 L 318.25 86.0782147575473 L 321.375 83.84099233942737 L 324.890625 80.90949795430618 L 329.0572916666667 76.96477831636759 L 334.39583333333337 71.37796200675672 L 351.0625 53.5454772356382 L 355.2291666666667 49.81621001783316 L 358.7447916666667 47.11070146857128 L 361.8697916666667 45.10352059324657 L 364.734375 43.62809039871257 L 367.3385416666667 42.61081015435809 L 369.8125 41.943518897025115 L 372.15625 41.58790743337727 L 374.5 41.50544831718088 L 376.84375 41.69705794543336 L 379.1875 42.16060689332295 L 381.53125 42.89094357927172 L 384.00520833333337 43.94227339335458 L 386.73958333333337 45.423764112978404 L 389.734375 47.40529151150332 L 392.98958333333337 49.94367222869033 L 396.765625 53.31948687829805 L 401.45312500000006 58.01307526845045 L 405.5 62.411771502067815" stroke-linecap="round" stroke-linejoin="round" stroke-miterlimit="10" stroke-width="2.5" stroke-opacity="0.9" stroke-dasharray=""/></g></g></g><g id="labels-d3612f77"/></g></svg>