<svg version="1.1" xmlns="http://www.w3.org/2000/svg" xmlns:xlink="http://www.w3.org/1999/xlink" width="800" height="800"><defs/><g transform="scale(2,2)"><g id="background-8547aa19"><rect fill="white" stroke="none" x="0" y="0" width="400" height="400" class="dcg-svg-background"/></g><g id="background-images-8547aa19"/><g id="graphpaper-8547aa19"><g id="grid-8547aa19"><g><path fill="none" stroke="rgb(0,0,0)" class="dcg-svg-minor-gridline" paint-order="fill stroke markers" d=" M 12.5 0 L 12.5 400" stroke-opacity="0.2" stroke-miterlimit="10" stroke-dasharray=""/><path fill="none" stroke="rgb(0,0,0)" class="dcg-svg-minor-gridline" paint-order="fill stroke markers" d=" M 39.5 0 L 39.5 400" stroke-opacity="0.2" stroke-miterlimit="10" stroke-dasharray=""/><path fill="none" stroke="rgb(0,0,0)" class="dcg-svg-minor-gridline" paint-order="fill stroke markers" d=" M 66.5 0 L 66.5 400" stroke-opacity="0.2" stroke-miterlimit="10" stroke-dasharray=""/><path fill="none" stroke="rgb(0,0,0)" class="dcg-svg-minor-gridline" paint-order="fill stroke markers" d=" M 92.5 0 L 92.5 400" stroke-opacity="0.2" stroke-miterlimit="10" stroke-dasharray=""/><path fill="none" stroke="rgb(0,0,0)" class="dcg-svg-minor-gridline" paint-order="fill stroke markers" d=" M 119.5 0 L 119.5 400" stroke-opacity="0.2" stroke-miterlimit="10" stroke-dasharray=""/><path fill="none" stroke="rgb(0,0,0)" class="dcg-svg-minor-gridline" paint-order="fill stroke markers" d=" M 146.5 0 L 146.5 400" stroke-opacity="0.2" stroke-miterlimit="10" stroke-dasharray=""/><path fill="none" stroke="rgb(0,0,0)" class="dcg-svg-minor-gridline" paint-order="fill stroke markers" d=" M 172.5 0 L 172.5 400" stroke-opacity="0.2" stroke-miterlimit="10" stroke-dasharray=""/><path fill="none" stroke="rgb(0,0,0)" class="dcg-svg-minor-gridline" paint-order="fill stroke markers" d=" M 226.5 0 L 226.5 400" stroke-opacity="0.2" stroke-miterlimit="10" stroke-dasharray=""/><path fill="none" stroke="rgb(0,0,0)" class="dcg-svg-minor-gridline" paint-order="fill stroke markers" d=" M 252.5 0 L 252.5 400" stroke-opacity="0.2" stroke-miterlimit="10" stroke-dasharray=""/><path fill="none" stroke="rgb(0,0,0)" class="dcg-svg-minor-gridline" paint-order="fill stroke markers" d=" M 279.5 0 L 279.5 400" stroke-opacity="0.2" stroke-miterlimit="10" stroke-dasharray=""/><path fill="none" stroke="rgb(0,0,0)" class="dcg-svg-minor-gridline" paint-order="fill stroke markers" d=" M 306.5 0 L 306.5 400" stroke-opacity="0.2" stroke-miterlimit="10" stroke-dasharray=""/><path fill="none" stroke="rgb(0,0,0)" class="dcg-svg-minor-gridline" paint-order="fill stroke markers" d=" M 332.5 0 L 332.5 400" stroke-opacity="0.2" stroke-miterlimit="10" stroke-dasharray=""/><path fill="none" stroke="rgb(0,0,0)" class="dcg-svg-minor-gridline" paint-order="fill stroke markers" d=" M 359.5 0 L 359.5 400" stroke-opacity="0.2" stroke-miterlimit="10" stroke-dasharray=""/><path fill="none" stroke="rgb(0,0,0)" class="dcg-svg-minor-gridline" paint-order="fill stroke markers" d=" M 386.5 0 L 386.5 400" stroke-opacity="0.2" stroke-miterlimit="10" stroke-dasharray=""/><path fill="none" stroke="rgb(0,0,0)" class="dcg-svg-minor-gridline" paint-order="fill stroke markers" d=" M 0 386.5 L 400 386.5" stroke-opacity="0.2" stroke-miterlimit="10" stroke-dasharray=""/><path fill="none" stroke="rgb(0,0,0)" class="dcg-svg-minor-gridline" paint-order="fill stroke markers" d=" M 0 359.5 L 400 359.5" stroke-opacity="0.2" stroke-miterlimit="10" stroke-dasharray=""/><path fill="none" stroke="rgb(0,0,0)" class="dcg-svg-minor-gridline" paint-order="fill stroke markers" d=" M 0 332.5 L 400 332.5" stroke-opacity="0.2" stroke-miterlimit="10" stroke-dasharray=""/><path fill="none" stroke="rgb(0,0,0)" class="dcg-svg-minor-gridline" paint-order="fill stroke markers" d=" M 0 306.5 L 400 306.5" stroke-opacity="0.2" stroke-miterlimit="10" stroke-dasharray=""/><path fill="none" stroke="rgb(0,0,0)" class="dcg-svg-minor-gridline" paint-order="fill stroke markers" d=" M 0 279.5 L 400 279.5" stroke-opacity="0.2" stroke-miterlimit="10" stroke-dasharray=""/><path fill="none" stroke="rgb(0,0,0)" class="dcg-svg-minor-gridline" paint-order="fill stroke markers" d=" M 0 252.5 L 400 252.5" stroke-opacity="0.2" stroke-miterlimit="10" stroke-dasharray=""/><path fill="none" stroke="rgb(0,0,0)" class="dcg-svg-minor-gridline" paint-order="fill stroke markers" d=" M 0 226.5 L 400 226.5" stroke-opacity="0.2" stroke-miterlimit="10" stroke-dasharray=""/><path fill="none" stroke="rgb(0,0,0)" class="dcg-svg-minor-gridline" paint-order="fill stroke markers" d=" M 0 172.5 L 400 172.5" stroke-opacity="0.2" stroke-miterlimit="10" stroke-dasharray=""/><path fill="none" stroke="rgb(0,0,0)" class="dcg-svg-minor-gridline" paint-order="fill stroke markers" d=" M 0 146.5 L 400 146.5" stroke-opacity="0.2" stroke-miterlimit="10" stroke-dasharray=""/><path fill="none" stroke="rgb(0,0,0)" class="dcg-svg-minor-gridline" paint-order="fill stroke markers" d=" M 0 119.5 L 400 119.5" stroke-opacity="0.2" stroke-miterlimit="10" stroke-dasharray=""/><path fill="none" stroke="rgb(0,0,0)" class="dcg-svg-minor-gridline" paint-order="fill stroke markers" d=" M 0 92.5 L 400 92.5" stroke-opacity="0.2" stroke-miterlimit="10" stroke-dasharray=""/><path fill="none" stroke="rgb(0,0,0)" class="dcg-svg-minor-gridline" paint-order="fill stroke markers" d=" M 0 66.5 L 400 66.5" stroke-opacity="0.2" stroke-miterlimit="10" stroke-dasharray=""/><path fill="none" stroke="rgb(0,0,0)" class="dcg-svg-minor-gridline" paint-order="fill stroke markers" d=" M 0 39.5 L 400 39.5" stroke-opacity="0.2" stroke-miterlimit="10" stroke-dasharray=""/><path fill="none" stroke="rgb(0,0,0)" class="dcg-svg-minor-gridline" paint-order="fill stroke markers" d=" M 0 12.5 L 400 12.5" stroke-opacity="0.2" stroke-miterlimit="10" stroke-dasharray=""/><path fill="none" stroke="rgb(0,0,0)" class="dcg-svg-major-gridline" paint-order="fill stroke markers" d=" M 66.5 0 L 66.5 400" stroke-opacity="0.2500000000000001" stroke-miterlimit="10" stroke-dasharray=""/><path fill="none" stroke="rgb(0,0,0)" class="dcg-svg-major-gridline" paint-order="fill stroke markers" d=" M 332.5 0 L 332.5 400" stroke-opacity="0.2500000000000001" stroke-miterlimit="10" stroke-dasharray=""/><path fill="none" stroke="rgb(0,0,0)" class="dcg-svg-major-gridline" paint-order="fill stroke markers" d=" M 0 332.5 L 400 332.5" stroke-opacity="0.2500000000000001" stroke-miterlimit="10" stroke-dasharray=""/><path fill="none" stroke="rgb(0,0,0)" class="dcg-svg-major-gridline" paint-order="fill stroke markers" d=" M 0 66.5 L 400 66.5" stroke-opacity="0.2500000000000001" stroke-miterlimit="10" stroke-dasharray=""/></g></g><g id="axis-8547aa19"><g id="yaxis-8547aa19"><title>Corriente [A]</title><path fill="none" stroke="rgb(0,0,0)" class="dcg-svg-axis-line" paint-order="fill stroke markers" d=" M 200 0 L 200 400" stroke-opacity="0.9" stroke-miterlimit="10" stroke-width="1.5" stroke-dasharray=""/></g><g id="xaxis-8547aa19"><title>tiempo [s]</title><path fill="none" stroke="rgb(0,0,0)" class="dcg-svg-axis-line" paint-order="fill stroke markers" d=" M 0 200 L 400 200" stroke-opacity="0.9" stroke-miterlimit="10" stroke-width="1.5" stroke-dasharray=""/></g><g><g class="dcg-svg-axis-value"><text fill="none" stroke="#ffffff" font-family="Arial" font-size="14px" font-style="normal" font-weight="normal" text-decoration="normal" x="191.10693359375" y="215.808" text-anchor="middle" stroke-miterlimit="2" stroke-width="3" stroke-dasharray="">0</text><text fill="#000000" stroke="none" font-family="Arial" font-size="14px" font-style="normal" font-weight="normal" text-decoration="normal" x="191.10693359375" y="215.808" text-anchor="middle">0</text></g><g class="dcg-svg-axis-value"><text fill="none" stroke="#ffffff" font-family="Arial" font-size="14px" font-style="normal" font-weight="normal" text-decoration="normal" x="64.33561197916666" y="215.808" text-anchor="middle" stroke-miterlimit="2" stroke-width="3" stroke-dasharray="">-1</text><text fill="#000000" stroke="none" font-family="Arial" font-size="14px" font-style="normal" font-weight="normal" text-decoration="normal" x="64.33561197916666" y="215.808" text-anchor="middle">-1</text></g><g class="dcg-svg-axis-value"><text fill="none" stroke="#ffffff" font-family="Arial" font-size="14px" font-style="normal" font-weight="normal" text-decoration="normal" x="333.33333333333337" y="215.808" text-anchor="middle" stroke-miterlimit="2" stroke-width="3" stroke-dasharray="">1</text><text fill="#000000" stroke="none" font-family="Arial" font-size="14px" font-style="normal" font-weight="normal" text-decoration="normal" x="333.33333333333337" y="215.808" text-anchor="middle">1</text></g><g class="dcg-svg-axis-value"><text fill="none" stroke="#ffffff" font-family="Arial" font-size="14px" font-style="normal" font-weight="normal" text-decoration="normal" x="188.77587890625" y="337.14133333333336" text-anchor="middle" stroke-miterlimit="2" stroke-width="3" stroke-dasharray="">-1</text><text fill="#000000" stroke="none" font-family="Arial" font-size="14px" font-style="normal" font-weight="normal" text-decoration="normal" x="188.77587890625" y="337.14133333333336" text-anchor="middle">-1</text></g><g class="dcg-svg-axis-value"><text fill="none" stroke="#ffffff" font-family="Arial" font-size="14px" font-style="normal" font-weight="normal" text-decoration="normal" x="191.10693359375" y="70.47466666666666" text-anchor="middle" stroke-miterlimit="2" stroke-width="3" stroke-dasharray="">1</text><text fill="#000000" stroke="none" font-family="Arial" font-size="14px" font-style="normal" font-weight="normal" text-decoration="normal" x="191.10693359375" y="70.47466666666666" text-anchor="middle">1</text></g></g><g class="dcg-svg-axis-label"><text fill="none" stroke="#ffffff" font-family="Arial" font-size="17px" font-style="normal" font-weight="normal" text-decoration="normal" x="311.3056640625" y="233" text-anchor="start" stroke-miterlimit="2" stroke-width="3" stroke-dasharray="">tiempo [s]</text><text fill="#000000" stroke="none" font-family="Arial" font-size="17px" font-style="normal" font-weight="normal" text-decoration="normal" x="311.3056640625" y="233" text-anchor="start">tiempo [s]</text></g><g class="dcg-svg-axis-label" transform="translate(175.5517578125,110.42578125) rotate(-90,0,0)"><text fill="none" stroke="#ffffff" font-family="Arial" font-size="17px" font-style="normal" font-weight="normal" text-decoration="normal" x="0" y="0" text-anchor="start" stroke-miterlimit="2" stroke-width="3" stroke-dasharray="">Corriente [A]</text><text fill="#000000" stroke="none" font-family="Arial" font-size="17px" font-style="normal" font-weight="normal" text-decoration="normal" x="0" y="0" text-anchor="start">Corriente [A]</text></g></g></g><g id="expressions-8547aa19"><g id="sketch-8547aa19"><title>Expression 1</title><path fill="#c74440" stroke="none" paint-order="stroke fill markers" d="" fill-opacity="0.4"/><g><path fill="none" stroke="#c74440" class="dcg-svg-curve" paint-order="fill stroke markers" d=" M -5.5 225.6166298425423 L -5.5 225.6166298425423 L -2.5833333333333335 242.8353801907005 L 1.3229166666666667 264.2186696979724 L 4.447916666666667 279.91891102496163 L 7.182291666666667 292.3640712883836 L 9.65625 302.4187143432265 L 11.869791666666668 310.338229179291 L 13.953125000000002 316.78937861602236 L 15.776041666666668 321.5908399572692 L 17.46875 325.3147193913241 L 19.03125 328.10495545008723 L 20.463541666666668 330.10464717979676 L 21.895833333333336 331.56196818803016 L 23.197916666666668 332.41101719260917 L 24.239583333333336 332.76189179640033 L 25.281250000000004 332.82000823773524 L 26.322916666666668 332.58523884273535 L 27.364583333333336 332.05809936767395 L 28.536458333333336 331.11706067571845 L 29.968750000000004 329.4703047539862 L 31.401041666666668 327.2838123873261 L 32.96354166666667 324.29370937205897 L 34.65625 320.35903164476747 L 36.47916666666667 315.3385800208027 L 38.43229166666667 309.09601105521176 L 40.515625 301.5060310828909 L 42.859375 291.9000763843881 L 45.46354166666667 280.0274650356961 L 48.328125 265.6985012993412 L 51.71354166666667 247.36779527814136 L 56.01041666666667 222.56287882279065 L 69.55208333333334 143.24798287008048 L 72.9375 125.55437407375922 L 75.80208333333334 111.9053689984417 L 78.40625 100.75300103469414 L 80.75 91.87001031956419 L 82.83333333333334 84.97540087645439 L 84.78645833333334 79.42417521886927 L 86.609375 75.07860046759725 L 88.30208333333334 71.79214585776174 L 89.86458333333334 69.4154900356807 L 91.296875 67.8013871859049 L 92.59895833333334 66.80848258012514 L 93.77083333333334 66.3041960928486 L 94.78024488034023 66.16666666666663 L 95.72395833333334 66.28687893456936 L 96.765625 66.69844692206624 L 97.9375 67.51011958812632 L 99.23958333333334 68.8422395330715 L 100.67187500000001 70.82530858397382 L 102.10416666666667 73.34273369896738 L 103.66666666666667 76.68610381317967 L 105.35937500000001 80.99239315352037 L 107.18229166666667 86.39773124596263 L 109.26562500000001 93.50431582042518 L 111.47916666666667 102.07350491034589 L 113.95312500000001 112.78954037646963 L 116.68750000000001 125.87676764440698 L 119.81250000000001 142.18447475417463 L 123.58854166666667 163.3677940100055 L 129.1875 196.50427258095436 L 137 242.59126759995823 L 140.90625 263.992944015784 L 144.03125 279.71293832256646 L 146.765625 292.17873357995245 L 149.23958333333334 302.2544707066197 L 151.453125 310.1945912209438 L 153.53645833333334 316.666438906314 L 155.359375 321.4869033895639 L 157.05208333333334 325.22905729871474 L 158.61458333333334 328.03660549872967 L 160.046875 330.0524655340854 L 161.47916666666669 331.5261715462024 L 162.78125 332.3902468093642 L 163.82291666666669 332.7531962333361 L 164.86458333333334 332.82340659781516 L 165.90625 332.6007236602269 L 166.94791666666669 332.08563662454947 L 168.11979166666669 331.1580833018361 L 169.55208333333334 329.5276508627609 L 170.984375 327.35724383370666 L 172.546875 324.38433839630966 L 174.23958333333334 320.46778335540506 L 176.0625 315.46614020812206 L 178.015625 309.24276796132324 L 180.09895833333334 301.67201227610786 L 182.44270833333334 292.0859345122607 L 185.046875 280.2329773053175 L 187.91145833333334 265.92236787472507 L 191.296875 247.60854396264946 L 195.59375 222.81698693203626 L 209.26562500000003 142.7740512891333 L 212.65104166666669 125.11957060476453 L 215.51562500000003 111.51158368848564 L 218.11979166666669 100.40219533515494 L 220.46354166666669 91.56201879718975 L 222.54687500000003 84.70835555312891 L 224.50000000000003 79.1976541201206 L 226.32291666666669 74.89148616884631 L 228.01562500000003 71.6427561662934 L 229.57812500000003 69.30169708712015 L 231.01041666666669 67.72072293340011 L 232.31250000000003 66.75822965575333 L 233.48437500000003 66.28146382318471 L 234.52604166666669 66.16859309659475 L 235.56770833333334 66.34863324765007 L 236.60937500000003 66.82118875274625 L 237.78125000000003 67.7011434118013 L 239.08333333333334 69.10850114564818 L 240.51562500000003 71.17326638532865 L 242.07812500000003 74.03316479281932 L 243.64062500000003 77.5130966104361 L 245.33333333333334 81.96269522714954 L 247.28645833333334 87.94201128459366 L 249.36979166666669 95.26793011013132 L 251.58333333333334 104.05314866552271 L 254.05729166666669 114.98731130083269 L 256.921875 128.9455623487845 L 260.17708333333337 146.21468914680665 L 264.2135416666667 169.1700828200314 L 271.11458333333337 210.2966457712743 L 276.97395833333337 244.55969654074772 L 280.75 265.13154816024723 L 283.875 280.75108443748366 L 286.609375 293.11208787094836 L 289.08333333333337 303.08080421628097 L 291.296875 310.91645484598007 L 293.25 316.91525626883316 L 295.0729166666667 321.69717086388647 L 296.765625 325.4022565492531 L 298.328125 328.1746914160262 L 299.7604166666667 330.1577604669285 L 301.19270833333337 331.5982382292274 L 302.4947916666667 332.4318426353494 L 303.53645833333337 332.77030754201473 L 304.578125 332.8159957979808 L 305.6197916666667 332.5688070323938 L 306.66145833333337 332.0292842851868 L 307.83333333333337 331.07439142859215 L 309.265625 329.4108675935279 L 310.6979166666667 327.20785414223826 L 312.2604166666667 324.2000902175823 L 313.953125 320.24680460653315 L 315.7760416666667 315.20704460361986 L 317.7291666666667 308.944773062401 L 319.8125 301.3350674423163 L 322.15625 291.708724288667 L 324.7604166666667 279.8159622758261 L 327.625 265.4681931976408 L 331.0104166666667 247.120210308334 L 335.4375 221.53153391704262 L 348.5885416666667 144.42684909796378 L 351.97395833333337 126.637396125848 L 354.96875 112.29511158353182 L 357.5729166666667 101.10051770701659 L 359.9166666666667 92.17543002510814 L 362 85.24053615305434 L 363.953125 79.64942202785085 L 365.7760416666667 75.26504282476526 L 367.46875 71.94142706428107 L 369.03125 69.52969524601377 L 370.4635416666667 67.88293932428144 L 371.765625 66.86005262797153 L 372.9375 66.32862797632862 L 374.032925199433 66.16666666666663 L 375.02083333333337 66.29839990383101 L 376.0625 66.72236870373803 L 377.234375 67.54792811390155 L 378.53645833333337 68.89535282020324 L 379.96875 70.89504454991271 L 381.53125 73.6852806086759 L 383.09375 77.09726925551888 L 384.78645833333337 81.4755920003654 L 386.609375 86.9553590331987 L 388.69270833333337 94.14238506113185 L 390.90625 102.79088767178689 L 393.38020833333337 113.58711738787065 L 396.11458333333337 126.75145485131867 L 399.23958333333337 143.13103319881327 L 403.14583333333337 165.13041331297032 L 405.5 179.09772544981672" stroke-linecap="round" stroke-linejoin="round" stroke-miterlimit="10" stroke-width="2.5" stroke-opacity="0.9" stroke-dasharray=""/></g></g></g><g id="labels-8547aa19"/></g></svg>