<?xml version="1.0" encoding="UTF-8" standalone="no"?>
<!DOCTYPE svg PUBLIC "-//W3C//DTD SVG 1.1//EN" "http://www.w3.org/Graphics/SVG/1.1/DTD/svg11.dtd">
<svg xmlns="http://www.w3.org/2000/svg" xmlns:xlink="http://www.w3.org/1999/xlink" version="1.1" width="89.04pt" height="79.92pt" viewBox="0 0 89.04 79.92">
<g enable-background="new">
<clipPath id="cp0">
<path transform="matrix(.24,0,0,.24,0,0)" d="M 0 0 L 370.83329 0 L 370.83329 331.9556 L 0 331.9556 Z " fill-rule="evenodd"/>
</clipPath>
<g clip-path="url(#cp0)">
<path transform="matrix(.71774187,0,0,.71774187,0,0)" d="M 0 0 L 124 0 L 124 111 L 0 111 Z " fill="#ffffff"/>
</g>
<clipPath id="cp1">
<path transform="matrix(.24,0,0,.24,0,0)" d="M 0 0 L 370.83329 0 L 370.83329 328.96504 L 0 328.96504 Z " fill-rule="evenodd"/>
</clipPath>
<g clip-path="url(#cp1)">
<path transform="matrix(.71774187,0,0,.71774187,.35887093,.35887093)" stroke-width="1" stroke-linecap="butt" stroke-miterlimit="10" stroke-linejoin="miter" fill="none" stroke="#000000" d="M 41 71 L 1 71 "/>
<path transform="matrix(.71774187,0,0,.71774187,.35887093,.35887093)" stroke-width="1" stroke-linecap="butt" stroke-miterlimit="10" stroke-linejoin="miter" fill="none" stroke="#000000" d="M 91 71 L 121 71 "/>
<path transform="matrix(.71774187,0,0,.71774187,.35887093,.35887093)" d="M 56 61 L 76 71 L 56 81 L 56 61 Z M 41 71 L 56 71 M 76 61 L 76 81 M 76 71 L 91 71 "/>
<path transform="matrix(.71774187,0,0,.71774187,.35887093,.35887093)" stroke-width="1" stroke-linecap="butt" stroke-miterlimit="10" stroke-linejoin="miter" fill="none" stroke="#000000" d="M 56 61 L 76 71 L 56 81 L 56 61 Z M 41 71 L 56 71 M 76 61 L 76 81 M 76 71 L 91 71 "/>
<path transform="matrix(.71774187,0,0,.71774187,.35887093,.35887093)" stroke-width="1" stroke-linecap="butt" stroke-miterlimit="10" stroke-linejoin="miter" fill="none" stroke="#000000" d="M 43.5 33.5 L 31 33.5 L 31 71 L 11 71 "/>
<path transform="matrix(.71774187,0,0,.71774187,.35887093,.35887093)" stroke-width="1" stroke-linecap="butt" stroke-miterlimit="10" stroke-linejoin="miter" fill="none" stroke="#000000" d="M 88.5 33.5 L 101 33.5 L 101 71 L 111 71 "/>
<path transform="matrix(.000000000000000043949017,-.71774187,.71774187,.000000000000000043949017,23.68548,71.774188)" d="M 78.5 41 C 78.49999 41.984914 78.41993 42.960367 78.25981 43.926355 C 78.099689 44.89234 77.86258 45.830308 77.548488 46.740247 C 77.23439 47.65019 76.84935 48.51462 76.393367 49.33355 C 75.93737 50.152479 75.41919 50.91016 74.83883 51.606599 C 74.25847 52.303037 73.62707 52.92485 72.944629 53.47204 C 72.262187 54.019227 71.541828 54.481275 70.78353 54.858186 C 70.025249 55.235097 69.24361 55.519624 68.43862 55.71177 C 67.63363 55.90392 66.820758 55.999998 66 56 C 65.17924 55.999998 64.366359 55.90392 63.561368 55.71177 C 62.756376 55.519624 61.974737 55.235097 61.21645 54.858186 C 60.458166 54.481275 59.737806 54.019227 59.055368 53.47204 C 58.37293 52.92485 57.741529 52.303037 57.161165 51.606599 C 56.580797 50.91016 56.06262 50.152479 55.60663 49.33355 C 55.15063 48.51462 54.76559 47.65019 54.4515 46.740247 C 54.13741 45.830308 53.9003 44.89234 53.740179 43.926355 C 53.580057 42.960367 53.499998 41.984914 53.5 41 C 53.499998 40.015089 53.580057 39.039636 53.740179 38.073644 C 53.9003 37.10765 54.13741 36.16968 54.4515 35.259744 C 54.76559 34.3498 55.15063 33.485368 55.606626 32.66644 C 56.062616 31.847514 56.580797 31.089833 57.161165 30.393395 C 57.741529 29.696955 58.37293 29.075142 59.055368 28.527953 C 59.737806 27.980763 60.458166 27.518715 61.21645 27.141806 C 61.974737 26.764897 62.756376 26.480368 63.561368 26.28822 C 64.366359 26.096074 65.17924 26 66 26 C 66.820758 26 67.63363 26.096074 68.43862 26.28822 C 69.24361 26.480366 70.025249 26.764895 70.78353 27.141804 C 71.541828 27.518713 72.262187 27.980763 72.944629 28.527953 C 73.62707 29.075142 74.25847 29.696955 74.83883 30.393395 C 75.41919 31.089833 75.93737 31.847514 76.393367 32.66644 C 76.84935 33.485368 77.23439 34.3498 77.548488 35.259744 C 77.86258 36.16968 78.099689 37.10765 78.25981 38.073644 C 78.41993 39.039636 78.49999 40.015089 78.5 41 Z " fill="#ffffff"/>
<path transform="matrix(.000000000000000043949017,-.71774187,.71774187,.000000000000000043949017,23.68548,71.774188)" stroke-width="1" stroke-linecap="butt" stroke-miterlimit="4" stroke-linejoin="miter" fill="none" stroke="#000000" d="M 78.5 41 C 78.49999 41.984914 78.41993 42.960367 78.25981 43.926355 C 78.099689 44.89234 77.86258 45.830308 77.548488 46.740247 C 77.23439 47.65019 76.84935 48.51462 76.393367 49.33355 C 75.93737 50.152479 75.41919 50.91016 74.83883 51.606599 C 74.25847 52.303037 73.62707 52.92485 72.944629 53.47204 C 72.262187 54.019227 71.541828 54.481275 70.78353 54.858186 C 70.025249 55.235097 69.24361 55.519624 68.43862 55.71177 C 67.63363 55.90392 66.820758 55.999998 66 56 C 65.17924 55.999998 64.366359 55.90392 63.561368 55.71177 C 62.756376 55.519624 61.974737 55.235097 61.21645 54.858186 C 60.458166 54.481275 59.737806 54.019227 59.055368 53.47204 C 58.37293 52.92485 57.741529 52.303037 57.161165 51.606599 C 56.580797 50.91016 56.06262 50.152479 55.60663 49.33355 C 55.15063 48.51462 54.76559 47.65019 54.4515 46.740247 C 54.13741 45.830308 53.9003 44.89234 53.740179 43.926355 C 53.580057 42.960367 53.499998 41.984914 53.5 41 C 53.499998 40.015089 53.580057 39.039636 53.740179 38.073644 C 53.9003 37.10765 54.13741 36.16968 54.4515 35.259744 C 54.76559 34.3498 55.15063 33.485368 55.606626 32.66644 C 56.062616 31.847514 56.580797 31.089833 57.161165 30.393395 C 57.741529 29.696955 58.37293 29.075142 59.055368 28.527953 C 59.737806 27.980763 60.458166 27.518715 61.21645 27.141806 C 61.974737 26.764897 62.756376 26.480368 63.561368 26.28822 C 64.366359 26.096074 65.17924 26 66 26 C 66.820758 26 67.63363 26.096074 68.43862 26.28822 C 69.24361 26.480366 70.025249 26.764895 70.78353 27.141804 C 71.541828 27.518713 72.262187 27.980763 72.944629 28.527953 C 73.62707 29.075142 74.25847 29.696955 74.83883 30.393395 C 75.41919 31.089833 75.93737 31.847514 76.393367 32.66644 C 76.84935 33.485368 77.23439 34.3498 77.548488 35.259744 C 77.86258 36.16968 78.099689 37.10765 78.25981 38.073644 C 78.41993 39.039636 78.49999 40.015089 78.5 41 Z "/>
<path transform="matrix(.000000000000000043949017,-.71774187,.71774187,.000000000000000043949017,23.68548,71.774188)" d="M 78.5 26 C 78.49999 26.984913 78.41993 27.960364 78.25981 28.926352 C 78.099689 29.892342 77.86258 30.830307 77.548488 31.74025 C 77.23439 32.650194 76.84935 33.514627 76.393367 34.33355 C 75.93737 35.152479 75.41919 35.91016 74.83883 36.6066 C 74.25847 37.30304 73.62707 37.92485 72.944629 38.47204 C 72.262187 39.019227 71.541828 39.481279 70.78353 39.85819 C 70.025249 40.2351 69.24361 40.519628 68.43862 40.711778 C 67.63363 40.903924 66.820758 40.999998 66 41 C 65.17924 40.999998 64.366359 40.903924 63.561368 40.711778 C 62.756376 40.519628 61.974737 40.2351 61.21645 39.85819 C 60.458166 39.481279 59.737806 39.019227 59.055368 38.47204 C 58.37293 37.92485 57.741529 37.30304 57.161165 36.6066 C 56.580797 35.91016 56.06262 35.152479 55.60663 34.33355 C 55.15063 33.514627 54.76559 32.650194 54.4515 31.74025 C 54.13741 30.830307 53.9003 29.892342 53.740179 28.926352 C 53.580057 27.960364 53.499998 26.984913 53.5 26 C 53.499998 25.015086 53.580057 24.039633 53.740179 23.073643 C 53.9003 22.107655 54.13741 21.16969 54.4515 20.259747 C 54.76559 19.349806 55.15063 18.48537 55.606626 17.666445 C 56.062616 16.847519 56.580797 16.089837 57.161165 15.393397 C 57.741529 14.696958 58.37293 14.075144 59.055368 13.527955 C 59.737806 12.980765 60.458166 12.518716 61.21645 12.141806 C 61.974737 11.764895 62.756376 11.480367 63.561368 11.28822 C 64.366359 11.096073 65.17924 11 66 11 C 66.820758 11 67.63363 11.096074 68.43862 11.288221 C 69.24361 11.480367 70.025249 11.764895 70.78353 12.141806 C 71.541828 12.518716 72.262187 12.980765 72.944629 13.527954 C 73.62707 14.075143 74.25847 14.696958 74.83883 15.393397 C 75.41919 16.089837 75.93737 16.847519 76.393367 17.666445 C 76.84935 18.485373 77.23439 19.349808 77.548488 20.259749 C 77.86258 21.16969 78.099689 22.107655 78.25981 23.073645 C 78.41993 24.039635 78.49999 25.015086 78.5 26 Z " fill="#ffffff"/>
<path transform="matrix(.000000000000000043949017,-.71774187,.71774187,.000000000000000043949017,23.68548,71.774188)" stroke-width="1" stroke-linecap="butt" stroke-miterlimit="4" stroke-linejoin="miter" fill="none" stroke="#000000" d="M 78.5 26 C 78.49999 26.984913 78.41993 27.960364 78.25981 28.926352 C 78.099689 29.892342 77.86258 30.830307 77.548488 31.74025 C 77.23439 32.650194 76.84935 33.514627 76.393367 34.33355 C 75.93737 35.152479 75.41919 35.91016 74.83883 36.6066 C 74.25847 37.30304 73.62707 37.92485 72.944629 38.47204 C 72.262187 39.019227 71.541828 39.481279 70.78353 39.85819 C 70.025249 40.2351 69.24361 40.519628 68.43862 40.711778 C 67.63363 40.903924 66.820758 40.999998 66 41 C 65.17924 40.999998 64.366359 40.903924 63.561368 40.711778 C 62.756376 40.519628 61.974737 40.2351 61.21645 39.85819 C 60.458166 39.481279 59.737806 39.019227 59.055368 38.47204 C 58.37293 37.92485 57.741529 37.30304 57.161165 36.6066 C 56.580797 35.91016 56.06262 35.152479 55.60663 34.33355 C 55.15063 33.514627 54.76559 32.650194 54.4515 31.74025 C 54.13741 30.830307 53.9003 29.892342 53.740179 28.926352 C 53.580057 27.960364 53.499998 26.984913 53.5 26 C 53.499998 25.015086 53.580057 24.039633 53.740179 23.073643 C 53.9003 22.107655 54.13741 21.16969 54.4515 20.259747 C 54.76559 19.349806 55.15063 18.48537 55.606626 17.666445 C 56.062616 16.847519 56.580797 16.089837 57.161165 15.393397 C 57.741529 14.696958 58.37293 14.075144 59.055368 13.527955 C 59.737806 12.980765 60.458166 12.518716 61.21645 12.141806 C 61.974737 11.764895 62.756376 11.480367 63.561368 11.28822 C 64.366359 11.096073 65.17924 11 66 11 C 66.820758 11 67.63363 11.096074 68.43862 11.288221 C 69.24361 11.480367 70.025249 11.764895 70.78353 12.141806 C 71.541828 12.518716 72.262187 12.980765 72.944629 13.527954 C 73.62707 14.075143 74.25847 14.696958 74.83883 15.393397 C 75.41919 16.089837 75.93737 16.847519 76.393367 17.666445 C 76.84935 18.485373 77.23439 19.349808 77.548488 20.259749 C 77.86258 21.16969 78.099689 22.107655 78.25981 23.073645 C 78.41993 24.039635 78.49999 25.015086 78.5 26 Z "/>
<path transform="matrix(.000000000000000043949017,-.71774187,.71774187,.000000000000000043949017,23.68548,71.774188)" stroke-width="1" stroke-linecap="butt" stroke-miterlimit="4" stroke-linejoin="miter" fill="none" stroke="#000000" d="M 78.5 41 C 78.49999 41.984914 78.41993 42.960367 78.25981 43.926355 C 78.099689 44.89234 77.86258 45.830308 77.548488 46.740247 C 77.23439 47.65019 76.84935 48.51462 76.393367 49.33355 C 75.93737 50.152479 75.41919 50.91016 74.83883 51.606599 C 74.25847 52.303037 73.62707 52.92485 72.944629 53.47204 C 72.262187 54.019227 71.541828 54.481275 70.78353 54.858186 C 70.025249 55.235097 69.24361 55.519624 68.43862 55.71177 C 67.63363 55.90392 66.820758 55.999998 66 56 C 65.17924 55.999998 64.366359 55.90392 63.561368 55.71177 C 62.756376 55.519624 61.974737 55.235097 61.21645 54.858186 C 60.458166 54.481275 59.737806 54.019227 59.055368 53.47204 C 58.37293 52.92485 57.741529 52.303037 57.161165 51.606599 C 56.580797 50.91016 56.06262 50.152479 55.60663 49.33355 C 55.15063 48.51462 54.76559 47.65019 54.4515 46.740247 C 54.13741 45.830308 53.9003 44.89234 53.740179 43.926355 C 53.580057 42.960367 53.499998 41.984914 53.5 41 C 53.499998 40.015089 53.580057 39.039636 53.740179 38.073644 C 53.9003 37.10765 54.13741 36.16968 54.4515 35.259744 C 54.76559 34.3498 55.15063 33.485368 55.606626 32.66644 C 56.062616 31.847514 56.580797 31.089833 57.161165 30.393395 C 57.741529 29.696955 58.37293 29.075142 59.055368 28.527953 C 59.737806 27.980763 60.458166 27.518715 61.21645 27.141806 C 61.974737 26.764897 62.756376 26.480368 63.561368 26.28822 C 64.366359 26.096074 65.17924 26 66 26 C 66.820758 26 67.63363 26.096074 68.43862 26.28822 C 69.24361 26.480366 70.025249 26.764895 70.78353 27.141804 C 71.541828 27.518713 72.262187 27.980763 72.944629 28.527953 C 73.62707 29.075142 74.25847 29.696955 74.83883 30.393395 C 75.41919 31.089833 75.93737 31.847514 76.393367 32.66644 C 76.84935 33.485368 77.23439 34.3498 77.548488 35.259744 C 77.86258 36.16968 78.099689 37.10765 78.25981 38.073644 C 78.41993 39.039636 78.49999 40.015089 78.5 41 Z "/>
<text xml:space="preserve" transform="matrix(.71774187 0 0 .71774187 0 0)" font-size="12" font-family="ArialMT"><tspan y="16" x="55.828126 59.164125 65.83612 69.83212 73.16812">In(I)</tspan></text>
<text xml:space="preserve" transform="matrix(.71774187 0 0 .71774187 0 0)" font-size="12" font-family="ArialMT"><tspan y="96" x="59.828126">I</tspan></text>
<path transform="matrix(.71774187,0,0,.71774187,.35887093,.35887093)" stroke-width="1" stroke-linecap="butt" stroke-miterlimit="10" stroke-linejoin="miter" fill="none" stroke="#000000" d="M 41 101 L 74.63 101 "/>
<path transform="matrix(.71774187,0,0,.71774187,.35887093,.35887093)" d="M 79.88 101 L 72.88 104.5 L 74.63 101 L 72.88 97.5 L 79.88 101 Z "/>
<path transform="matrix(.71774187,0,0,.71774187,.35887093,.35887093)" stroke-width="1" stroke-linecap="butt" stroke-miterlimit="10" stroke-linejoin="miter" fill="none" stroke="#000000" d="M 79.88 101 L 72.88 104.5 L 74.63 101 L 72.88 97.5 L 79.88 101 Z "/>
</g>
</g>
</svg>
