<?xml version="1.0" encoding="UTF-8" standalone="no"?>
<!DOCTYPE svg PUBLIC "-//W3C//DTD SVG 1.1//EN" "http://www.w3.org/Graphics/SVG/1.1/DTD/svg11.dtd">
<svg xmlns="http://www.w3.org/2000/svg" xmlns:xlink="http://www.w3.org/1999/xlink" version="1.1" width="144pt" height="91.92pt" viewBox="0 0 144 91.92">
<g enable-background="new">
<clipPath id="cp0">
<path transform="matrix(.24,0,0,.24,0,0)" d="M 0 0 L 600 0 L 600 381 L 0 381 Z " fill-rule="evenodd"/>
</clipPath>
<g clip-path="url(#cp0)">
<path transform="matrix(.71999999,0,0,.71999999,0,0)" d="M 0 0 L 200 0 L 200 127 L 0 127 Z " fill="#ffffff"/>
</g>
<clipPath id="cp1">
<path transform="matrix(.24,0,0,.24,0,0)" d="M 0 0 L 600 0 L 600 381 L 0 381 Z " fill-rule="evenodd"/>
</clipPath>
<g clip-path="url(#cp1)">
<path transform="matrix(.71999999,0,0,.71999999,.35999999,.35999999)" stroke-width="1" stroke-linecap="butt" stroke-miterlimit="10" stroke-linejoin="miter" fill="none" stroke="#000000" d="M 68 36 L 78.8 36 L 81.2 31 L 86 41 L 90.8 31 L 95.6 41 L 100.4 31 L 105.2 41 L 110 31 L 114.8 41 L 117.2 36 L 128 36 "/>
<path transform="matrix(.71999999,0,0,.71999999,.35999999,.35999999)" stroke-width="1" stroke-linecap="butt" stroke-miterlimit="10" stroke-linejoin="miter" fill="none" stroke="#000000" d="M 55 36 L 75 36 L 48 36 L 68 36 "/>
<path transform="matrix(.71999999,0,0,.71999999,.35999999,.35999999)" stroke-width="1" stroke-linecap="butt" stroke-miterlimit="10" stroke-linejoin="miter" fill="none" stroke="#000000" d="M 21 36 L 1 36 L 28 36 L 8 36 "/>
<path transform="matrix(.000000000000000044087289,.71999999,-.71999999,.000000000000000044087289,53.64,-1.0799999)" d="M 55 36 C 54.999998 37.116235 54.891115 38.221746 54.673345 39.316534 C 54.455575 40.41132 54.133108 41.474348 53.705945 42.50561 C 53.278779 43.53688 52.755125 44.51657 52.134977 45.444688 C 51.51483 46.372804 50.81011 47.23151 50.02081 48.02081 C 49.23151 48.810106 48.372804 49.514825 47.444688 50.134977 C 46.51657 50.75512 45.53688 51.278779 44.50561 51.705945 C 43.474344 52.13311 42.411317 52.455575 41.316534 52.673345 C 40.221746 52.891115 39.116235 52.999998 38 53 C 36.883764 52.999998 35.77825 52.891115 34.683465 52.673345 C 33.588678 52.455575 32.52565 52.13311 31.49438 51.705945 C 30.463114 51.278779 29.483422 50.75512 28.555304 50.134977 C 27.627188 49.514825 26.76848 48.810106 25.979184 48.02081 C 25.189885 47.23151 24.48516 46.372804 23.865014 45.444688 C 23.244868 44.51657 22.72121 43.53688 22.294045 42.50561 C 21.86688 41.474348 21.544415 40.41132 21.326649 39.316534 C 21.108881 38.221746 20.999999 37.116235 21 36 C 20.999999 34.883764 21.108881 33.778249 21.326649 32.683465 C 21.544415 31.588673 21.86688 30.525645 22.294045 29.494379 C 22.72121 28.463112 23.244868 27.48342 23.865014 26.555304 C 24.48516 25.627188 25.189885 24.76848 25.979184 23.979184 C 26.76848 23.189885 27.627188 22.48516 28.555302 21.865014 C 29.48342 21.244868 30.463112 20.72121 31.494379 20.294047 C 32.52565 19.866883 33.588678 19.544417 34.683465 19.32665 C 35.77825 19.108883 36.883764 19 38 19 C 39.116235 19 40.221746 19.108883 41.316534 19.32665 C 42.411317 19.544417 43.474344 19.866883 44.50561 20.294047 C 45.53688 20.72121 46.51657 21.244868 47.444688 21.865014 C 48.372804 22.48516 49.23151 23.189885 50.02081 23.979184 C 50.81011 24.76848 51.51483 25.627188 52.134977 26.555302 C 52.755125 27.48342 53.278779 28.463112 53.705945 29.494379 C 54.133108 30.525645 54.455575 31.588673 54.673345 32.683465 C 54.891115 33.778249 54.999998 34.883764 55 36 Z " fill="#ffffff"/>
<path transform="matrix(.000000000000000044087289,.71999999,-.71999999,.000000000000000044087289,53.64,-1.0799999)" stroke-width="1" stroke-linecap="butt" stroke-miterlimit="4" stroke-linejoin="miter" fill="none" stroke="#000000" d="M 55 36 C 54.999998 37.116235 54.891115 38.221746 54.673345 39.316534 C 54.455575 40.41132 54.133108 41.474348 53.705945 42.50561 C 53.278779 43.53688 52.755125 44.51657 52.134977 45.444688 C 51.51483 46.372804 50.81011 47.23151 50.02081 48.02081 C 49.23151 48.810106 48.372804 49.514825 47.444688 50.134977 C 46.51657 50.75512 45.53688 51.278779 44.50561 51.705945 C 43.474344 52.13311 42.411317 52.455575 41.316534 52.673345 C 40.221746 52.891115 39.116235 52.999998 38 53 C 36.883764 52.999998 35.77825 52.891115 34.683465 52.673345 C 33.588678 52.455575 32.52565 52.13311 31.49438 51.705945 C 30.463114 51.278779 29.483422 50.75512 28.555304 50.134977 C 27.627188 49.514825 26.76848 48.810106 25.979184 48.02081 C 25.189885 47.23151 24.48516 46.372804 23.865014 45.444688 C 23.244868 44.51657 22.72121 43.53688 22.294045 42.50561 C 21.86688 41.474348 21.544415 40.41132 21.326649 39.316534 C 21.108881 38.221746 20.999999 37.116235 21 36 C 20.999999 34.883764 21.108881 33.778249 21.326649 32.683465 C 21.544415 31.588673 21.86688 30.525645 22.294045 29.494379 C 22.72121 28.463112 23.244868 27.48342 23.865014 26.555304 C 24.48516 25.627188 25.189885 24.76848 25.979184 23.979184 C 26.76848 23.189885 27.627188 22.48516 28.555302 21.865014 C 29.48342 21.244868 30.463112 20.72121 31.494379 20.294047 C 32.52565 19.866883 33.588678 19.544417 34.683465 19.32665 C 35.77825 19.108883 36.883764 19 38 19 C 39.116235 19 40.221746 19.108883 41.316534 19.32665 C 42.411317 19.544417 43.474344 19.866883 44.50561 20.294047 C 45.53688 20.72121 46.51657 21.244868 47.444688 21.865014 C 48.372804 22.48516 49.23151 23.189885 50.02081 23.979184 C 50.81011 24.76848 51.51483 25.627188 52.134977 26.555302 C 52.755125 27.48342 53.278779 28.463112 53.705945 29.494379 C 54.133108 30.525645 54.455575 31.588673 54.673345 32.683465 C 54.891115 33.778249 54.999998 34.883764 55 36 Z "/>
<path transform="matrix(.000000000000000044087289,.71999999,-.71999999,.000000000000000044087289,53.64,-1.0799999)" stroke-width="1" stroke-linecap="butt" stroke-miterlimit="10" stroke-linejoin="miter" fill="none" stroke="#000000" d="M 38 24.78 L 38 36 M 27.12 33.28 L 38 36 M 31.88 45.52 L 38 36 M 48.88 33.28 L 38 36 M 44.12 45.52 L 38 36 "/>
<text xml:space="preserve" transform="matrix(.71999999 0 0 .71999999 0 0)" font-size="12" font-family="ArialMT"><tspan y="16" x="94.171878">R</tspan></text>
<text xml:space="preserve" transform="matrix(.71999999 0 0 .71999999 0 0)" font-size="12" font-family="ArialMT"><tspan y="16" x="18.171875 26.175877 32.847879 36.843877 42.845705 46.1817 54.845705">Vn(T,R)</tspan></text>
<path transform="matrix(.71999999,0,0,.71999999,.35999999,.35999999)" stroke-width="1" stroke-linecap="butt" stroke-miterlimit="10" stroke-linejoin="miter" fill="none" stroke="#000000" d="M 163 48 L 163 36 L 128 36 "/>
<path transform="matrix(.000000000000000044087289,.71999999,-.71999999,.000000000000000044087289,170.28,-64.439998)" stroke-width="1" stroke-linecap="butt" stroke-miterlimit="10" stroke-linejoin="miter" fill="none" stroke="#000000" d="M 138 73 L 160.5 73 M 165.5 58 L 165.5 88 M 160.5 58 L 160.5 88 M 165.5 73 L 188 73 "/>
<path transform="matrix(.71999999,0,0,.71999999,.35999999,.35999999)" stroke-width="1" stroke-linecap="butt" stroke-miterlimit="10" stroke-linejoin="miter" fill="none" stroke="#000000" d="M 163 106 L 163 86 L 163 118 L 163 98 "/>
<path transform="matrix(.71999999,0,0,.71999999,.35999999,.35999999)" d="M 155.5 112.67 L 163 126 L 170.5 112.67 L 155.5 112.67 Z " fill="#ffffff"/>
<path transform="matrix(.71999999,0,0,.71999999,.35999999,.35999999)" stroke-width="1" stroke-linecap="butt" stroke-miterlimit="10" stroke-linejoin="miter" fill="none" stroke="#000000" d="M 155.5 112.67 L 163 126 L 170.5 112.67 L 155.5 112.67 Z "/>
<path transform="matrix(.71999999,0,0,.71999999,.35999999,.35999999)" stroke-width="1" stroke-linecap="butt" stroke-miterlimit="10" stroke-linejoin="miter" fill="none" stroke="#000000" d="M 163 106 L 163 112.67 "/>
<text xml:space="preserve" transform="matrix(.71999999 0 0 .71999999 0 0)" font-size="12" font-family="ArialMT"><tspan y="16" x="148.17188 156.17588 162.84787 166.84387 172.8457 176.1817 184.8457">Vn(T,C)</tspan></text>
</g>
</g>
</svg>
