<?xml version="1.0" encoding="UTF-8" standalone="no"?>
<!DOCTYPE svg PUBLIC "-//W3C//DTD SVG 1.1//EN" "http://www.w3.org/Graphics/SVG/1.1/DTD/svg11.dtd">
<svg xmlns="http://www.w3.org/2000/svg" xmlns:xlink="http://www.w3.org/1999/xlink" version="1.1" width="89.04pt" height="66.96pt" viewBox="0 0 89.04 66.96">
<g enable-background="new">
<clipPath id="cp0">
<path transform="matrix(.24,0,0,.24,0,0)" d="M 0 0 L 370.83329 0 L 370.83329 278.12498 L 0 278.12498 Z " fill-rule="evenodd"/>
</clipPath>
<g clip-path="url(#cp0)">
<path transform="matrix(.71774187,0,0,.71774187,0,0)" d="M 0 0 L 124 0 L 124 93 L 0 93 Z " fill="#ffffff"/>
</g>
<clipPath id="cp1">
<path transform="matrix(.24,0,0,.24,0,0)" d="M 0 0 L 370.83329 0 L 370.83329 275.13438 L 0 275.13438 Z " fill-rule="evenodd"/>
</clipPath>
<g clip-path="url(#cp1)">
<path transform="matrix(.71774187,0,0,.71774187,.35887093,.35887093)" stroke-width="1" stroke-linecap="butt" stroke-miterlimit="10" stroke-linejoin="miter" fill="none" stroke="#000000" d="M 31 61 L 11 61 L 21 61 L 1 61 "/>
<path transform="matrix(.71774187,0,0,.71774187,.35887093,.35887093)" stroke-width="1" stroke-linecap="butt" stroke-miterlimit="10" stroke-linejoin="miter" fill="none" stroke="#000000" d="M 91 61 L 111 61 L 101 61 L 121 61 "/>
<path transform="matrix(.71774187,0,0,.71774187,.35887093,.35887093)" d="M 91 61 C 91 61.982538 90.95184 62.962709 90.85554 63.940515 C 90.75923 64.91832 90.615238 65.889049 90.423549 66.85271 C 90.231868 67.81637 89.993419 68.76832 89.7082 69.70854 C 89.42298 70.648769 89.09237 71.572757 88.71637 72.4805 C 88.34037 73.388248 87.920787 74.275379 87.45762 75.1419 C 86.99446 76.00842 86.489948 76.85016 85.94407 77.66711 C 85.39821 78.484058 84.81362 79.272289 84.19031 80.0318 C 83.56699 80.791309 82.90796 81.51844 82.213199 82.213199 C 81.51844 82.90796 80.791309 83.56699 80.0318 84.19031 C 79.272289 84.81362 78.484058 85.39821 77.66711 85.94407 C 76.85016 86.489948 76.00842 86.99446 75.1419 87.45763 C 74.275379 87.920787 73.388248 88.34037 72.4805 88.71637 C 71.572757 89.09237 70.648769 89.42298 69.70854 89.7082 C 68.76832 89.993419 67.81637 90.231868 66.85271 90.423549 C 65.889049 90.615238 64.91832 90.75923 63.940519 90.85554 C 62.962709 90.95184 61.982538 91 61 91 C 60.017465 91 59.037294 90.95184 58.059484 90.85554 C 57.08168 90.75923 56.110948 90.615238 55.147287 90.423549 C 54.183629 90.231868 53.231687 89.993419 52.291456 89.7082 C 51.351228 89.42298 50.42724 89.09237 49.51949 88.71637 C 48.611749 88.34037 47.724615 87.920787 46.858095 87.45762 C 45.991575 86.99446 45.149839 86.489948 44.332887 85.94407 C 43.51594 85.39821 42.72771 84.81362 41.9682 84.19031 C 41.20869 83.56699 40.481554 82.90796 39.786794 82.213199 C 39.092035 81.51844 38.433 80.791309 37.809686 80.0318 C 37.186368 79.272289 36.601778 78.484058 36.05591 77.66711 C 35.51004 76.85016 35.005525 76.00842 34.542364 75.1419 C 34.079198 74.275379 33.659616 73.388248 33.28361 72.4805 C 32.90761 71.572757 32.577005 70.648769 32.29179 69.70854 C 32.006578 68.76832 31.768126 67.81637 31.57644 66.85271 C 31.384758 65.889049 31.240765 64.91832 31.14446 63.940519 C 31.048153 62.962709 31 61.982538 31 61 C 31 60.017465 31.048153 59.037294 31.144459 58.059484 C 31.240765 57.08168 31.384758 56.110948 31.57644 55.147287 C 31.768126 54.183629 32.006578 53.231687 32.29179 52.291456 C 32.577005 51.351228 32.90761 50.42724 33.28361 49.51949 C 33.659616 48.611749 34.079198 47.724615 34.542364 46.858095 C 35.005525 45.991575 35.51004 45.149839 36.055906 44.332887 C 36.601778 43.51594 37.186368 42.72771 37.80968 41.9682 C 38.433 41.20869 39.092035 40.481554 39.786794 39.786794 C 40.481554 39.092039 41.20869 38.433004 41.9682 37.809686 C 42.72771 37.18637 43.51594 36.60178 44.33289 36.05591 C 45.14984 35.51004 45.991579 35.005525 46.858098 34.542364 C 47.724618 34.079198 48.61175 33.659616 49.519495 33.28361 C 50.42724 32.90761 51.351228 32.577005 52.29146 32.29179 C 53.23169 32.006578 54.18363 31.768126 55.14729 31.57644 C 56.110948 31.38476 57.08168 31.240767 58.059488 31.14446 C 59.037294 31.048155 60.017465 31.000002 61 31 C 61.982538 31.000002 62.962709 31.048155 63.940515 31.14446 C 64.91832 31.240767 65.889049 31.38476 66.85271 31.57644 C 67.81637 31.768126 68.76832 32.006578 69.70854 32.29179 C 70.648769 32.577005 71.572757 32.90761 72.4805 33.28361 C 73.388248 33.659616 74.275379 34.079198 75.1419 34.542364 C 76.00842 35.005525 76.85016 35.51004 77.66711 36.05591 C 78.484058 36.60178 79.272289 37.18637 80.0318 37.809686 C 80.791309 38.433004 81.51844 39.092039 82.213199 39.786794 C 82.90796 40.481554 83.56699 41.20869 84.19031 41.9682 C 84.81362 42.72771 85.39821 43.51594 85.94407 44.33289 C 86.489948 45.14984 86.99446 45.991579 87.45763 46.858098 C 87.920787 47.724618 88.34037 48.61175 88.71637 49.519495 C 89.09237 50.42724 89.42298 51.351228 89.7082 52.29146 C 89.993419 53.23169 90.231868 54.18363 90.423549 55.14729 C 90.615238 56.110948 90.75923 57.08168 90.85554 58.059488 C 90.95184 59.037294 91 60.017465 91 61 Z " fill="#ffffff"/>
<path transform="matrix(.71774187,0,0,.71774187,.35887093,.35887093)" stroke-width="1" stroke-linecap="butt" stroke-miterlimit="4" stroke-linejoin="miter" fill="none" stroke="#000000" d="M 91 61 C 91 61.982538 90.95184 62.962709 90.85554 63.940515 C 90.75923 64.91832 90.615238 65.889049 90.423549 66.85271 C 90.231868 67.81637 89.993419 68.76832 89.7082 69.70854 C 89.42298 70.648769 89.09237 71.572757 88.71637 72.4805 C 88.34037 73.388248 87.920787 74.275379 87.45762 75.1419 C 86.99446 76.00842 86.489948 76.85016 85.94407 77.66711 C 85.39821 78.484058 84.81362 79.272289 84.19031 80.0318 C 83.56699 80.791309 82.90796 81.51844 82.213199 82.213199 C 81.51844 82.90796 80.791309 83.56699 80.0318 84.19031 C 79.272289 84.81362 78.484058 85.39821 77.66711 85.94407 C 76.85016 86.489948 76.00842 86.99446 75.1419 87.45763 C 74.275379 87.920787 73.388248 88.34037 72.4805 88.71637 C 71.572757 89.09237 70.648769 89.42298 69.70854 89.7082 C 68.76832 89.993419 67.81637 90.231868 66.85271 90.423549 C 65.889049 90.615238 64.91832 90.75923 63.940519 90.85554 C 62.962709 90.95184 61.982538 91 61 91 C 60.017465 91 59.037294 90.95184 58.059484 90.85554 C 57.08168 90.75923 56.110948 90.615238 55.147287 90.423549 C 54.183629 90.231868 53.231687 89.993419 52.291456 89.7082 C 51.351228 89.42298 50.42724 89.09237 49.51949 88.71637 C 48.611749 88.34037 47.724615 87.920787 46.858095 87.45762 C 45.991575 86.99446 45.149839 86.489948 44.332887 85.94407 C 43.51594 85.39821 42.72771 84.81362 41.9682 84.19031 C 41.20869 83.56699 40.481554 82.90796 39.786794 82.213199 C 39.092035 81.51844 38.433 80.791309 37.809686 80.0318 C 37.186368 79.272289 36.601778 78.484058 36.05591 77.66711 C 35.51004 76.85016 35.005525 76.00842 34.542364 75.1419 C 34.079198 74.275379 33.659616 73.388248 33.28361 72.4805 C 32.90761 71.572757 32.577005 70.648769 32.29179 69.70854 C 32.006578 68.76832 31.768126 67.81637 31.57644 66.85271 C 31.384758 65.889049 31.240765 64.91832 31.14446 63.940519 C 31.048153 62.962709 31 61.982538 31 61 C 31 60.017465 31.048153 59.037294 31.144459 58.059484 C 31.240765 57.08168 31.384758 56.110948 31.57644 55.147287 C 31.768126 54.183629 32.006578 53.231687 32.29179 52.291456 C 32.577005 51.351228 32.90761 50.42724 33.28361 49.51949 C 33.659616 48.611749 34.079198 47.724615 34.542364 46.858095 C 35.005525 45.991575 35.51004 45.149839 36.055906 44.332887 C 36.601778 43.51594 37.186368 42.72771 37.80968 41.9682 C 38.433 41.20869 39.092035 40.481554 39.786794 39.786794 C 40.481554 39.092039 41.20869 38.433004 41.9682 37.809686 C 42.72771 37.18637 43.51594 36.60178 44.33289 36.05591 C 45.14984 35.51004 45.991579 35.005525 46.858098 34.542364 C 47.724618 34.079198 48.61175 33.659616 49.519495 33.28361 C 50.42724 32.90761 51.351228 32.577005 52.29146 32.29179 C 53.23169 32.006578 54.18363 31.768126 55.14729 31.57644 C 56.110948 31.38476 57.08168 31.240767 58.059488 31.14446 C 59.037294 31.048155 60.017465 31.000002 61 31 C 61.982538 31.000002 62.962709 31.048155 63.940515 31.14446 C 64.91832 31.240767 65.889049 31.38476 66.85271 31.57644 C 67.81637 31.768126 68.76832 32.006578 69.70854 32.29179 C 70.648769 32.577005 71.572757 32.90761 72.4805 33.28361 C 73.388248 33.659616 74.275379 34.079198 75.1419 34.542364 C 76.00842 35.005525 76.85016 35.51004 77.66711 36.05591 C 78.484058 36.60178 79.272289 37.18637 80.0318 37.809686 C 80.791309 38.433004 81.51844 39.092039 82.213199 39.786794 C 82.90796 40.481554 83.56699 41.20869 84.19031 41.9682 C 84.81362 42.72771 85.39821 43.51594 85.94407 44.33289 C 86.489948 45.14984 86.99446 45.991579 87.45763 46.858098 C 87.920787 47.724618 88.34037 48.61175 88.71637 49.519495 C 89.09237 50.42724 89.42298 51.351228 89.7082 52.29146 C 89.993419 53.23169 90.231868 54.18363 90.423549 55.14729 C 90.615238 56.110948 90.75923 57.08168 90.85554 58.059488 C 90.95184 59.037294 91 60.017465 91 61 Z "/>
<path transform="matrix(.71774187,0,0,.71774187,.35887093,.35887093)" stroke-width="1" stroke-linecap="butt" stroke-miterlimit="10" stroke-linejoin="miter" fill="none" stroke="#000000" d="M 41.2 61 L 80.8 61 M 71.2 56.2 L 80.8 61 L 71.2 65.8 "/>
<text xml:space="preserve" transform="matrix(.71774187 0 0 .71774187 0 0)" font-size="12" font-family="ArialMT"><tspan y="16" x="59.828126">I</tspan></text>
</g>
</g>
</svg>
