<?xml version="1.0" encoding="UTF-8" standalone="no"?>
<!DOCTYPE svg PUBLIC "-//W3C//DTD SVG 1.1//EN" "http://www.w3.org/Graphics/SVG/1.1/DTD/svg11.dtd">
<svg xmlns="http://www.w3.org/2000/svg" xmlns:xlink="http://www.w3.org/1999/xlink" version="1.1" width="154.08pt" height="60pt" viewBox="0 0 154.08 60">
<g enable-background="new">
<clipPath id="cp0">
<path transform="matrix(.24,0,0,.24,0,0)" d="M 0 0 L 641.6667 0 L 641.6667 248.87073 L 0 248.87073 Z " fill-rule="evenodd"/>
</clipPath>
<g clip-path="url(#cp0)">
<path transform="matrix(.7196262,0,0,.7196262,0,0)" d="M 0 0 L 214 0 L 214 83 L 0 83 Z " fill="#ffffff"/>
</g>
<clipPath id="cp1">
<path transform="matrix(.24,0,0,.24,0,0)" d="M 0 0 L 641.6667 0 L 641.6667 245.87229 L 0 245.87229 Z " fill-rule="evenodd"/>
</clipPath>
<g clip-path="url(#cp1)">
<path transform="matrix(.7196262,0,0,.7196262,.3598131,.3598131)" stroke-width="1" stroke-linecap="butt" stroke-miterlimit="10" stroke-linejoin="miter" fill="none" stroke="#000000" d="M 101 51 L 121 51 L 101 51 L 121 51 "/>
<path transform="matrix(.7196262,0,0,.7196262,.3598131,.3598131)" stroke-width="1" stroke-linecap="butt" stroke-miterlimit="10" stroke-linejoin="miter" fill="none" stroke="#000000" d="M 1 51 L 19 51 L 23 41 L 31 61 L 39 41 L 47 61 L 55 41 L 63 61 L 71 41 L 79 61 L 83 51 L 101 51 "/>
<path transform="matrix(.7196262,0,0,.7196262,.3598131,.3598131)" stroke-width="1" stroke-linecap="butt" stroke-miterlimit="10" stroke-linejoin="miter" fill="none" stroke="#000000" d="M 181 51 L 211 51 "/>
<path transform="matrix(.000000000000000044064399,.7196262,-.7196262,.000000000000000044064399,145.72429,-71.602809)" d="M 181 51 C 181 51.98254 180.95185 52.96271 180.85553 53.940515 C 180.75923 54.91832 180.61522 55.88905 180.42353 56.852708 C 180.23186 57.816366 179.99341 58.76831 179.70819 59.708539 C 179.42299 60.648767 179.09238 61.572755 178.71636 62.480497 C 178.34037 63.388246 177.92078 64.27538 177.45763 65.14191 C 176.99446 66.00842 176.48995 66.85015 175.94406 67.6671 C 175.3982 68.48405 174.81362 69.27228 174.1903 70.03179 C 173.567 70.791309 172.90796 71.51844 172.2132 72.213199 C 171.51845 72.90796 170.7913 73.56699 170.03179 74.19031 C 169.27228 74.81362 168.48404 75.39821 167.66709 75.94408 C 166.85015 76.48995 166.0084 76.99447 165.14189 77.45763 C 164.27538 77.920787 163.38825 78.34037 162.48049 78.71637 C 161.57276 79.09237 160.64878 79.42298 159.70854 79.708209 C 158.76831 79.993419 157.81636 80.231868 156.85269 80.42355 C 155.88906 80.61524 154.91832 80.75924 153.9405 80.85555 C 152.9627 80.95185 151.98253 81 151 81 C 150.01747 81 149.0373 80.95185 148.05948 80.85555 C 147.08168 80.75924 146.11095 80.61524 145.14728 80.42355 C 144.18363 80.231868 143.23168 79.993419 142.29145 79.708209 C 141.35121 79.42298 140.42723 79.09237 139.51949 78.71637 C 138.61174 78.34037 137.72461 77.920787 136.8581 77.45763 C 135.99158 76.99447 135.14984 76.48995 134.33289 75.94408 C 133.51595 75.39821 132.7277 74.81362 131.96819 74.19031 C 131.20868 73.56699 130.48155 72.90796 129.78679 72.213199 C 129.09204 71.51844 128.433 70.791309 127.80968 70.03179 C 127.18636 69.27228 126.60177 68.48405 126.05589 67.6671 C 125.51003 66.85015 125.005519 66.00842 124.54235 65.1419 C 124.07919 64.27538 123.65961 63.388246 123.2836 62.480497 C 122.9076 61.572755 122.576999 60.648767 122.29179 59.708539 C 122.00658 58.76831 121.76813 57.816366 121.57644 56.852705 C 121.384769 55.88905 121.24077 54.91832 121.14446 53.940515 C 121.04816 52.96271 121.00001 51.98254 121 51 C 121.00001 50.017465 121.048168 49.037294 121.14447 48.059488 C 121.240779 47.081686 121.384769 46.11095 121.57644 45.147294 C 121.76813 44.183637 122.00658 43.23169 122.29179 42.291463 C 122.576999 41.35123 122.90761 40.427244 123.28361 39.519495 C 123.65961 38.61175 124.07919 37.72462 124.54235 36.8581 C 125.005519 35.991579 125.51003 35.14984 126.05589 34.33289 C 126.60177 33.51594 127.18636 32.72771 127.80968 31.968199 C 128.433 31.208689 129.09204 30.481554 129.78679 29.786795 C 130.48155 29.092038 131.20868 28.433 131.96819 27.809687 C 132.72769 27.18637 133.51593 26.601778 134.33287 26.055909 C 135.14983 25.510043 135.99156 25.005526 136.85808 24.54236 C 137.72461 24.079197 138.61174 23.659613 139.51949 23.283612 C 140.42723 22.907612 141.35121 22.577006 142.29145 22.29179 C 143.23168 22.006575 144.18363 21.768126 145.14728 21.57644 C 146.11095 21.384758 147.08168 21.240765 148.05948 21.144459 C 149.0373 21.048155 150.01747 21.000002 151 21 C 151.98253 21.000002 152.9627 21.048155 153.9405 21.144459 C 154.91832 21.240765 155.88906 21.384758 156.85269 21.57644 C 157.81636 21.768126 158.76831 22.006575 159.70854 22.29179 C 160.64878 22.577006 161.57276 22.907612 162.48049 23.283612 C 163.38825 23.659613 164.27538 24.079197 165.1419 24.54236 C 166.0084 25.005528 166.85015 25.510045 167.66709 26.05591 C 168.48404 26.60178 169.27228 27.186373 170.03179 27.809687 C 170.7913 28.433 171.51845 29.092038 172.2132 29.786795 C 172.90796 30.481554 173.567 31.208689 174.1903 31.9682 C 174.81362 32.72771 175.3982 33.51594 175.94406 34.332895 C 176.48995 35.149847 176.99446 35.99158 177.45763 36.8581 C 177.9208 37.72462 178.34038 38.61175 178.71637 39.519495 C 179.09238 40.427244 179.42299 41.35123 179.70819 42.29146 C 179.99341 43.231687 180.23186 44.18363 180.42354 45.14729 C 180.61524 46.11095 180.75923 47.081686 180.85553 48.059488 C 180.95185 49.037294 181 50.017465 181 51 Z " fill="#ffffff"/>
<path transform="matrix(.000000000000000044064399,.7196262,-.7196262,.000000000000000044064399,145.72429,-71.602809)" stroke-width="1" stroke-linecap="butt" stroke-miterlimit="4" stroke-linejoin="miter" fill="none" stroke="#000000" d="M 181 51 C 181 51.98254 180.95185 52.96271 180.85553 53.940515 C 180.75923 54.91832 180.61522 55.88905 180.42353 56.852708 C 180.23186 57.816366 179.99341 58.76831 179.70819 59.708539 C 179.42299 60.648767 179.09238 61.572755 178.71636 62.480497 C 178.34037 63.388246 177.92078 64.27538 177.45763 65.14191 C 176.99446 66.00842 176.48995 66.85015 175.94406 67.6671 C 175.3982 68.48405 174.81362 69.27228 174.1903 70.03179 C 173.567 70.791309 172.90796 71.51844 172.2132 72.213199 C 171.51845 72.90796 170.7913 73.56699 170.03179 74.19031 C 169.27228 74.81362 168.48404 75.39821 167.66709 75.94408 C 166.85015 76.48995 166.0084 76.99447 165.14189 77.45763 C 164.27538 77.920787 163.38825 78.34037 162.48049 78.71637 C 161.57276 79.09237 160.64878 79.42298 159.70854 79.708209 C 158.76831 79.993419 157.81636 80.231868 156.85269 80.42355 C 155.88906 80.61524 154.91832 80.75924 153.9405 80.85555 C 152.9627 80.95185 151.98253 81 151 81 C 150.01747 81 149.0373 80.95185 148.05948 80.85555 C 147.08168 80.75924 146.11095 80.61524 145.14728 80.42355 C 144.18363 80.231868 143.23168 79.993419 142.29145 79.708209 C 141.35121 79.42298 140.42723 79.09237 139.51949 78.71637 C 138.61174 78.34037 137.72461 77.920787 136.8581 77.45763 C 135.99158 76.99447 135.14984 76.48995 134.33289 75.94408 C 133.51595 75.39821 132.7277 74.81362 131.96819 74.19031 C 131.20868 73.56699 130.48155 72.90796 129.78679 72.213199 C 129.09204 71.51844 128.433 70.791309 127.80968 70.03179 C 127.18636 69.27228 126.60177 68.48405 126.05589 67.6671 C 125.51003 66.85015 125.005519 66.00842 124.54235 65.1419 C 124.07919 64.27538 123.65961 63.388246 123.2836 62.480497 C 122.9076 61.572755 122.576999 60.648767 122.29179 59.708539 C 122.00658 58.76831 121.76813 57.816366 121.57644 56.852705 C 121.384769 55.88905 121.24077 54.91832 121.14446 53.940515 C 121.04816 52.96271 121.00001 51.98254 121 51 C 121.00001 50.017465 121.048168 49.037294 121.14447 48.059488 C 121.240779 47.081686 121.384769 46.11095 121.57644 45.147294 C 121.76813 44.183637 122.00658 43.23169 122.29179 42.291463 C 122.576999 41.35123 122.90761 40.427244 123.28361 39.519495 C 123.65961 38.61175 124.07919 37.72462 124.54235 36.8581 C 125.005519 35.991579 125.51003 35.14984 126.05589 34.33289 C 126.60177 33.51594 127.18636 32.72771 127.80968 31.968199 C 128.433 31.208689 129.09204 30.481554 129.78679 29.786795 C 130.48155 29.092038 131.20868 28.433 131.96819 27.809687 C 132.72769 27.18637 133.51593 26.601778 134.33287 26.055909 C 135.14983 25.510043 135.99156 25.005526 136.85808 24.54236 C 137.72461 24.079197 138.61174 23.659613 139.51949 23.283612 C 140.42723 22.907612 141.35121 22.577006 142.29145 22.29179 C 143.23168 22.006575 144.18363 21.768126 145.14728 21.57644 C 146.11095 21.384758 147.08168 21.240765 148.05948 21.144459 C 149.0373 21.048155 150.01747 21.000002 151 21 C 151.98253 21.000002 152.9627 21.048155 153.9405 21.144459 C 154.91832 21.240765 155.88906 21.384758 156.85269 21.57644 C 157.81636 21.768126 158.76831 22.006575 159.70854 22.29179 C 160.64878 22.577006 161.57276 22.907612 162.48049 23.283612 C 163.38825 23.659613 164.27538 24.079197 165.1419 24.54236 C 166.0084 25.005528 166.85015 25.510045 167.66709 26.05591 C 168.48404 26.60178 169.27228 27.186373 170.03179 27.809687 C 170.7913 28.433 171.51845 29.092038 172.2132 29.786795 C 172.90796 30.481554 173.567 31.208689 174.1903 31.9682 C 174.81362 32.72771 175.3982 33.51594 175.94406 34.332895 C 176.48995 35.149847 176.99446 35.99158 177.45763 36.8581 C 177.9208 37.72462 178.34038 38.61175 178.71637 39.519495 C 179.09238 40.427244 179.42299 41.35123 179.70819 42.29146 C 179.99341 43.231687 180.23186 44.18363 180.42354 45.14729 C 180.61524 46.11095 180.75923 47.081686 180.85553 48.059488 C 180.95185 49.037294 181 50.017465 181 51 Z "/>
<path transform="matrix(.000000000000000044064399,.7196262,-.7196262,.000000000000000044064399,145.72429,-71.602809)" stroke-width="1" stroke-linecap="butt" stroke-miterlimit="10" stroke-linejoin="miter" fill="none" stroke="#000000" d="M 151 31.2 L 151 51 M 131.8 46.2 L 151 51 M 140.2 67.8 L 151 51 M 170.2 46.2 L 151 51 M 161.8 67.8 L 151 51 "/>
<text xml:space="preserve" transform="matrix(.7196262 0 0 .7196262 0 0)" font-size="12" font-family="ArialMT"><tspan y="16" x="47.171876">R</tspan></text>
<text xml:space="preserve" transform="matrix(.7196262 0 0 .7196262 0 0)" font-size="12" font-family="ArialMT"><tspan y="16" x="131.17188 139.17588 145.84787 149.84387 155.8457 159.1817 167.8457">Vn(T,R)</tspan></text>
</g>
</g>
</svg>
