
<svg xmlns="http://www.w3.org/2000/svg"
     xmlns:xlink="http://www.w3.org/1999/xlink" version="1.1" width="612"
     height="318">
    <defs/>
    <g transform=" scale(1) translate(-186,-66)">
        <rect x="359" y="279" width="2" height="2" fill="#000000" stroke="none"
              pointer-events="none"/>
        <rect x="359" y="239" width="2" height="2" fill="#000000" stroke="none"
              pointer-events="none"/>
        <rect x="489" y="259" width="2" height="2" fill="#000000" stroke="none"
              pointer-events="none"/>
        <path d="M 380.07 310 L 380.07 210 L 470.07 260 Z" fill="#ffffff"
              stroke="#000000" stroke-width="2" stroke-miterlimit="10"
              pointer-events="none"/>
        <path d="M 360.93 280 L 378.93 280" fill="none" stroke="#000000"
              stroke-width="2" stroke-linecap="square" stroke-miterlimit="10"
              pointer-events="none"/>
        <path d="M 361.07 240 L 379.07 240" fill="none" stroke="#000000"
              stroke-width="2" stroke-linecap="square" stroke-miterlimit="10"
              pointer-events="none"/>
        <path d="M 470.07 260 L 489.07 260" fill="none" stroke="#000000"
              stroke-width="2" stroke-linecap="square" stroke-miterlimit="10"
              pointer-events="none"/>
        <path d="M 388.05 280 L 395.89 280" fill="none" stroke="#000000"
              stroke-width="2" stroke-linecap="square" stroke-miterlimit="10"
              pointer-events="none"/>
        <path d="M 388.05 240 L 395.89 240" fill="none" stroke="#000000"
              stroke-width="2" stroke-linecap="square" stroke-miterlimit="10"
              pointer-events="none"/>
        <path d="M 391.97 236.08 L 391.97 243.92" fill="none" stroke="#000000"
              stroke-width="2" stroke-linecap="square" stroke-miterlimit="10"
              pointer-events="none"/>
        <rect x="343" y="210" width="17" height="12" fill-opacity="0"
              fill="#dae2f2" stroke="none" pointer-events="none"/>
        <g fill="#000000" font-family="Arial,Helvetica" font-weight="bold"
           text-anchor="middle" font-size="12px">
            <text x="351.5" y="221">
                U1
            </text>
        </g>
        <rect x="659" y="299" width="2" height="2" fill="#000000" stroke="none"
              pointer-events="none"/>
        <rect x="659" y="259" width="2" height="2" fill="#000000" stroke="none"
              pointer-events="none"/>
        <rect x="789" y="279" width="2" height="2" fill="#000000" stroke="none"
              pointer-events="none"/>
        <path d="M 680.07 330 L 680.07 230 L 770.07 280 Z" fill="#ffffff"
              stroke="#000000" stroke-width="2" stroke-miterlimit="10"
              pointer-events="none"/>
        <path d="M 660.93 300 L 678.93 300" fill="none" stroke="#000000"
              stroke-width="2" stroke-linecap="square" stroke-miterlimit="10"
              pointer-events="none"/>
        <path d="M 661.07 260 L 679.07 260" fill="none" stroke="#000000"
              stroke-width="2" stroke-linecap="square" stroke-miterlimit="10"
              pointer-events="none"/>
        <path d="M 770.07 280 L 789.07 280" fill="none" stroke="#000000"
              stroke-width="2" stroke-linecap="square" stroke-miterlimit="10"
              pointer-events="none"/>
        <path d="M 688.05 300 L 695.89 300" fill="none" stroke="#000000"
              stroke-width="2" stroke-linecap="square" stroke-miterlimit="10"
              pointer-events="none"/>
        <path d="M 688.05 260 L 695.89 260" fill="none" stroke="#000000"
              stroke-width="2" stroke-linecap="square" stroke-miterlimit="10"
              pointer-events="none"/>
        <path d="M 691.97 256.08 L 691.97 263.92" fill="none" stroke="#000000"
              stroke-width="2" stroke-linecap="square" stroke-miterlimit="10"
              pointer-events="none"/>
        <rect x="643" y="230" width="17" height="12" fill-opacity="0"
              fill="#dae2f2" stroke="none" pointer-events="none"/>
        <g fill="#000000" font-family="Arial,Helvetica" font-weight="bold"
           text-anchor="middle" font-size="12px">
            <text x="651.5" y="241">
                U2
            </text>
        </g>
        <rect x="574" y="214" width="2" height="2" fill="#000000" stroke="none"
              transform="rotate(90,560,245)" pointer-events="none"/>
        <rect x="574" y="274" width="2" height="2" fill="#000000" stroke="none"
              transform="rotate(90,560,245)" pointer-events="none"/>
        <rect x="534" y="244" width="2" height="2" fill="#000000" stroke="none"
              transform="rotate(90,560,245)" pointer-events="none"/>
        <path d="M 575 216 L 575 229.5" fill="#000000" stroke="#000000"
              stroke-width="2" stroke-linecap="square" stroke-miterlimit="10"
              transform="rotate(90,560,245)" pointer-events="none"/>
        <path d="M 575 264 L 575 274" fill="#000000" stroke="#000000"
              stroke-width="2" stroke-linecap="square" stroke-miterlimit="10"
              transform="rotate(90,560,245)" pointer-events="none"/>
        <path d="M 575 230 L 560 230" fill="none" stroke="#000000"
              stroke-width="2" stroke-linejoin="round" stroke-linecap="round"
              stroke-miterlimit="10" transform="rotate(90,560,245)"
              pointer-events="none"/>
        <path d="M 575 260 L 560 260" fill="none" stroke="#000000"
              stroke-width="2" stroke-linejoin="round" stroke-linecap="round"
              stroke-miterlimit="10" transform="rotate(90,560,245)"
              pointer-events="none"/>
        <path d="M 560 240 L 560 250" fill="none" stroke="#000000"
              stroke-width="2" stroke-linejoin="round" stroke-linecap="round"
              stroke-miterlimit="10" transform="rotate(90,560,245)"
              pointer-events="none"/>
        <path d="M 560 255 L 560 265" fill="none" stroke="#000000"
              stroke-width="2" stroke-linejoin="round" stroke-linecap="round"
              stroke-miterlimit="10" transform="rotate(90,560,245)"
              pointer-events="none"/>
        <path d="M 560 235 L 560 225" fill="none" stroke="#000000"
              stroke-width="2" stroke-linejoin="round" stroke-linecap="round"
              stroke-miterlimit="10" transform="rotate(90,560,245)"
              pointer-events="none"/>
        <path d="M 567 245 L 575 245 L 575 264" fill="none" stroke="#000000"
              stroke-width="2" stroke-linejoin="round" stroke-linecap="round"
              stroke-miterlimit="10" transform="rotate(90,560,245)"
              pointer-events="none"/>
        <ellipse cx="575" cy="260" rx="2" ry="2" fill="none" stroke="#000000"
                 stroke-width="2" transform="rotate(90,560,245)"
                 pointer-events="none"/>
        <path d="M 536 245 L 551 245" fill="#000000" stroke="#000000"
              stroke-width="2" stroke-linecap="square" stroke-miterlimit="10"
              transform="rotate(90,560,245)" pointer-events="none"/>
        <path d="M 552 230 L 552 260" fill="none" stroke="#000000"
              stroke-width="2" stroke-linecap="round" stroke-miterlimit="10"
              transform="rotate(90,560,245)" pointer-events="none"/>
        <path d="M 567.39 241 L 561.39 245 L 567.39 249 Z" fill="#000000"
              stroke="#000000" stroke-linejoin="round" stroke-linecap="round"
              stroke-miterlimit="10" transform="rotate(90,560,245)"
              pointer-events="none"/>
        <rect x="570" y="210" width="18" height="12" fill-opacity="0"
              fill="#dae2f2" stroke="none" pointer-events="none"/>
        <g fill="#000000" font-family="Arial,Helvetica" font-weight="bold"
           text-anchor="middle" font-size="12px">
            <text x="579" y="221">
                Q1
            </text>
        </g>
        <path d="M 660 300 L 630 300 L 630 350 L 790 350 L 790 280" fill="none"
              stroke="#000000" stroke-width="2" stroke-miterlimit="10"
              pointer-events="none"/>
        <path d="M 590 260 L 660 260" fill="none" stroke="#000000"
              stroke-width="2" stroke-miterlimit="10" pointer-events="none"/>
        <path d="M 492 260 L 530 260" fill="none" stroke="#000000"
              stroke-width="2" stroke-miterlimit="10" pointer-events="none"/>
        <ellipse cx="490" cy="260" rx="2" ry="2" fill="#000000" stroke="#000000"
                 stroke-width="2" pointer-events="none"/>
        <path d="M 360 280 L 350 280 L 350 330 L 490 330 L 490 262" fill="none"
              stroke="#000000" stroke-width="2" stroke-miterlimit="10"
              pointer-events="none"/>
        <ellipse cx="490" cy="260" rx="2" ry="2" fill="#000000" stroke="#000000"
                 stroke-width="2" pointer-events="none"/>
        <rect x="249" y="229" width="2" height="2" fill="#000000" stroke="none"
              transform="rotate(180,280,235)" pointer-events="none"/>
        <rect x="309" y="229" width="2" height="2" fill="#000000" stroke="none"
              transform="rotate(180,280,235)" pointer-events="none"/>
        <ellipse cx="280" cy="230" rx="18.99984629" ry="18.99984629"
                 fill="#ffffff" stroke="#000000" stroke-width="2"
                 transform="rotate(180,280,235)" pointer-events="none"/>
        <path d="M 251 230 L 260 230" fill="none" stroke="#000000"
              stroke-width="2" stroke-linecap="square" stroke-miterlimit="10"
              transform="rotate(180,280,235)" pointer-events="none"/>
        <path d="M 300 230 L 309 230" fill="none" stroke="#000000"
              stroke-width="2" stroke-linecap="square" stroke-miterlimit="10"
              transform="rotate(180,280,235)" pointer-events="none"/>
        <path d="M 265.43 230 C 280 194.92 280.05 264.74 294.31 230.12"
              fill="none" stroke="#000000" stroke-width="2"
              stroke-linejoin="round" stroke-linecap="round"
              stroke-miterlimit="10" transform="rotate(180,280,235)"
              pointer-events="none"/>
        <path d="M 253.1 223.7 L 259.59 223.7" fill="none" stroke="#000000"
              stroke-width="1.29" stroke-linecap="round" stroke-miterlimit="10"
              transform="rotate(180,280,235)" pointer-events="none"/>
        <path d="M 256.27 220.43 L 256.27 227.24" fill="none" stroke="#000000"
              stroke-width="1.39" stroke-linecap="round" stroke-miterlimit="10"
              transform="rotate(180,280,235)" pointer-events="none"/>
        <rect x="310" y="244" width="16" height="12" fill-opacity="0"
              fill="#dae2f2" stroke="none" pointer-events="none"/>
        <g fill="#000000" font-family="Arial,Helvetica" font-weight="bold"
           text-anchor="middle" font-size="12px">
            <text x="318" y="255">
                V1
            </text>
        </g>
        <rect x="270" y="200" width="19" height="12" fill-opacity="0"
              fill="#dae2f2" stroke="none" pointer-events="none"/>
        <g fill="#000000" font-family="Arial,Helvetica" font-weight="bold"
           text-anchor="middle" font-size="12px">
            <text x="279.5" y="211">
                Vin
            </text>
        </g>
        <path d="M 310 240 L 360 240" fill="none" stroke="#000000"
              stroke-width="2" stroke-miterlimit="10" pointer-events="none"/>
        <rect x="599" y="329" width="2" height="2" fill="#000000" stroke="none"
              pointer-events="none"/>
        <rect x="599" y="279" width="2" height="2" fill="#000000" stroke="none"
              pointer-events="none"/>
        <path d="M 600 313 L 600 329" fill="none" stroke="#000000"
              stroke-width="2" stroke-linecap="square" stroke-miterlimit="10"
              pointer-events="none"/>
        <path d="M 600 281 L 600 297" fill="none" stroke="#000000"
              stroke-width="2" stroke-linecap="square" stroke-miterlimit="10"
              pointer-events="none"/>
        <rect x="589.2" y="298.03" width="22" height="5" fill="#ffffff"
              stroke="#000000" stroke-width="2" pointer-events="none"/>
        <rect x="589.2" y="307.4" width="22" height="5" fill="#ffffff"
              stroke="#000000" stroke-width="2" pointer-events="none"/>
        <rect x="560" y="300" width="17" height="12" fill-opacity="0"
              fill="#dae2f2" stroke="none" pointer-events="none"/>
        <g fill="#000000" font-family="Arial,Helvetica" font-weight="bold"
           text-anchor="middle" font-size="12px">
            <text x="568.5" y="311">
                C1
            </text>
        </g>
        <rect x="599" y="339" width="2" height="2" fill="#000000" stroke="none"
              pointer-events="none"/>
        <path d="M 600 341 L 600 359" fill="#000000" stroke="#000000"
              stroke-width="2" stroke-linecap="square" stroke-miterlimit="10"
              pointer-events="none"/>
        <path d="M 589 359.53 L 611 359.53 L 600 378.53 Z" fill="#ffffff"
              stroke="#000000" stroke-width="2" stroke-linejoin="round"
              stroke-linecap="square" stroke-miterlimit="10"
              pointer-events="none"/>
        <path d="M 600 280 L 600 262" fill="none" stroke="#000000"
              stroke-width="2" stroke-miterlimit="10" pointer-events="none"/>
        <ellipse cx="600" cy="260" rx="2" ry="2" fill="#000000" stroke="#000000"
                 stroke-width="2" pointer-events="none"/>
        <path d="M 600 330 L 600 340" fill="none" stroke="#000000"
              stroke-width="2" stroke-miterlimit="10" pointer-events="none"/>
        <rect x="439" y="139" width="2" height="2" fill="#000000" stroke="none"
              pointer-events="none"/>
        <rect x="559" y="139" width="2" height="2" fill="#000000" stroke="none"
              pointer-events="none"/>
        <rect x="459.92" y="99.89" width="80" height="80" fill="#ffffff"
              stroke="#000000" stroke-width="2" pointer-events="none"/>
        <path d="M 469.92 159.89 L 489.92 159.89 L 489.92 139.89 L 489.92 129.89 L 509.92 129.89 L 509.92 159.89 L 529.92 159.89"
              fill="none" stroke="#000000" stroke-width="2"
              stroke-linecap="square" stroke-miterlimit="10"
              pointer-events="none"/>
        <g fill="#000000" font-family="Arial,Helvetica" font-size="10px">
            <text x="488.8" y="118.47">
                Wide
            </text>
        </g>
        <path d="M 441 140 L 459 140" fill="none" stroke="#000000"
              stroke-width="2" stroke-linecap="square" stroke-miterlimit="10"
              pointer-events="none"/>
        <path d="M 541 140 L 559 140" fill="none" stroke="#000000"
              stroke-width="2" stroke-linecap="square" stroke-miterlimit="10"
              pointer-events="none"/>
        <rect x="424" y="90" width="16" height="12" fill-opacity="0"
              fill="#dae2f2" stroke="none" pointer-events="none"/>
        <g fill="#000000" font-family="Arial,Helvetica" font-weight="bold"
           text-anchor="middle" font-size="12px">
            <text x="432" y="101">
                S1
            </text>
        </g>
        <rect x="480" y="70" width="40" height="16" fill-opacity="0"
              fill="#dae2f2" stroke="none" pointer-events="none"/>
        <g fill="#000000" font-family="Arial,Helvetica" font-weight="bold"
           text-anchor="middle" font-size="12px">
            <text x="500" y="83">
                Vpulse
            </text>
        </g>
        <path d="M 560 220 L 560 140" fill="none" stroke="#000000"
              stroke-width="2" stroke-miterlimit="10" pointer-events="none"/>
        <rect x="399" y="119" width="2" height="2" fill="#000000" stroke="none"
              transform="rotate(90,400,140)" pointer-events="none"/>
        <path d="M 400 121 L 400 139" fill="#000000" stroke="#000000"
              stroke-width="2" stroke-linecap="square" stroke-miterlimit="10"
              transform="rotate(90,400,140)" pointer-events="none"/>
        <path d="M 389 139.53 L 411 139.53 L 400 158.53 Z" fill="#ffffff"
              stroke="#000000" stroke-width="2" stroke-linejoin="round"
              stroke-linecap="square" stroke-miterlimit="10"
              transform="rotate(90,400,140)" pointer-events="none"/>
        <path d="M 420 140 L 440 140" fill="none" stroke="#000000"
              stroke-width="2" stroke-miterlimit="10" pointer-events="none"/>
        <rect x="209" y="219" width="2" height="2" fill="#000000" stroke="none"
              transform="rotate(90,210,240)" pointer-events="none"/>
        <path d="M 210 221 L 210 239" fill="#000000" stroke="#000000"
              stroke-width="2" stroke-linecap="square" stroke-miterlimit="10"
              transform="rotate(90,210,240)" pointer-events="none"/>
        <path d="M 199 239.53 L 221 239.53 L 210 258.53 Z" fill="#ffffff"
              stroke="#000000" stroke-width="2" stroke-linejoin="round"
              stroke-linecap="square" stroke-miterlimit="10"
              transform="rotate(90,210,240)" pointer-events="none"/>
        <path d="M 230 240 L 250 240" fill="none" stroke="#000000"
              stroke-width="2" stroke-miterlimit="10" pointer-events="none"/>
    </g>
</svg>