<?xml version="1.0" encoding="UTF-8" standalone="no"?>
<!DOCTYPE svg PUBLIC "-//W3C//DTD SVG 1.1//EN" "http://www.w3.org/Graphics/SVG/1.1/DTD/svg11.dtd">
<svg xmlns="http://www.w3.org/2000/svg" xmlns:xlink="http://www.w3.org/1999/xlink" version="1.1" width="497.03999pt" height="149.04pt" viewBox="0 0 497.03999 149.04">
<g enable-background="new">
<clipPath id="cp0">
<path transform="matrix(.24,0,0,.24,0,0)" d="M 0 0 L 2070.8333 0 L 2070.8333 620.3509 L 0 620.3509 Z " fill-rule="evenodd"/>
</clipPath>
<g clip-path="url(#cp0)">
<path transform="matrix(.7192474,0,0,.7192474,0,0)" d="M 0 0 L 691 0 L 691 207 L 0 207 Z " fill="#ffffff"/>
</g>
<clipPath id="cp1">
<path transform="matrix(.24,0,0,.24,0,0)" d="M 0 0 L 2070.8333 0 L 2070.8333 617.35409 L 0 617.35409 Z " fill-rule="evenodd"/>
</clipPath>
<g clip-path="url(#cp1)">
<text xml:space="preserve" transform="matrix(.7192474 0 0 .7192474 0 0)" font-size="12" font-family="ArialMT"><tspan y="146" x="6.9375 14.724609 17.388609">Vin</tspan></text>
<path transform="matrix(.7192474,0,0,.7192474,.3596237,.3596237)" stroke-width="1" stroke-linecap="butt" stroke-miterlimit="10" stroke-linejoin="miter" fill="none" stroke="#000000" d="M 586 141 L 552.9 141 L 552.9 136.8 "/>
<text xml:space="preserve" transform="matrix(.7192474 0 0 .7192474 0 0)" font-size="12" font-family="ArialMT"><tspan y="145" x="592.3594 601.6954 605.69137 613.47659 616.14059 622.81259 629.82058 637.166 643.838 649.838 653.174 657.17 664.178 671.96487 674.62887 681.30087">G(Vin+Vext)+Vint</tspan></text>
</g>
<clipPath id="cp2">
<path transform="matrix(.24,0,0,.24,0,0)" d="M 98.89652 161.83068 L 1657.2659 161.83068 L 1657.2659 542.43246 L 98.89652 542.43246 Z " fill-rule="evenodd"/>
</clipPath>
<g clip-path="url(#cp2)">
<path transform="matrix(-.44952966,.000000000000000054835617,-.000000000000000055051508,-.44776676,500.6861,244.88555)" d="M 540 270 L 595 270 L 650 320 L 595 370 L 540 370 L 540 270 Z " fill="#f39236"/>
<path transform="matrix(-.44952966,.000000000000000054835617,-.000000000000000055051508,-.44776676,500.6861,244.88555)" stroke-width="3" stroke-linecap="butt" stroke-miterlimit="10" stroke-linejoin="miter" fill="none" stroke="#000000" d="M 540 270 L 595 270 L 650 320 L 595 370 L 540 370 L 540 270 Z "/>
<text xml:space="preserve" transform="matrix(.44952966 0 0 .44776676 -34.25416 -41.685194)" font-size="12" font-family="Arial" font-weight="bold"><tspan y="323" x="591.001 599.665 608.329">ADC</tspan></text>
<path transform="matrix(.44952966,0,0,.44776676,-34.25416,-41.685194)" d="M 270 270 L 370 320 L 270 370 L 270 270 Z " fill="#96cea7"/>
<path transform="matrix(.44952966,0,0,.44776676,-34.25416,-41.685194)" stroke-width="3" stroke-linecap="butt" stroke-miterlimit="10" stroke-linejoin="miter" fill="none" stroke="#000000" d="M 270 270 L 370 320 L 270 370 L 270 270 Z "/>
<text xml:space="preserve" transform="matrix(.44952966 0 0 .44776676 -34.25416 -41.685194)" font-size="12" font-family="Arial" font-weight="bold"><tspan y="323" x="289.83399 298.498 305.83 309.826 313.822 320.494">Buffer</tspan></text>
<path transform="matrix(.44952966,0,0,.44776676,-34.25416,-41.685194)" d="M 410 280 L 500 280 L 500 360 L 410 360 Z " fill="#c384bb"/>
<path transform="matrix(.44952966,0,0,.44776676,-34.25416,-41.685194)" stroke-width="2.4" stroke-linecap="butt" stroke-miterlimit="4" stroke-linejoin="miter" fill="none" stroke="#000000" d="M 410 280 L 500 280 L 500 360 L 410 360 Z "/>
<path transform="matrix(.44952966,0,0,.44776676,-34.25416,-41.685194)" stroke-width="1.6" stroke-linecap="butt" stroke-miterlimit="10" stroke-linejoin="miter" fill="none" stroke="#000000" d=""/>
<path transform="matrix(.44952966,0,0,.44776676,-34.25416,-41.685194)" stroke-width="1.6" stroke-linecap="butt" stroke-miterlimit="10" stroke-linejoin="miter" fill="none" stroke="#000000" d=""/>
<path transform="matrix(.44952966,0,0,.44776676,-34.25416,-41.685194)" stroke-width="1.6" stroke-linecap="butt" stroke-miterlimit="10" stroke-linejoin="miter" fill="none" stroke="#000000" d=""/>
<path transform="matrix(.44952966,0,0,.44776676,-34.25416,-41.685194)" stroke-width="1.6" stroke-linecap="butt" stroke-miterlimit="10" stroke-linejoin="miter" fill="none" stroke="#000000" d=""/>
<path transform="matrix(.44952966,0,0,.44776676,-34.25416,-41.685194)" stroke-width="1.6" stroke-linecap="butt" stroke-miterlimit="10" stroke-linejoin="miter" fill="none" stroke="#000000" d=""/>
<path transform="matrix(.44952966,0,0,.44776676,-34.25416,-41.685194)" stroke-width="1.6" stroke-linecap="butt" stroke-miterlimit="10" stroke-linejoin="miter" fill="none" stroke="#000000" d=""/>
<path transform="matrix(.44952966,0,0,.44776676,-34.25416,-41.685194)" stroke-width="1.6" stroke-linecap="butt" stroke-miterlimit="10" stroke-linejoin="miter" fill="none" stroke="#000000" d=""/>
<path transform="matrix(.44952966,0,0,.44776676,-34.25416,-41.685194)" stroke-width="1.6" stroke-linecap="butt" stroke-miterlimit="10" stroke-linejoin="miter" fill="none" stroke="#000000" d=""/>
<path transform="matrix(.44952966,0,0,.44776676,-34.25416,-41.685194)" stroke-width="1.6" stroke-linecap="butt" stroke-miterlimit="10" stroke-linejoin="miter" fill="none" stroke="#000000" d=""/>
<path transform="matrix(.44952966,0,0,.44776676,-34.25416,-41.685194)" stroke-width="1.6" stroke-linecap="butt" stroke-miterlimit="10" stroke-linejoin="miter" fill="none" stroke="#000000" d=""/>
<path transform="matrix(.44952966,0,0,.44776676,-34.25416,-41.685194)" stroke-width="1.6" stroke-linecap="butt" stroke-miterlimit="10" stroke-linejoin="miter" fill="none" stroke="#000000" d=""/>
<path transform="matrix(.44952966,0,0,.44776676,-34.25416,-41.685194)" stroke-width="1.6" stroke-linecap="butt" stroke-miterlimit="10" stroke-linejoin="miter" fill="none" stroke="#000000" d=""/>
<path transform="matrix(.44952966,0,0,.44776676,-34.25416,-41.685194)" stroke-width="1.6" stroke-linecap="butt" stroke-miterlimit="10" stroke-linejoin="miter" fill="none" stroke="#000000" d=""/>
<path transform="matrix(.44952966,0,0,.44776676,-34.25416,-41.685194)" stroke-width="1.6" stroke-linecap="butt" stroke-miterlimit="10" stroke-linejoin="miter" fill="none" stroke="#000000" d=""/>
<path transform="matrix(.44952966,0,0,.44776676,-34.25416,-41.685194)" stroke-width="1.6" stroke-linecap="butt" stroke-miterlimit="10" stroke-linejoin="miter" fill="none" stroke="#000000" d=""/>
<path transform="matrix(.44952966,0,0,.44776676,-34.25416,-41.685194)" stroke-width="1.6" stroke-linecap="butt" stroke-miterlimit="10" stroke-linejoin="miter" fill="none" stroke="#000000" d=""/>
<path transform="matrix(.44952966,0,0,.44776676,-34.25416,-41.685194)" stroke-width="1.6" stroke-linecap="butt" stroke-miterlimit="10" stroke-linejoin="miter" fill="none" stroke="#000000" d=""/>
<path transform="matrix(.44952966,0,0,.44776676,-34.25416,-41.685194)" stroke-width="1.6" stroke-linecap="butt" stroke-miterlimit="10" stroke-linejoin="miter" fill="none" stroke="#000000" d=""/>
<path transform="matrix(.44952966,0,0,.44776676,-34.25416,-41.685194)" stroke-width="1.6" stroke-linecap="butt" stroke-miterlimit="10" stroke-linejoin="miter" fill="none" stroke="#000000" d=""/>
<path transform="matrix(.44952966,0,0,.44776676,-34.25416,-41.685194)" stroke-width="1.6" stroke-linecap="butt" stroke-miterlimit="10" stroke-linejoin="miter" fill="none" stroke="#000000" d=""/>
<path transform="matrix(.44952966,0,0,.44776676,-34.25416,-41.685194)" stroke-width="1.6" stroke-linecap="butt" stroke-miterlimit="10" stroke-linejoin="miter" fill="none" stroke="#000000" d=""/>
<path transform="matrix(.44952966,0,0,.44776676,-34.25416,-41.685194)" stroke-width="1.6" stroke-linecap="butt" stroke-miterlimit="10" stroke-linejoin="miter" fill="none" stroke="#000000" d=""/>
<path transform="matrix(.44952966,0,0,.44776676,-34.25416,-41.685194)" stroke-width="1.6" stroke-linecap="butt" stroke-miterlimit="10" stroke-linejoin="miter" fill="none" stroke="#000000" d=""/>
<path transform="matrix(.44952966,0,0,.44776676,-34.25416,-41.685194)" stroke-width="1.6" stroke-linecap="butt" stroke-miterlimit="10" stroke-linejoin="miter" fill="none" stroke="#000000" d=""/>
<text xml:space="preserve" transform="matrix(.44952966 0 0 .44776676 -34.25416 -41.685194)" font-size="12" font-family="Arial" font-weight="bold"><tspan y="321" x="439.50294 446.83494 450.17094 453.50694 457.50294 462.17094">Filtro</tspan></text>
<path transform="matrix(.44952966,0,0,.44776676,-34.25416,-41.685194)" d="M 700 270 L 820 270 L 820 370 L 700 370 Z " fill="#6ccefb"/>
<path transform="matrix(.44952966,0,0,.44776676,-34.25416,-41.685194)" stroke-width="3" stroke-linecap="butt" stroke-miterlimit="4" stroke-linejoin="miter" fill="none" stroke="#000000" d="M 700 270 L 820 270 L 820 370 L 700 370 Z "/>
<path transform="matrix(.44952966,0,0,.44776676,-34.25416,-41.685194)" stroke-width="2" stroke-linecap="butt" stroke-miterlimit="10" stroke-linejoin="miter" fill="none" stroke="#000000" d=""/>
<path transform="matrix(.44952966,0,0,.44776676,-34.25416,-41.685194)" stroke-width="2" stroke-linecap="butt" stroke-miterlimit="10" stroke-linejoin="miter" fill="none" stroke="#000000" d=""/>
<path transform="matrix(.44952966,0,0,.44776676,-34.25416,-41.685194)" stroke-width="2" stroke-linecap="butt" stroke-miterlimit="10" stroke-linejoin="miter" fill="none" stroke="#000000" d=""/>
<path transform="matrix(.44952966,0,0,.44776676,-34.25416,-41.685194)" stroke-width="2" stroke-linecap="butt" stroke-miterlimit="10" stroke-linejoin="miter" fill="none" stroke="#000000" d=""/>
<path transform="matrix(.44952966,0,0,.44776676,-34.25416,-41.685194)" stroke-width="2" stroke-linecap="butt" stroke-miterlimit="10" stroke-linejoin="miter" fill="none" stroke="#000000" d=""/>
<path transform="matrix(.44952966,0,0,.44776676,-34.25416,-41.685194)" stroke-width="2" stroke-linecap="butt" stroke-miterlimit="10" stroke-linejoin="miter" fill="none" stroke="#000000" d=""/>
<path transform="matrix(.44952966,0,0,.44776676,-34.25416,-41.685194)" stroke-width="2" stroke-linecap="butt" stroke-miterlimit="10" stroke-linejoin="miter" fill="none" stroke="#000000" d=""/>
<path transform="matrix(.44952966,0,0,.44776676,-34.25416,-41.685194)" stroke-width="2" stroke-linecap="butt" stroke-miterlimit="10" stroke-linejoin="miter" fill="none" stroke="#000000" d=""/>
<path transform="matrix(.44952966,0,0,.44776676,-34.25416,-41.685194)" stroke-width="2" stroke-linecap="butt" stroke-miterlimit="10" stroke-linejoin="miter" fill="none" stroke="#000000" d=""/>
<path transform="matrix(.44952966,0,0,.44776676,-34.25416,-41.685194)" stroke-width="2" stroke-linecap="butt" stroke-miterlimit="10" stroke-linejoin="miter" fill="none" stroke="#000000" d=""/>
<path transform="matrix(.44952966,0,0,.44776676,-34.25416,-41.685194)" stroke-width="2" stroke-linecap="butt" stroke-miterlimit="10" stroke-linejoin="miter" fill="none" stroke="#000000" d=""/>
<path transform="matrix(.44952966,0,0,.44776676,-34.25416,-41.685194)" stroke-width="2" stroke-linecap="butt" stroke-miterlimit="10" stroke-linejoin="miter" fill="none" stroke="#000000" d=""/>
<path transform="matrix(.44952966,0,0,.44776676,-34.25416,-41.685194)" stroke-width="2" stroke-linecap="butt" stroke-miterlimit="10" stroke-linejoin="miter" fill="none" stroke="#000000" d=""/>
<path transform="matrix(.44952966,0,0,.44776676,-34.25416,-41.685194)" stroke-width="2" stroke-linecap="butt" stroke-miterlimit="10" stroke-linejoin="miter" fill="none" stroke="#000000" d=""/>
<path transform="matrix(.44952966,0,0,.44776676,-34.25416,-41.685194)" stroke-width="2" stroke-linecap="butt" stroke-miterlimit="10" stroke-linejoin="miter" fill="none" stroke="#000000" d=""/>
<path transform="matrix(.44952966,0,0,.44776676,-34.25416,-41.685194)" stroke-width="2" stroke-linecap="butt" stroke-miterlimit="10" stroke-linejoin="miter" fill="none" stroke="#000000" d=""/>
<path transform="matrix(.44952966,0,0,.44776676,-34.25416,-41.685194)" stroke-width="2" stroke-linecap="butt" stroke-miterlimit="10" stroke-linejoin="miter" fill="none" stroke="#000000" d=""/>
<path transform="matrix(.44952966,0,0,.44776676,-34.25416,-41.685194)" stroke-width="2" stroke-linecap="butt" stroke-miterlimit="10" stroke-linejoin="miter" fill="none" stroke="#000000" d=""/>
<path transform="matrix(.44952966,0,0,.44776676,-34.25416,-41.685194)" stroke-width="2" stroke-linecap="butt" stroke-miterlimit="10" stroke-linejoin="miter" fill="none" stroke="#000000" d=""/>
<path transform="matrix(.44952966,0,0,.44776676,-34.25416,-41.685194)" stroke-width="2" stroke-linecap="butt" stroke-miterlimit="10" stroke-linejoin="miter" fill="none" stroke="#000000" d=""/>
<path transform="matrix(.44952966,0,0,.44776676,-34.25416,-41.685194)" stroke-width="2" stroke-linecap="butt" stroke-miterlimit="10" stroke-linejoin="miter" fill="none" stroke="#000000" d=""/>
<path transform="matrix(.44952966,0,0,.44776676,-34.25416,-41.685194)" stroke-width="2" stroke-linecap="butt" stroke-miterlimit="10" stroke-linejoin="miter" fill="none" stroke="#000000" d=""/>
<path transform="matrix(.44952966,0,0,.44776676,-34.25416,-41.685194)" stroke-width="2" stroke-linecap="butt" stroke-miterlimit="10" stroke-linejoin="miter" fill="none" stroke="#000000" d=""/>
<path transform="matrix(.44952966,0,0,.44776676,-34.25416,-41.685194)" stroke-width="2" stroke-linecap="butt" stroke-miterlimit="10" stroke-linejoin="miter" fill="none" stroke="#000000" d=""/>
<text xml:space="preserve" transform="matrix(.44952966 0 0 .44776676 -34.25416 -41.685194)" font-size="12" font-family="Arial" font-weight="bold"><tspan y="321" x="709.16409 719.16006 722.49606 729.168 733.83609 741.168 747.84 755.172 762.50399 766.49996 771.16799 778.49996 781.83596 788.50796 795.8399 803.1719">Microcontrolador</tspan></text>
<path transform="matrix(.44952966,0,0,.44776676,-34.25416,-41.685194)" stroke-width="2" stroke-linecap="butt" stroke-miterlimit="10" stroke-linejoin="miter" fill="none" stroke="#000000" d="M 370 320 L 410 320 "/>
<path transform="matrix(.44952966,0,0,.44776676,-34.25416,-41.685194)" stroke-width="2" stroke-linecap="butt" stroke-miterlimit="10" stroke-linejoin="miter" fill="none" stroke="#000000" d="M 540 320 L 500 320 "/>
<path transform="matrix(.44952966,0,0,.44776676,-34.25416,-41.685194)" stroke-width="2" stroke-linecap="butt" stroke-miterlimit="10" stroke-linejoin="miter" fill="none" stroke="#000000" d="M 650 320 L 700 320 "/>
<path transform="matrix(.44952966,0,0,.44776676,-34.25416,-41.685194)" d="M 129 319 L 131 319 L 131 321 L 129 321 Z "/>
<path transform="matrix(.44952966,0,0,.44776676,-34.25416,-41.685194)" d="M 249 319 L 251 319 L 251 321 L 249 321 Z "/>
<path transform="matrix(.44952966,0,0,.44776676,-34.25416,-41.685194)" d="M 149.92 279.89 L 229.92 279.89 L 229.92 359.89 L 149.92 359.89 Z " fill="#ffffff"/>
<path transform="matrix(.44952966,0,0,.44776676,-34.25416,-41.685194)" stroke-width="2" stroke-linecap="butt" stroke-miterlimit="4" stroke-linejoin="miter" fill="none" stroke="#000000" d="M 149.92 279.89 L 229.92 279.89 L 229.92 359.89 L 149.92 359.89 Z "/>
<path transform="matrix(.44952966,0,0,.44776676,-34.25416,-41.685194)" stroke-width="1" stroke-linecap="square" stroke-miterlimit="10" stroke-linejoin="miter" fill="none" stroke="#000000" d="M 158.72 333.89 L 160.72 325.89 L 162.72 331.89 L 166.72 319.89 L 170.72 333.89 L 172.72 343.89 L 174.72 325.89 L 176.72 313.89 L 178.72 307.89 L 180.72 319.89 L 182.72 329.89 L 186.72 339.89 L 188.72 329.89 L 190.72 321.89 L 192.72 327.89 L 194.72 337.89 L 198.72 325.89 L 202.72 335.89 L 206.72 347.89 L 210.72 333.89 L 210.72 327.89 L 214.72 319.89 L 216.72 329.89 L 220.72 339.89 "/>
<text xml:space="preserve" transform="matrix(.44952966 0 0 .44776676 -34.25416 -41.685194)" font-size="10" font-family="ArialMT"><tspan y="295.89" x="175.92 183.14 188.7 190.92 195.92">Noise</tspan></text>
<path transform="matrix(.44952966,0,0,.44776676,-34.25416,-41.685194)" stroke-width="2" stroke-linecap="square" stroke-miterlimit="10" stroke-linejoin="miter" fill="none" stroke="#000000" d="M 131 320 L 149 320 "/>
<path transform="matrix(.44952966,0,0,.44776676,-34.25416,-41.685194)" stroke-width="2" stroke-linecap="square" stroke-miterlimit="10" stroke-linejoin="miter" fill="none" stroke="#000000" d="M 231 320 L 249 320 "/>
<text xml:space="preserve" transform="matrix(.44952966 0 0 .44776676 -34.25416 -41.685194)" font-size="12" font-family="Arial" font-weight="bold"><tspan y="271" x="150.93848 158.27048 165.60248 172.27448 179.60648 183.60248 190.27448 193.61048 200.71973 208.05173 211.38773 215.38373 222.05573 225.39173">Fuente Voltaje</tspan></text>
<text xml:space="preserve" transform="matrix(.44952966 0 0 .44776676 -34.25416 -41.685194)" font-size="12" font-family="Arial" font-weight="bold"><tspan y="381" x="153.49903 162.16303 169.49503 172.83103 180.16303 187.49503 190.83103 198.83502 205.50702 209.50302 216.17502 220.84302 228.17502">Ruido Externo</tspan></text>
<path transform="matrix(.44952966,0,0,.44776676,-34.25416,-41.685194)" stroke-width="2" stroke-linecap="butt" stroke-miterlimit="10" stroke-linejoin="miter" fill="none" stroke="#000000" d="M 250 320 L 270 320 "/>
<path transform="matrix(.44952966,0,0,.44776676,-34.25416,-41.685194)" d="M 410 200 L 510 200 L 510 240 L 410 240 Z " fill="#dea331"/>
<path transform="matrix(.44952966,0,0,.44776676,-34.25416,-41.685194)" stroke-width="1.2" stroke-linecap="butt" stroke-miterlimit="4" stroke-linejoin="miter" fill="none" stroke="#000000" d="M 410 200 L 510 200 L 510 240 L 410 240 Z "/>
<path transform="matrix(.44952966,0,0,.44776676,-34.25416,-41.685194)" stroke-width="1" stroke-linecap="butt" stroke-miterlimit="10" stroke-linejoin="miter" fill="none" stroke="#000000" d=""/>
<path transform="matrix(.44952966,0,0,.44776676,-34.25416,-41.685194)" stroke-width="1" stroke-linecap="butt" stroke-miterlimit="10" stroke-linejoin="miter" fill="none" stroke="#000000" d=""/>
<path transform="matrix(.44952966,0,0,.44776676,-34.25416,-41.685194)" stroke-width="1" stroke-linecap="butt" stroke-miterlimit="10" stroke-linejoin="miter" fill="none" stroke="#000000" d=""/>
<path transform="matrix(.44952966,0,0,.44776676,-34.25416,-41.685194)" stroke-width="1" stroke-linecap="butt" stroke-miterlimit="10" stroke-linejoin="miter" fill="none" stroke="#000000" d=""/>
<path transform="matrix(.44952966,0,0,.44776676,-34.25416,-41.685194)" stroke-width="1" stroke-linecap="butt" stroke-miterlimit="10" stroke-linejoin="miter" fill="none" stroke="#000000" d=""/>
<path transform="matrix(.44952966,0,0,.44776676,-34.25416,-41.685194)" stroke-width="1" stroke-linecap="butt" stroke-miterlimit="10" stroke-linejoin="miter" fill="none" stroke="#000000" d=""/>
<path transform="matrix(.44952966,0,0,.44776676,-34.25416,-41.685194)" stroke-width="1" stroke-linecap="butt" stroke-miterlimit="10" stroke-linejoin="miter" fill="none" stroke="#000000" d=""/>
<path transform="matrix(.44952966,0,0,.44776676,-34.25416,-41.685194)" stroke-width="1" stroke-linecap="butt" stroke-miterlimit="10" stroke-linejoin="miter" fill="none" stroke="#000000" d=""/>
<path transform="matrix(.44952966,0,0,.44776676,-34.25416,-41.685194)" stroke-width="1" stroke-linecap="butt" stroke-miterlimit="10" stroke-linejoin="miter" fill="none" stroke="#000000" d=""/>
<path transform="matrix(.44952966,0,0,.44776676,-34.25416,-41.685194)" stroke-width="1" stroke-linecap="butt" stroke-miterlimit="10" stroke-linejoin="miter" fill="none" stroke="#000000" d=""/>
<path transform="matrix(.44952966,0,0,.44776676,-34.25416,-41.685194)" stroke-width="1" stroke-linecap="butt" stroke-miterlimit="10" stroke-linejoin="miter" fill="none" stroke="#000000" d=""/>
<path transform="matrix(.44952966,0,0,.44776676,-34.25416,-41.685194)" stroke-width="1" stroke-linecap="butt" stroke-miterlimit="10" stroke-linejoin="miter" fill="none" stroke="#000000" d=""/>
<path transform="matrix(.44952966,0,0,.44776676,-34.25416,-41.685194)" stroke-width="1" stroke-linecap="butt" stroke-miterlimit="10" stroke-linejoin="miter" fill="none" stroke="#000000" d=""/>
<path transform="matrix(.44952966,0,0,.44776676,-34.25416,-41.685194)" stroke-width="1" stroke-linecap="butt" stroke-miterlimit="10" stroke-linejoin="miter" fill="none" stroke="#000000" d=""/>
<path transform="matrix(.44952966,0,0,.44776676,-34.25416,-41.685194)" stroke-width="1" stroke-linecap="butt" stroke-miterlimit="10" stroke-linejoin="miter" fill="none" stroke="#000000" d=""/>
<path transform="matrix(.44952966,0,0,.44776676,-34.25416,-41.685194)" stroke-width="1" stroke-linecap="butt" stroke-miterlimit="10" stroke-linejoin="miter" fill="none" stroke="#000000" d=""/>
<path transform="matrix(.44952966,0,0,.44776676,-34.25416,-41.685194)" stroke-width="1" stroke-linecap="butt" stroke-miterlimit="10" stroke-linejoin="miter" fill="none" stroke="#000000" d=""/>
<path transform="matrix(.44952966,0,0,.44776676,-34.25416,-41.685194)" stroke-width="1" stroke-linecap="butt" stroke-miterlimit="10" stroke-linejoin="miter" fill="none" stroke="#000000" d=""/>
<path transform="matrix(.44952966,0,0,.44776676,-34.25416,-41.685194)" stroke-width="1" stroke-linecap="butt" stroke-miterlimit="10" stroke-linejoin="miter" fill="none" stroke="#000000" d=""/>
<path transform="matrix(.44952966,0,0,.44776676,-34.25416,-41.685194)" stroke-width="1" stroke-linecap="butt" stroke-miterlimit="10" stroke-linejoin="miter" fill="none" stroke="#000000" d=""/>
<path transform="matrix(.44952966,0,0,.44776676,-34.25416,-41.685194)" stroke-width="1" stroke-linecap="butt" stroke-miterlimit="10" stroke-linejoin="miter" fill="none" stroke="#000000" d=""/>
<path transform="matrix(.44952966,0,0,.44776676,-34.25416,-41.685194)" stroke-width="1" stroke-linecap="butt" stroke-miterlimit="10" stroke-linejoin="miter" fill="none" stroke="#000000" d=""/>
<path transform="matrix(.44952966,0,0,.44776676,-34.25416,-41.685194)" stroke-width="1" stroke-linecap="butt" stroke-miterlimit="10" stroke-linejoin="miter" fill="none" stroke="#000000" d=""/>
<path transform="matrix(.44952966,0,0,.44776676,-34.25416,-41.685194)" stroke-width="1" stroke-linecap="butt" stroke-miterlimit="10" stroke-linejoin="miter" fill="none" stroke="#000000" d=""/>
<text xml:space="preserve" transform="matrix(.44952966 0 0 .44776676 -34.25416 -41.685194)" font-size="12" font-family="Arial" font-weight="bold"><tspan y="191" x="430.33106 438.99507 445.66706 452.99906 460.33106 463.66706 470.33906 477.67106 485.00306">Regulador</tspan></text>
<path transform="matrix(.44952966,0,0,.44776676,-34.25416,-41.685194)" stroke-width="2" stroke-linecap="butt" stroke-miterlimit="10" stroke-linejoin="miter" fill="none" stroke="#000000" d="M 410 223 L 330 223 C 323.33335 223 320 226.33333 320 233 L 320 270 "/>
<path transform="matrix(.44952966,0,0,.44776676,-34.25416,-41.685194)" stroke-width="2" stroke-linecap="butt" stroke-miterlimit="10" stroke-linejoin="miter" fill="none" stroke="#000000" d="M 510 222 L 613 222 C 619.6667 222 623 225.33333 623 232 L 623 270 "/>
<path transform="matrix(.44952966,0,0,.44776676,-34.25416,-41.685194)" stroke-width="2" stroke-linecap="butt" stroke-miterlimit="10" stroke-linejoin="miter" fill="none" stroke="#000000" d="M 767 270 L 764 270 C 762 270 761 266.66667 761 260 L 761 230 C 761 223.33333 757.6667 220 751 220 L 510 220 "/>
<path transform="matrix(.44952966,0,0,.44776676,-34.25416,-41.685194)" d="M 839 319 L 841 319 L 841 321 L 839 321 Z "/>
<path transform="matrix(.44952966,0,0,.44776676,-34.25416,-41.685194)" d="M 959 319 L 961 319 L 961 321 L 959 321 Z "/>
<path transform="matrix(.44952966,0,0,.44776676,-34.25416,-41.685194)" d="M 859.92 279.89 L 939.92 279.89 L 939.92 359.89 L 859.92 359.89 Z " fill="#ffffff"/>
<path transform="matrix(.44952966,0,0,.44776676,-34.25416,-41.685194)" stroke-width="2" stroke-linecap="butt" stroke-miterlimit="4" stroke-linejoin="miter" fill="none" stroke="#000000" d="M 859.92 279.89 L 939.92 279.89 L 939.92 359.89 L 859.92 359.89 Z "/>
<path transform="matrix(.44952966,0,0,.44776676,-34.25416,-41.685194)" stroke-width="1" stroke-linecap="square" stroke-miterlimit="10" stroke-linejoin="miter" fill="none" stroke="#000000" d="M 868.72 333.89 L 870.72 325.89 L 872.72 331.89 L 876.72 319.89 L 880.72 333.89 L 882.72 343.89 L 884.72 325.89 L 886.72 313.89 L 888.72 307.89 L 890.72 319.89 L 892.72 329.89 L 896.72 339.89 L 898.72 329.89 L 900.72 321.89 L 902.72 327.89 L 904.72 337.89 L 908.72 325.89 L 912.72 335.89 L 916.72 347.89 L 920.72 333.89 L 920.72 327.89 L 924.72 319.89 L 926.72 329.89 L 930.72 339.89 "/>
<text xml:space="preserve" transform="matrix(.44952966 0 0 .44776676 -34.25416 -41.685194)" font-size="10" font-family="ArialMT"><tspan y="295.89" x="885.92 893.13998 898.69998 900.9199 905.9199">Noise</tspan></text>
<path transform="matrix(.44952966,0,0,.44776676,-34.25416,-41.685194)" stroke-width="2" stroke-linecap="square" stroke-miterlimit="10" stroke-linejoin="miter" fill="none" stroke="#000000" d="M 841 320 L 859 320 "/>
<path transform="matrix(.44952966,0,0,.44776676,-34.25416,-41.685194)" stroke-width="2" stroke-linecap="square" stroke-miterlimit="10" stroke-linejoin="miter" fill="none" stroke="#000000" d="M 941 320 L 959 320 "/>
<text xml:space="preserve" transform="matrix(.44952966 0 0 .44776676 -34.25416 -41.685194)" font-size="12" font-family="Arial" font-weight="bold"><tspan y="271" x="854.4385 861.77047 869.1024 875.7744 883.1064 887.10238 893.77438 897.11038 904.2197 911.5517 914.8877 918.88369 925.55569 928.89169">Fuente Voltaje</tspan></text>
<text xml:space="preserve" transform="matrix(.44952966 0 0 .44776676 -34.25416 -41.685194)" font-size="12" font-family="Arial" font-weight="bold"><tspan y="381" x="864.00588 872.66989 880.00186 883.3378 890.6698 898.0018 901.33779 904.67379 912.00576 916.0017 922.6737 927.34176 934.6737">Ruido interno</tspan></text>
<path transform="matrix(.44952966,0,0,.44776676,-34.25416,-41.685194)" stroke-width="2" stroke-linecap="butt" stroke-miterlimit="10" stroke-linejoin="miter" fill="none" stroke="#000000" d="M 840 320 L 820 320 "/>
</g>
<clipPath id="cp3">
<path transform="matrix(.24,0,0,.24,0,0)" d="M 0 0 L 2070.8333 0 L 2070.8333 617.35409 L 0 617.35409 Z " fill-rule="evenodd"/>
</clipPath>
<g clip-path="url(#cp3)">
<path transform="matrix(.7192474,0,0,.7192474,.3596237,.3596237)" d="M 140.45 46.5 L 143.45 46.5 L 143.45 47.5 L 140.45 47.5 L 140.45 46.5 Z M 146.45 46.5 L 149.45 46.5 L 149.45 47.5 L 146.45 47.5 L 146.45 46.5 Z M 152.45 46.5 L 155.45 46.5 L 155.45 47.5 L 152.45 47.5 L 152.45 46.5 Z M 158.45 46.5 L 161.45 46.5 L 161.45 47.5 L 158.45 47.5 L 158.45 46.5 Z M 164.45 46.5 L 167.45 46.5 L 167.45 47.5 L 164.45 47.5 L 164.45 46.5 Z M 170.45 46.5 L 173.45 46.5 L 173.45 47.5 L 170.45 47.5 L 170.45 46.5 Z M 176.45 46.5 L 179.45 46.5 L 179.45 47.5 L 176.45 47.5 L 176.45 46.5 Z M 182.45 46.5 L 185.45 46.5 L 185.45 47.5 L 182.45 47.5 L 182.45 46.5 Z M 188.45 46.5 L 191.45 46.5 L 191.45 47.5 L 188.45 47.5 L 188.45 46.5 Z M 194.45 46.5 L 197.45 46.5 L 197.45 47.5 L 194.45 47.5 L 194.45 46.5 Z M 200.45 46.5 L 203.45 46.5 L 203.45 47.5 L 200.45 47.5 L 200.45 46.5 Z M 206.45 46.5 L 209.45 46.5 L 209.45 47.5 L 206.45 47.5 L 206.45 46.5 Z M 212.45 46.5 L 215.44998 46.5 L 215.44998 47.5 L 212.45 47.5 L 212.45 46.5 Z M 218.45001 46.5 L 221.45 46.5 L 221.45 47.5 L 218.45001 47.5 L 218.45001 46.5 Z M 224.45 46.5 L 227.45 46.5 L 227.45 47.5 L 224.45 47.5 L 224.45 46.5 Z M 230.45 46.5 L 233.45 46.5 L 233.45 47.5 L 230.45 47.5 L 230.45 46.5 Z M 236.45 46.5 L 239.45 46.5 L 239.45 47.5 L 236.45 47.5 L 236.45 46.5 Z M 242.45 46.5 L 245.45 46.5 L 245.45 47.5 L 242.45 47.5 L 242.45 46.5 Z M 248.45 46.5 L 251.45 46.5 L 251.45 47.5 L 248.45 47.5 L 248.45 46.5 Z M 254.45 46.5 L 257.45 46.5 L 257.45 47.5 L 254.45 47.5 L 254.45 46.5 Z M 260.45 46.5 L 263.45 46.5 L 263.45 47.5 L 260.45 47.5 L 260.45 46.5 Z M 266.45 46.5 L 269.45 46.5 L 269.45 47.5 L 266.45 47.5 L 266.45 46.5 Z M 272.45 46.5 L 275.45 46.5 L 275.45 47.5 L 272.45 47.5 L 272.45 46.5 Z M 278.45 46.5 L 281.45 46.5 L 281.45 47.5 L 278.45 47.5 L 278.45 46.5 Z M 284.45 46.5 L 287.45 46.5 L 287.45 47.5 L 284.45 47.5 L 284.45 46.5 Z M 290.45 46.5 L 293.45 46.5 L 293.45 47.5 L 290.45 47.5 L 290.45 46.5 Z M 296.44999 46.5 L 299.45 46.5 L 299.45 47.5 L 296.44999 47.5 L 296.44999 46.5 Z M 302.45 46.5 L 305.45 46.5 L 305.45 47.5 L 302.45 47.5 L 302.45 46.5 Z M 308.45 46.5 L 311.45 46.5 L 311.45 47.5 L 308.45 47.5 L 308.45 46.5 Z M 314.45 46.5 L 317.45 46.5 L 317.45 47.5 L 314.45 47.5 L 314.45 46.5 Z M 320.45 46.5 L 323.45 46.5 L 323.45 47.5 L 320.45 47.5 L 320.45 46.5 Z M 326.45 46.5 L 329.45 46.5 L 329.45 47.5 L 326.45 47.5 L 326.45 46.5 Z M 332.45 46.5 L 335.45 46.5 L 335.45 47.5 L 332.45 47.5 L 332.45 46.5 Z M 338.45 46.5 L 341.45 46.5 L 341.45 47.5 L 338.45 47.5 L 338.45 46.5 Z M 344.45 46.5 L 347.45 46.5 L 347.45 47.5 L 344.45 47.5 L 344.45 46.5 Z M 350.45 46.5 L 353.45 46.5 L 353.45 47.5 L 350.45 47.5 L 350.45 46.5 Z M 356.45 46.5 L 359.45 46.5 L 359.45 47.5 L 356.45 47.5 L 356.45 46.5 Z M 362.45 46.5 L 365.45 46.5 L 365.45 47.5 L 362.45 47.5 L 362.45 46.5 Z M 368.45 46.5 L 371.45 46.5 L 371.45 47.5 L 368.45 47.5 L 368.45 46.5 Z M 374.45 46.5 L 377.45 46.5 L 377.45 47.5 L 374.45 47.5 L 374.45 46.5 Z M 380.45 46.5 L 383.45 46.5 L 383.45 47.5 L 380.45 47.5 L 380.45 46.5 Z M 386.45 46.5 L 389.45 46.5 L 389.45 47.5 L 386.45 47.5 L 386.45 46.5 Z M 392.45 46.5 L 395.45 46.5 L 395.45 47.5 L 392.45 47.5 L 392.45 46.5 Z M 398.45 46.5 L 401.45 46.5 L 401.45 47.5 L 398.45 47.5 L 398.45 46.5 Z M 404.45 46.5 L 407.45 46.5 L 407.45 47.5 L 404.45 47.5 L 404.45 46.5 Z M 410.45 46.5 L 413.45 46.5 L 413.45 47.5 L 410.45 47.5 L 410.45 46.5 Z M 416.45 46.5 L 419.45 46.5 L 419.45 47.5 L 416.45 47.5 L 416.45 46.5 Z M 422.45 46.5 L 425.45 46.5 L 425.45 47.5 L 422.45 47.5 L 422.45 46.5 Z M 428.45 46.5 L 431.45 46.5 L 431.45 47.5 L 428.45 47.5 L 428.45 46.5 Z M 434.45 46.5 L 437.45 46.5 L 437.45 47.5 L 434.45 47.5 L 434.45 46.5 Z M 440.45 46.5 L 443.45 46.5 L 443.45 47.5 L 440.45 47.5 L 440.45 46.5 Z M 446.45 46.5 L 449.45 46.5 L 449.45 47.5 L 446.45 47.5 L 446.45 46.5 Z M 452.45 46.5 L 453.55 46.5 C 454.1722 46.499994 454.79335 46.5264 455.41337 46.57923 L 455.32847 47.575624 C 454.73667 47.525205 454.14384 47.499998 453.55 47.5 L 452.45 47.5 L 452.45 46.5 Z M 458.43968 47.05155 C 459.47944 47.289148 460.49638 47.600824 461.49046 47.986577 L 461.1287 48.91885 C 460.1799 48.550664 459.2093 48.253187 458.2169 48.02642 L 458.43968 47.05155 Z M 464.2504 49.284833 C 465.1545 49.789628 466.01844 50.35545 466.8422 50.982309 L 466.2366 51.778108 C 465.4503 51.179765 464.62574 50.639719 463.7629 50.157964 L 464.2504 49.284833 Z M 469.1901 53.049024 C 469.92317 53.793478 470.59959 54.58617 471.21937 55.427106 L 470.41438 56.02039 C 469.82286 55.217767 469.17726 54.46119 468.47758 53.750669 L 469.1901 53.049024 Z M 472.8745 58.04013 C 473.36076 58.942869 473.7817 59.875059 474.1374 60.8367 L 473.19947 61.183549 C 472.86003 60.26564 472.45826 59.37592 471.99415 58.51439 L 472.8745 58.04013 Z M 475.02104 63.88961 C 475.23274 64.88584 475.3743 65.891887 475.44575 66.90773 L 474.44819 66.977939 C 474.37995 66.00818 474.24485 65.048007 474.04289 64.09741 L 475.02104 63.88961 Z M 475.5 69.87355 L 475.5 72.87355 L 474.5 72.87355 L 474.5 69.87355 L 475.5 69.87355 Z M 475.5 75.87355 L 475.5 78.87355 L 474.5 78.87355 L 474.5 75.87355 L 475.5 75.87355 Z M 475.5 81.87355 L 475.5 84.87355 L 474.5 84.87355 L 474.5 81.87355 L 475.5 81.87355 Z M 475.5 87.87355 L 475.5 90.87355 L 474.5 90.87355 L 474.5 87.87355 L 475.5 87.87355 Z M 475.5 93.87355 L 475.5 96.87355 L 474.5 96.87355 L 474.5 93.87355 L 475.5 93.87355 Z M 475.5 99.87355 L 475.5 102.87355 L 474.5 102.87355 L 474.5 99.87355 L 475.5 99.87355 Z M 475.5 105.87355 L 475.5 108.87355 L 474.5 108.87355 L 474.5 105.87355 L 475.5 105.87355 Z M 475.5 111.87355 L 475.5 114.87355 L 474.5 114.87355 L 474.5 111.87355 L 475.5 111.87355 Z M 475.5 117.87355 L 475.5 120.87355 L 474.5 120.87355 L 474.5 117.87355 L 475.5 117.87355 Z M 475.5 123.87355 L 475.5 126.87355 L 474.5 126.87355 L 474.5 123.87355 L 475.5 123.87355 Z M 475.5 129.87355 L 475.5 132.87355 L 474.5 132.87355 L 474.5 129.87355 L 475.5 129.87355 Z M 475.5 135.87355 L 475.5 138.87355 L 474.5 138.87355 L 474.5 135.87355 L 475.5 135.87355 Z M 475.5 141.87355 L 475.5 144.87355 L 474.5 144.87355 L 474.5 141.87355 L 475.5 141.87355 Z M 475.5 147.87355 L 475.5 150.87355 L 474.5 150.87355 L 474.5 147.87355 L 475.5 147.87355 Z M 475.5 153.87355 L 475.5 156.87355 L 474.5 156.87355 L 474.5 153.87355 L 475.5 153.87355 Z M 475.5 159.87355 L 475.5 162.87355 L 474.5 162.87355 L 474.5 159.87355 L 475.5 159.87355 Z M 475.5 165.87355 L 475.5 168.55 C 475.5 168.65393 475.49925 168.75836 475.49775 168.86333 L 474.49787 168.84899 C 474.4993 168.74971 474.5 168.65006 474.5 168.55 L 474.5 165.87355 L 475.5 165.87355 Z M 475.252 171.84032 C 475.09544 172.87329 474.8662 173.88997 474.5643 174.89037 L 473.60697 174.60149 C 473.89503 173.64685 474.1138 172.67649 474.2633 171.69042 L 475.252 171.84032 Z M 473.44664 177.81961 C 473.01325 178.74977 472.5172 179.645 471.9585 180.50531 L 471.1198 179.96067 C 471.65318 179.13938 472.12666 178.28493 472.5402 177.39731 L 473.44664 177.81961 Z M 470.08003 182.99164 C 469.39155 183.7796 468.65055 184.5146 467.85707 185.19663 L 467.20527 184.43824 C 467.9627 183.78719 468.66996 183.08568 469.32698 182.33371 L 470.08003 182.99164 Z M 465.3571 187.05388 C 464.493 187.60524 463.59489 188.09362 462.6627 188.519 L 462.24754 187.60924 C 463.13737 187.2032 463.99458 186.73709 464.81919 186.21089 L 465.3571 187.05388 Z M 459.71653 189.616 C 458.7162 189.90885 457.70008 190.1293 456.66819 190.27739 L 456.52616 189.28752 C 457.51109 189.14618 458.4809 188.93576 459.43559 188.65628 L 459.71653 189.616 Z M 453.6961 190.49953 L 453.55165 190.5 L 450.7029 190.5 L 450.7029 189.5 L 453.54835 189.5 L 453.6928 189.49953 L 453.6961 190.49953 Z M 447.7029 190.5 L 444.7029 190.5 L 444.7029 189.5 L 447.7029 189.5 L 447.7029 190.5 Z M 441.7029 190.5 L 438.7029 190.5 L 438.7029 189.5 L 441.7029 189.5 L 441.7029 190.5 Z M 435.7029 190.5 L 432.7029 190.5 L 432.7029 189.5 L 435.7029 189.5 L 435.7029 190.5 Z M 429.7029 190.5 L 426.7029 190.5 L 426.7029 189.5 L 429.7029 189.5 L 429.7029 190.5 Z M 423.7029 190.5 L 420.7029 190.5 L 420.7029 189.5 L 423.7029 189.5 L 423.7029 190.5 Z M 417.7029 190.5 L 414.7029 190.5 L 414.7029 189.5 L 417.7029 189.5 L 417.7029 190.5 Z M 411.7029 190.5 L 408.7029 190.5 L 408.7029 189.5 L 411.7029 189.5 L 411.7029 190.5 Z M 405.7029 190.5 L 402.7029 190.5 L 402.7029 189.5 L 405.7029 189.5 L 405.7029 190.5 Z M 399.7029 190.5 L 396.7029 190.5 L 396.7029 189.5 L 399.7029 189.5 L 399.7029 190.5 Z M 393.7029 190.5 L 390.7029 190.5 L 390.7029 189.5 L 393.7029 189.5 L 393.7029 190.5 Z M 387.7029 190.5 L 384.7029 190.5 L 384.7029 189.5 L 387.7029 189.5 L 387.7029 190.5 Z M 381.7029 190.5 L 378.7029 190.5 L 378.7029 189.5 L 381.7029 189.5 L 381.7029 190.5 Z M 375.7029 190.5 L 372.7029 190.5 L 372.7029 189.5 L 375.7029 189.5 L 375.7029 190.5 Z M 369.7029 190.5 L 366.7029 190.5 L 366.7029 189.5 L 369.7029 189.5 L 369.7029 190.5 Z M 363.70295 190.5 L 360.70295 190.5 L 360.70295 189.5 L 363.70295 189.5 L 363.70295 190.5 Z M 357.70295 190.5 L 354.70295 190.5 L 354.70295 189.5 L 357.70295 189.5 L 357.70295 190.5 Z M 351.70295 190.5 L 348.70295 190.5 L 348.70295 189.5 L 351.70295 189.5 L 351.70295 190.5 Z M 345.70295 190.5 L 342.7029 190.5 L 342.7029 189.5 L 345.70295 189.5 L 345.70295 190.5 Z M 339.7029 190.5 L 336.7029 190.5 L 336.7029 189.5 L 339.7029 189.5 L 339.7029 190.5 Z M 333.7029 190.5 L 330.7029 190.5 L 330.7029 189.5 L 333.7029 189.5 L 333.7029 190.5 Z M 327.7029 190.5 L 324.70295 190.5 L 324.70295 189.5 L 327.7029 189.5 L 327.7029 190.5 Z M 321.70295 190.5 L 318.70295 190.5 L 318.70295 189.5 L 321.70295 189.5 L 321.70295 190.5 Z M 315.70295 190.5 L 312.70295 190.5 L 312.70295 189.5 L 315.70295 189.5 L 315.70295 190.5 Z M 309.70295 190.5 L 306.70295 190.5 L 306.70295 189.5 L 309.70295 189.5 L 309.70295 190.5 Z M 303.70295 190.5 L 300.70295 190.5 L 300.70295 189.5 L 303.70295 189.5 L 303.70295 190.5 Z M 297.70295 190.5 L 294.70295 190.5 L 294.70295 189.5 L 297.70295 189.5 L 297.70295 190.5 Z M 291.70295 190.5 L 288.70295 190.5 L 288.70295 189.5 L 291.70295 189.5 L 291.70295 190.5 Z M 285.70295 190.5 L 282.7029 190.5 L 282.7029 189.5 L 285.70295 189.5 L 285.70295 190.5 Z M 279.7029 190.5 L 276.70295 190.5 L 276.70295 189.5 L 279.7029 189.5 L 279.7029 190.5 Z M 273.70295 190.5 L 270.70295 190.5 L 270.70295 189.5 L 273.70295 189.5 L 273.70295 190.5 Z M 267.70295 190.5 L 264.70295 190.5 L 264.70295 189.5 L 267.70295 189.5 L 267.70295 190.5 Z M 261.70295 190.5 L 258.70295 190.5 L 258.70295 189.5 L 261.70295 189.5 L 261.70295 190.5 Z M 255.70293 190.5 L 252.70293 190.5 L 252.70293 189.5 L 255.70293 189.5 L 255.70293 190.5 Z M 249.70293 190.5 L 246.70293 190.5 L 246.70293 189.5 L 249.70293 189.5 L 249.70293 190.5 Z M 243.70293 190.5 L 240.70293 190.5 L 240.70293 189.5 L 243.70293 189.5 L 243.70293 190.5 Z M 237.70293 190.5 L 234.70293 190.5 L 234.70293 189.5 L 237.70293 189.5 L 237.70293 190.5 Z M 231.70293 190.5 L 228.70293 190.5 L 228.70293 189.5 L 231.70293 189.5 L 231.70293 190.5 Z M 225.70293 190.5 L 222.70293 190.5 L 222.70293 189.5 L 225.70293 189.5 L 225.70293 190.5 Z M 219.70293 190.5 L 216.70293 190.5 L 216.70293 189.5 L 219.70293 189.5 L 219.70293 190.5 Z M 213.70293 190.5 L 210.70293 190.5 L 210.70293 189.5 L 213.70293 189.5 L 213.70293 190.5 Z M 207.70293 190.5 L 204.70293 190.5 L 204.70293 189.5 L 207.70293 189.5 L 207.70293 190.5 Z M 201.70293 190.5 L 198.70293 190.5 L 198.70293 189.5 L 201.70293 189.5 L 201.70293 190.5 Z M 195.70294 190.5 L 192.70294 190.5 L 192.70294 189.5 L 195.70294 189.5 L 195.70294 190.5 Z M 189.70294 190.5 L 186.70294 190.5 L 186.70294 189.5 L 189.70294 189.5 L 189.70294 190.5 Z M 183.70294 190.5 L 180.70294 190.5 L 180.70294 189.5 L 183.70294 189.5 L 183.70294 190.5 Z M 177.70294 190.5 L 174.70294 190.5 L 174.70294 189.5 L 177.70294 189.5 L 177.70294 190.5 Z M 171.70294 190.5 L 168.70294 190.5 L 168.70294 189.5 L 171.70294 189.5 L 171.70294 190.5 Z M 165.70294 190.5 L 162.70294 190.5 L 162.70294 189.5 L 165.70294 189.5 L 165.70294 190.5 Z M 159.70294 190.5 L 156.70294 190.5 L 156.70294 189.5 L 159.70294 189.5 L 159.70294 190.5 Z M 153.70294 190.5 L 150.70294 190.5 L 150.70294 189.5 L 153.70294 189.5 L 153.70294 190.5 Z M 147.70294 190.5 L 144.70294 190.5 L 144.70294 189.5 L 147.70294 189.5 L 147.70294 190.5 Z M 141.70294 190.5 L 138.70294 190.5 L 138.70294 189.5 L 141.70294 189.5 L 141.70294 190.5 Z M 135.70294 190.5 L 134.45 190.5 C 133.8786 190.5 133.30814 190.47772 132.73857 190.43318 L 132.81655 189.43624 C 133.36009 189.47875 133.90457 189.5 134.45 189.5 L 135.70294 189.5 L 135.70294 190.5 Z M 129.716 189.98343 C 128.67668 189.75388 127.65936 189.4503 126.664058 189.07271 L 127.018779 188.13774 C 127.968708 188.49813 128.93967 188.78786 129.93167 189.00696 L 129.716 189.98343 Z M 123.88669 187.79106 C 122.97977 187.29319 122.11245 186.73403 121.28473 186.11356 L 121.88452 185.31339 C 122.67459 185.90563 123.50239 186.43933 124.36792 186.91448 L 123.88669 187.79106 Z M 118.92248 184.06446 C 118.18385 183.32526 117.5015 182.53728 116.87541 181.70053 L 117.67607 181.10141 C 118.27364 181.90004 118.92491 182.65212 119.629878 183.35764 L 118.92248 184.06446 Z M 115.20021 179.09741 C 114.708919 178.20073 114.28236 177.27428 113.92052 176.31806 L 114.855808 175.96414 C 115.20118 176.8769 115.608318 177.76116 116.077198 178.61692 L 115.20021 179.09741 Z M 113.01261 173.26598 C 112.79329 172.269 112.64423 171.26163 112.56546 170.24387 L 113.562488 170.16672 C 113.63767 171.13816 113.77992 172.09963 113.98925 173.05113 L 113.01261 173.26598 Z M 112.5 167.27938 L 112.5 164.27938 L 113.5 164.27938 L 113.5 167.27938 L 112.5 167.27938 Z M 112.5 161.27938 L 112.5 158.27938 L 113.5 158.27938 L 113.5 161.27938 L 112.5 161.27938 Z M 112.5 155.27938 L 112.5 152.27938 L 113.5 152.27938 L 113.5 155.27938 L 112.5 155.27938 Z M 112.5 149.27938 L 112.5 146.27936 L 113.5 146.27936 L 113.5 149.27938 L 112.5 149.27938 Z M 112.5 143.27938 L 112.5 140.27936 L 113.5 140.27936 L 113.5 143.27938 L 112.5 143.27938 Z M 112.5 137.27936 L 112.5 134.27936 L 113.5 134.27936 L 113.5 137.27936 L 112.5 137.27936 Z M 112.5 131.27936 L 112.5 128.27936 L 113.5 128.27936 L 113.5 131.27936 L 112.5 131.27936 Z M 112.5 125.27936 L 112.5 122.27936 L 113.5 122.27936 L 113.5 125.27936 L 112.5 125.27936 Z M 112.5 119.27936 L 112.5 116.27936 L 113.5 116.27936 L 113.5 119.27936 L 112.5 119.27936 Z M 112.5 113.27936 L 112.5 110.27936 L 113.5 110.27936 L 113.5 113.27936 L 112.5 113.27936 Z M 112.5 107.27936 L 112.5 104.27935 L 113.5 104.27935 L 113.5 107.27936 L 112.5 107.27936 Z M 112.5 101.27935 L 112.5 98.27935 L 113.5 98.27935 L 113.5 101.27935 L 112.5 101.27935 Z M 112.5 95.27935 L 112.5 92.27935 L 113.5 92.27935 L 113.5 95.27935 L 112.5 95.27935 Z M 112.5 89.27935 L 112.5 86.27934 L 113.5 86.27934 L 113.5 89.27935 L 112.5 89.27935 Z M 112.5 83.27935 L 112.5 80.27935 L 113.5 80.27935 L 113.5 83.27935 L 112.5 83.27935 Z M 112.5 77.27934 L 112.5 74.27934 L 113.5 74.27934 L 113.5 77.27934 L 112.5 77.27934 Z M 112.5 71.27934 L 112.5 68.45 L 112.50061 68.28684 L 113.50061 68.29063 L 113.5 68.45 L 113.5 71.27934 L 112.5 71.27934 Z M 112.72519 65.31392 C 112.87415 64.28194 113.09553 63.26576 113.389308 62.26538 L 114.34879 62.54715 C 114.06839 63.501955 113.85711 64.47183 113.714939 65.45679 L 112.72519 65.31392 Z M 114.48847 59.320959 C 114.914737 58.38885 115.4039 57.491014 115.95596 56.627439 L 116.79851 57.16605 C 116.271617 57.990259 115.80473 58.84719 115.39788 59.73685 L 114.48847 59.320959 Z M 117.81544 54.12889 C 118.4981 53.33598 119.23373 52.595617 120.02231 51.9078 L 120.67961 52.661424 C 119.926959 53.317899 119.22484 54.02454 118.573268 54.78135 L 117.81544 54.12889 Z M 122.51005 50.031534 C 123.370899 49.473485 124.26643 48.97823 125.19668 48.54577 L 125.61823 49.452569 C 124.73036 49.865324 123.87562 50.338014 123.05401 50.870637 L 122.51005 50.031534 Z M 128.12772 47.43022 C 129.12802 47.129339 130.14466 46.90103 131.17761 46.7453 L 131.32669 47.734125 C 130.34078 47.88276 129.37047 48.100667 128.41574 48.38784 L 128.12772 47.43022 Z M 134.15395 46.502 C 134.25263 46.500669 134.3513 46.5 134.45 46.5 L 137.45 46.5 L 137.45 47.5 L 134.45 47.5 C 134.35578 47.5 134.2616 47.500638 134.16744 47.501909 L 134.15395 46.502 Z "/>
<path transform="matrix(.7192474,0,0,.7192474,.3596237,.3596237)" d="M 136.97 17.5 L 139.97 17.5 L 139.97 18.5 L 136.97 18.5 L 136.97 17.5 Z M 142.97 17.5 L 145.97 17.5 L 145.97 18.5 L 142.97 18.5 L 142.97 17.5 Z M 148.97 17.5 L 151.97 17.5 L 151.97 18.5 L 148.97 18.5 L 148.97 17.5 Z M 154.97 17.5 L 157.97 17.5 L 157.97 18.5 L 154.97 18.5 L 154.97 17.5 Z M 160.97 17.5 L 163.97 17.5 L 163.97 18.5 L 160.97 18.5 L 160.97 17.5 Z M 166.97 17.5 L 169.97 17.5 L 169.97 18.5 L 166.97 18.5 L 166.97 17.5 Z M 172.97 17.5 L 175.97 17.5 L 175.97 18.5 L 172.97 18.5 L 172.97 17.5 Z M 178.97 17.5 L 181.97 17.5 L 181.97 18.5 L 178.97 18.5 L 178.97 17.5 Z M 184.97 17.5 L 187.97 17.5 L 187.97 18.5 L 184.97 18.5 L 184.97 17.5 Z M 190.97 17.5 L 193.97 17.5 L 193.97 18.5 L 190.97 18.5 L 190.97 17.5 Z M 196.97 17.5 L 199.97 17.5 L 199.97 18.5 L 196.97 18.5 L 196.97 17.5 Z M 202.97 17.5 L 205.97 17.5 L 205.97 18.5 L 202.97 18.5 L 202.97 17.5 Z M 208.97 17.5 L 211.97 17.5 L 211.97 18.5 L 208.97 18.5 L 208.97 17.5 Z M 214.97 17.5 L 217.97 17.5 L 217.97 18.5 L 214.97 18.5 L 214.97 17.5 Z M 220.97 17.5 L 223.97 17.5 L 223.97 18.5 L 220.97 18.5 L 220.97 17.5 Z M 226.97 17.5 L 229.97 17.5 L 229.97 18.5 L 226.97 18.5 L 226.97 17.5 Z M 232.97 17.5 L 235.97 17.5 L 235.97 18.5 L 232.97 18.5 L 232.97 17.5 Z M 238.97 17.5 L 241.97 17.5 L 241.97 18.5 L 238.97 18.5 L 238.97 17.5 Z M 244.97 17.5 L 247.97 17.5 L 247.97 18.5 L 244.97 18.5 L 244.97 17.5 Z M 250.97 17.5 L 253.97 17.5 L 253.97 18.5 L 250.97 18.5 L 250.97 17.5 Z M 256.97 17.5 L 259.97 17.5 L 259.97 18.5 L 256.97 18.5 L 256.97 17.5 Z M 262.97 17.5 L 265.97 17.5 L 265.97 18.5 L 262.97 18.5 L 262.97 17.5 Z M 268.97 17.5 L 271.97 17.5 L 271.97 18.5 L 268.97 18.5 L 268.97 17.5 Z M 274.97 17.5 L 277.97 17.5 L 277.97 18.5 L 274.97 18.5 L 274.97 17.5 Z M 280.97 17.5 L 283.97 17.5 L 283.97 18.5 L 280.97 18.5 L 280.97 17.5 Z M 286.97 17.5 L 289.97 17.5 L 289.97 18.5 L 286.97 18.5 L 286.97 17.5 Z M 292.97 17.5 L 295.97 17.5 L 295.97 18.5 L 292.97 18.5 L 292.97 17.5 Z M 298.97 17.5 L 301.97 17.5 L 301.97 18.5 L 298.97 18.5 L 298.97 17.5 Z M 304.97 17.5 L 307.97 17.5 L 307.97 18.5 L 304.97 18.5 L 304.97 17.5 Z M 310.97 17.5 L 313.97 17.5 L 313.97 18.5 L 310.97 18.5 L 310.97 17.5 Z M 316.97 17.5 L 319.97 17.5 L 319.97 18.5 L 316.97 18.5 L 316.97 17.5 Z M 322.97 17.5 L 325.97 17.5 L 325.97 18.5 L 322.97 18.5 L 322.97 17.5 Z M 328.97 17.5 L 331.97 17.5 L 331.97 18.5 L 328.97 18.5 L 328.97 17.5 Z M 334.97 17.5 L 337.97004 17.5 L 337.97004 18.5 L 334.97 18.5 L 334.97 17.5 Z M 340.96998 17.5 L 343.97 17.5 L 343.97 18.5 L 340.96998 18.5 L 340.96998 17.5 Z M 346.97 17.5 L 349.97 17.5 L 349.97 18.5 L 346.97 18.5 L 346.97 17.5 Z M 352.97004 17.5 L 355.96998 17.5 L 355.96998 18.5 L 352.97004 18.5 L 352.97004 17.5 Z M 358.97 17.5 L 361.97 17.5 L 361.97 18.5 L 358.97 18.5 L 358.97 17.5 Z M 364.97 17.5 L 367.97004 17.5 L 367.97004 18.5 L 364.97 18.5 L 364.97 17.5 Z M 370.96998 17.5 L 373.97 17.5 L 373.97 18.5 L 370.96998 18.5 L 370.96998 17.5 Z M 376.97 17.5 L 379.97 17.5 L 379.97 18.5 L 376.97 18.5 L 376.97 17.5 Z M 382.97004 17.5 L 385.96998 17.5 L 385.96998 18.5 L 382.97004 18.5 L 382.97004 17.5 Z M 388.97 17.5 L 391.97 17.5 L 391.97 18.5 L 388.97 18.5 L 388.97 17.5 Z M 394.97 17.5 L 397.97 17.5 L 397.97 18.5 L 394.97 18.5 L 394.97 17.5 Z M 400.97 17.5 L 403.97 17.5 L 403.97 18.5 L 400.97 18.5 L 400.97 17.5 Z M 406.97 17.5 L 409.97 17.5 L 409.97 18.5 L 406.97 18.5 L 406.97 17.5 Z M 412.97 17.5 L 415.97 17.5 L 415.97 18.5 L 412.97 18.5 L 412.97 17.5 Z M 418.97 17.5 L 421.97 17.5 L 421.97 18.5 L 418.97 18.5 L 418.97 17.5 Z M 424.97 17.5 L 427.97 17.5 L 427.97 18.5 L 424.97 18.5 L 424.97 17.5 Z M 430.97 17.5 L 433.97 17.5 L 433.97 18.5 L 430.97 18.5 L 430.97 17.5 Z M 436.97 17.5 L 439.97 17.5 L 439.97 18.5 L 436.97 18.5 L 436.97 17.5 Z M 442.97 17.5 L 445.97 17.5 L 445.97 18.5 L 442.97 18.5 L 442.97 17.5 Z M 448.97 17.5 L 451.97 17.5 L 451.97 18.5 L 448.97 18.5 L 448.97 17.5 Z M 454.97 17.5 L 457.97 17.5 L 457.97 18.5 L 454.97 18.5 L 454.97 17.5 Z M 460.97 17.5 L 463.97 17.5 L 463.97 18.5 L 460.97 18.5 L 460.97 17.5 Z M 466.97 17.5 L 469.97 17.5 L 469.97 18.5 L 466.97 18.5 L 466.97 17.5 Z M 472.97 17.5 L 475.97 17.5 L 475.97 18.5 L 472.97 18.5 L 472.97 17.5 Z M 478.97 17.5 L 481.97 17.5 L 481.97 18.5 L 478.97 18.5 L 478.97 17.5 Z M 484.97 17.5 L 487.97 17.5 L 487.97 18.5 L 484.97 18.5 L 484.97 17.5 Z M 490.97 17.5 L 493.97 17.5 L 493.97 18.5 L 490.97 18.5 L 490.97 17.5 Z M 496.97 17.5 L 499.97 17.5 L 499.97 18.5 L 496.97 18.5 L 496.97 17.5 Z M 502.97 17.5 L 505.97 17.5 L 505.97 18.5 L 502.97 18.5 L 502.97 17.5 Z M 508.97 17.5 L 511.97 17.5 L 511.97 18.5 L 508.97 18.5 L 508.97 17.5 Z M 514.97 17.5 L 517.97 17.5 L 517.97 18.5 L 514.97 18.5 L 514.97 17.5 Z M 520.97 17.5 L 523.97 17.5 L 523.97 18.5 L 520.97 18.5 L 520.97 17.5 Z M 526.9795 17.65319 C 528.00198 17.759692 529.0158 17.921132 530.0211 18.137509 L 529.81069 19.115117 C 528.8407 18.906338 527.8624 18.750569 526.87588 18.647809 L 526.9795 17.65319 Z M 532.96176 18.937323 C 533.934 19.2586 534.88619 19.631217 535.81826 20.05517 L 535.4042 20.965418 C 534.50497 20.556363 533.5862 20.196835 532.648 19.886839 L 532.96176 18.937323 Z M 538.53207 21.470366 C 539.4121 21.991299 540.2619 22.558182 541.0813 23.171011 L 540.4824 23.971816 C 539.69198 23.380656 538.8721 22.833687 538.02267 22.330912 L 538.53207 21.470366 Z M 543.43087 25.133847 C 544.18008 25.83138 544.8898 26.567463 545.56 27.34209 L 544.8038 27.99638 C 544.1571 27.248919 543.4723 26.5387 542.74948 25.865727 L 543.43087 25.133847 Z M 547.4324 29.756768 C 548.017 30.600657 548.55429 31.473252 549.0441 32.37455 L 548.16549 32.85209 C 547.69277 31.982386 547.1744 31.140448 546.61038 30.326275 L 547.4324 29.756768 Z M 550.3521 35.121644 C 550.74429 36.072969 551.084 37.043584 551.3714 38.033487 L 550.4111 38.312265 C 550.13388 37.357309 549.806 36.420785 549.42758 35.502695 L 550.3521 35.121644 Z M 552.0597 40.982549 C 552.2406 41.9987 552.3658 43.021509 552.4352 44.050977 L 551.4375 44.118284 C 551.3706 43.125215 551.2498 42.13839 551.0752 41.157819 L 552.0597 40.982549 Z M 552.5 47.045839 L 552.5 50.045839 L 551.5 50.045839 L 551.5 47.045839 L 552.5 47.045839 Z M 552.5 53.045839 L 552.5 56.045839 L 551.5 56.045839 L 551.5 53.045839 L 552.5 53.045839 Z M 552.5 59.04584 L 552.5 62.04584 L 551.5 62.04584 L 551.5 59.04584 L 552.5 59.04584 Z M 552.5 65.04584 L 552.5 68.045848 L 551.5 68.045848 L 551.5 65.04584 L 552.5 65.04584 Z M 552.5 71.045848 L 552.5 74.045848 L 551.5 74.045848 L 551.5 71.045848 L 552.5 71.045848 Z M 552.5 77.045848 L 552.5 80.045848 L 551.5 80.045848 L 551.5 77.045848 L 552.5 77.045848 Z M 552.5 83.04585 L 552.5 86.04585 L 551.5 86.04585 L 551.5 83.04585 L 552.5 83.04585 Z M 552.5 89.04585 L 552.5 92.04585 L 551.5 92.04585 L 551.5 89.04585 L 552.5 89.04585 Z M 552.5 95.04585 L 552.5 98.04585 L 551.5 98.04585 L 551.5 95.04585 L 552.5 95.04585 Z M 552.5 101.04585 L 552.5 104.04585 L 551.5 104.04585 L 551.5 101.04585 L 552.5 101.04585 Z M 552.5 107.04585 L 552.5 110.04585 L 551.5 110.04585 L 551.5 107.04585 L 552.5 107.04585 Z M 552.5 113.04585 L 552.5 116.04586 L 551.5 116.04586 L 551.5 113.04585 L 552.5 113.04585 Z M 552.5 119.04586 L 552.5 122.04586 L 551.5 122.04586 L 551.5 119.04586 L 552.5 119.04586 Z M 552.5 125.04586 L 552.5 128.04587 L 551.5 128.04587 L 551.5 125.04586 L 552.5 125.04586 Z M 552.5 131.04587 L 552.5 134.04587 L 551.5 134.04587 L 551.5 131.04587 L 552.5 131.04587 Z M 552.5 137.04586 L 552.5 140.04586 L 551.5 140.04586 L 551.5 137.04586 L 552.5 137.04586 Z M 552.5 143.04587 L 552.5 146.04587 L 551.5 146.04587 L 551.5 143.04587 L 552.5 143.04587 Z M 552.5 149.04587 L 552.5 152.04587 L 551.5 152.04587 L 551.5 149.04587 L 552.5 149.04587 Z M 552.5 155.04587 L 552.5 158.04587 L 551.5 158.04587 L 551.5 155.04587 L 552.5 155.04587 Z M 552.5 161.04587 L 552.5 164.04587 L 551.5 164.04587 L 551.5 161.04587 L 552.5 161.04587 Z M 552.5 167.04587 L 552.5 170.04587 L 551.5 170.04587 L 551.5 167.04587 L 552.5 167.04587 Z M 552.5 173.04587 L 552.5 176.04587 L 551.5 176.04587 L 551.5 173.04587 L 552.5 173.04587 Z M 552.3885 179.04798 C 552.2973 180.07509 552.1507 181.09449 551.9486 182.10613 L 550.968 181.91024 C 551.1629 180.93442 551.3044 179.95085 551.3924 178.95954 L 552.3885 179.04798 Z M 551.19638 185.04645 C 550.8893 186.026 550.5303 186.9861 550.1193 187.92676 L 549.20297 187.52646 C 549.5993 186.61898 549.9457 185.69258 550.2421 184.74729 L 551.19638 185.04645 Z M 548.74887 190.65522 C 548.2405 191.5447 547.68588 192.40419 547.0849 193.23369 L 546.2751 192.64699 C 546.8548 191.84683 547.38998 191.01752 547.88058 190.15906 L 548.74887 190.65522 Z M 545.1594 195.6111 C 544.4733 196.37097 543.7481 197.09186 542.98379 197.77375 L 542.318 197.02759 C 543.0553 196.36975 543.75509 195.67418 544.41726 194.94087 L 545.1594 195.6111 Z M 540.59567 199.68433 C 539.7626 200.28044 538.8993 200.83019 538.0058 201.33359 L 537.51498 200.46237 C 538.37667 199.97686 539.2096 199.44641 540.01376 198.87104 L 540.59567 199.68433 Z M 535.27188 202.68648 C 534.32778 203.09227 533.3646 203.44586 532.3824 203.74724 L 532.08908 202.79125 C 533.0366 202.50046 533.9659 202.1593 534.87698 201.76775 L 535.27188 202.68648 Z M 529.4425 204.48076 C 528.4286 204.6771 527.4071 204.81784 526.3781 204.90299 L 526.2957 203.9064 C 527.2883 203.82427 528.27389 203.68848 529.2523 203.49901 L 529.4425 204.48076 Z M 523.3784 205 L 520.3784 205 L 520.3784 204 L 523.3784 204 L 523.3784 205 Z M 517.3784 205 L 514.3784 205 L 514.3784 204 L 517.3784 204 L 517.3784 205 Z M 511.37843 205 L 508.37843 205 L 508.37843 204 L 511.37843 204 L 511.37843 205 Z M 505.37843 205 L 502.37843 205 L 502.37843 204 L 505.37843 204 L 505.37843 205 Z M 499.37843 205 L 496.37843 205 L 496.37843 204 L 499.37843 204 L 499.37843 205 Z M 493.37843 205 L 490.37843 205 L 490.37843 204 L 493.37843 204 L 493.37843 205 Z M 487.37843 205 L 484.37843 205 L 484.37843 204 L 487.37843 204 L 487.37843 205 Z M 481.37843 205 L 478.37843 205 L 478.37843 204 L 481.37843 204 L 481.37843 205 Z M 475.37843 205 L 472.37843 205 L 472.37843 204 L 475.37843 204 L 475.37843 205 Z M 469.37843 205 L 466.37843 205 L 466.37843 204 L 469.37843 204 L 469.37843 205 Z M 463.37843 205 L 460.37843 205 L 460.37843 204 L 463.37843 204 L 463.37843 205 Z M 457.37843 205 L 454.37843 205 L 454.37843 204 L 457.37843 204 L 457.37843 205 Z M 451.37843 205 L 448.37843 205 L 448.37843 204 L 451.37843 204 L 451.37843 205 Z M 445.37843 205 L 442.37843 205 L 442.37843 204 L 445.37843 204 L 445.37843 205 Z M 439.37843 205 L 436.37843 205 L 436.37843 204 L 439.37843 204 L 439.37843 205 Z M 433.37843 205 L 430.37843 205 L 430.37843 204 L 433.37843 204 L 433.37843 205 Z M 427.37843 205 L 424.37843 205 L 424.37843 204 L 427.37843 204 L 427.37843 205 Z M 421.37843 205 L 418.37843 205 L 418.37843 204 L 421.37843 204 L 421.37843 205 Z M 415.37843 205 L 412.37843 205 L 412.37843 204 L 415.37843 204 L 415.37843 205 Z M 409.37843 205 L 406.37843 205 L 406.37843 204 L 409.37843 204 L 409.37843 205 Z M 403.37843 205 L 400.37843 205 L 400.37843 204 L 403.37843 204 L 403.37843 205 Z M 397.37843 205 L 394.37843 205 L 394.37843 204 L 397.37843 204 L 397.37843 205 Z M 391.37843 205 L 388.37843 205 L 388.37843 204 L 391.37843 204 L 391.37843 205 Z M 385.37843 205 L 382.37843 205 L 382.37843 204 L 385.37843 204 L 385.37843 205 Z M 379.37843 205 L 376.37843 205 L 376.37843 204 L 379.37843 204 L 379.37843 205 Z M 373.37843 205 L 370.37843 205 L 370.37843 204 L 373.37843 204 L 373.37843 205 Z M 367.37843 205 L 364.37843 205 L 364.37843 204 L 367.37843 204 L 367.37843 205 Z M 361.37843 205 L 358.37843 205 L 358.37843 204 L 361.37843 204 L 361.37843 205 Z M 355.37843 205 L 352.37843 205 L 352.37843 204 L 355.37843 204 L 355.37843 205 Z M 349.37843 205 L 346.37843 205 L 346.37843 204 L 349.37843 204 L 349.37843 205 Z M 343.37843 205 L 340.37843 205 L 340.37843 204 L 343.37843 204 L 343.37843 205 Z M 337.37843 205 L 334.37843 205 L 334.37843 204 L 337.37843 204 L 337.37843 205 Z M 331.37843 205 L 328.37843 205 L 328.37843 204 L 331.37843 204 L 331.37843 205 Z M 325.37843 205 L 322.37843 205 L 322.37843 204 L 325.37843 204 L 325.37843 205 Z M 319.37846 205 L 316.37843 205 L 316.37843 204 L 319.37846 204 L 319.37846 205 Z M 313.37843 205 L 310.37843 205 L 310.37843 204 L 313.37843 204 L 313.37843 205 Z M 307.37846 205 L 304.37843 205 L 304.37843 204 L 307.37846 204 L 307.37846 205 Z M 301.37843 205 L 298.37843 205 L 298.37843 204 L 301.37843 204 L 301.37843 205 Z M 295.37843 205 L 292.37846 205 L 292.37846 204 L 295.37843 204 L 295.37843 205 Z M 289.37843 205 L 286.37843 205 L 286.37843 204 L 289.37843 204 L 289.37843 205 Z M 283.37843 205 L 280.37846 205 L 280.37846 204 L 283.37843 204 L 283.37843 205 Z M 277.37846 205 L 274.37843 205 L 274.37843 204 L 277.37846 204 L 277.37846 205 Z M 271.37843 205 L 268.37843 205 L 268.37843 204 L 271.37843 204 L 271.37843 205 Z M 265.37846 205 L 262.37846 205 L 262.37846 204 L 265.37846 204 L 265.37846 205 Z M 259.37846 205 L 256.37843 205 L 256.37843 204 L 259.37846 204 L 259.37846 205 Z M 253.37842 205 L 250.37845 205 L 250.37845 204 L 253.37842 204 L 253.37842 205 Z M 247.37845 205 L 244.37845 205 L 244.37845 204 L 247.37845 204 L 247.37845 205 Z M 241.37842 205 L 238.37845 205 L 238.37845 204 L 241.37842 204 L 241.37842 205 Z M 235.37845 205 L 232.37845 205 L 232.37845 204 L 235.37845 204 L 235.37845 205 Z M 229.37845 205 L 226.37842 205 L 226.37842 204 L 229.37845 204 L 229.37845 205 Z M 223.37845 205 L 220.37845 205 L 220.37845 204 L 223.37845 204 L 223.37845 205 Z M 217.37845 205 L 214.37845 205 L 214.37845 204 L 217.37845 204 L 217.37845 205 Z M 211.37845 205 L 208.37845 205 L 208.37845 204 L 211.37845 204 L 211.37845 205 Z M 205.37845 205 L 202.37845 205 L 202.37845 204 L 205.37845 204 L 205.37845 205 Z M 199.37845 205 L 196.37845 205 L 196.37845 204 L 199.37845 204 L 199.37845 205 Z M 193.37845 205 L 190.37845 205 L 190.37845 204 L 193.37845 204 L 193.37845 205 Z M 187.37845 205 L 184.37842 205 L 184.37842 204 L 187.37845 204 L 187.37845 205 Z M 181.37845 205 L 178.37845 205 L 178.37845 204 L 181.37845 204 L 181.37845 205 Z M 175.37845 205 L 172.37845 205 L 172.37845 204 L 175.37845 204 L 175.37845 205 Z M 169.37845 205 L 166.37845 205 L 166.37845 204 L 169.37845 204 L 169.37845 205 Z M 163.37845 205 L 160.37845 205 L 160.37845 204 L 163.37845 204 L 163.37845 205 Z M 157.37845 205 L 154.37845 205 L 154.37845 204 L 157.37845 204 L 157.37845 205 Z M 151.37845 205 L 148.37845 205 L 148.37845 204 L 151.37845 204 L 151.37845 205 Z M 145.37845 205 L 142.37845 205 L 142.37845 204 L 145.37845 204 L 145.37845 205 Z M 139.37845 205 L 136.37845 205 L 136.37845 204 L 139.37845 204 L 139.37845 205 Z M 133.37845 205 L 130.97 205 C 130.77504 205 130.58007 204.99799 130.38504 204.99398 L 130.40564 203.99419 C 130.59375 203.99806 130.78188 204 130.97 204 L 133.37845 204 L 133.37845 205 Z M 127.354618 204.7695 C 126.340068 204.63962 125.33538 204.45558 124.34056 204.21739 L 124.573429 203.24489 C 125.53321 203.47467 126.5026 203.65224 127.48158 203.77759 L 127.354618 204.7695 Z M 121.401699 203.34397 C 120.44135 203.0013 119.50204 202.6081 118.58374 202.16437 L 119.0188 201.26398 C 119.90478 201.69208 120.811107 202.07146 121.737789 202.40213 L 121.401699 203.34397 Z M 115.894519 200.681 C 115.028759 200.14054 114.19452 199.5553 113.39182 198.92528 L 114.00924 198.13866 C 114.78367 198.74652 115.5886 199.3112 116.42404 199.8327 L 115.894519 200.681 Z M 111.08662 196.90625 C 110.353939 196.19129 109.66189 195.43907 109.01047 194.6496 L 109.7818 194.01316 C 110.41034 194.77494 111.07808 195.50072 111.78501 196.19052 L 111.08662 196.90625 Z M 107.19772 192.19586 C 106.63212 191.33759 106.1145 190.45125 105.64487 189.53687 L 106.53441 189.08002 C 106.98754 189.9623 107.48698 190.81749 108.032718 191.6456 L 107.19772 192.19586 Z M 104.40213 186.76177 C 104.03204 185.80081 103.71505 184.82274 103.45115 183.82752 L 104.41775 183.5712 C 104.6724 184.53151 104.97826 185.47522 105.33531 186.40236 L 104.40213 186.76177 Z M 102.82893 180.84525 C 102.67382 179.83364 102.57354 178.8166 102.52809 177.79419 L 103.5271 177.74979 C 103.57095 178.73628 103.66772 179.71758 103.81738 180.6937 L 102.82893 180.84525 Z M 102.5 174.8027 L 102.5 171.8027 L 103.5 171.8027 L 103.5 174.8027 L 102.5 174.8027 Z M 102.5 168.8027 L 102.5 165.8027 L 103.5 165.8027 L 103.5 168.8027 L 102.5 168.8027 Z M 102.5 162.8027 L 102.5 159.8027 L 103.5 159.8027 L 103.5 162.8027 L 102.5 162.8027 Z M 102.5 156.80272 L 102.5 153.80272 L 103.5 153.80272 L 103.5 156.80272 L 102.5 156.80272 Z M 102.5 150.80272 L 102.5 147.80272 L 103.5 147.80272 L 103.5 150.80272 L 102.5 150.80272 Z M 102.5 144.80272 L 102.5 141.80272 L 103.5 141.80272 L 103.5 144.80272 L 102.5 144.80272 Z M 102.5 138.80272 L 102.5 135.80272 L 103.5 135.80272 L 103.5 138.80272 L 102.5 138.80272 Z M 102.5 132.80274 L 102.5 129.80272 L 103.5 129.80272 L 103.5 132.80274 L 102.5 132.80274 Z M 102.5 126.80273 L 102.5 123.802738 L 103.5 123.802738 L 103.5 126.80273 L 102.5 126.80273 Z M 102.5 120.802738 L 102.5 117.802738 L 103.5 117.802738 L 103.5 120.802738 L 102.5 120.802738 Z M 102.5 114.802738 L 102.5 111.802738 L 103.5 111.802738 L 103.5 114.802738 L 102.5 114.802738 Z M 102.5 108.802738 L 102.5 105.802738 L 103.5 105.802738 L 103.5 108.802738 L 102.5 108.802738 Z M 102.5 102.802738 L 102.5 99.80274 L 103.5 99.80274 L 103.5 102.802738 L 102.5 102.802738 Z M 102.5 96.80274 L 102.5 93.80274 L 103.5 93.80274 L 103.5 96.80274 L 102.5 96.80274 Z M 102.5 90.80274 L 102.5 87.80275 L 103.5 87.80275 L 103.5 90.80274 L 102.5 90.80274 Z M 102.5 84.80275 L 102.5 81.80274 L 103.5 81.80274 L 103.5 84.80275 L 102.5 84.80275 Z M 102.5 78.80275 L 102.5 75.80275 L 103.5 75.80275 L 103.5 78.80275 L 102.5 78.80275 Z M 102.5 72.80275 L 102.5 69.80275 L 103.5 69.80275 L 103.5 72.80275 L 102.5 72.80275 Z M 102.5 66.80276 L 102.5 63.802759 L 103.5 63.802759 L 103.5 66.80276 L 102.5 66.80276 Z M 102.5 60.802759 L 102.5 57.802766 L 103.5 57.802766 L 103.5 60.802759 L 102.5 60.802759 Z M 102.5 54.802766 L 102.5 51.802759 L 103.5 51.802759 L 103.5 54.802766 L 102.5 54.802766 Z M 102.5 48.802766 L 102.5 45.97 L 102.500469 45.80658 L 103.500469 45.809457 L 103.5 45.97 L 103.5 48.802766 L 102.5 48.802766 Z M 102.67829 42.788698 C 102.792987 41.76878 102.96233 40.757989 103.186359 39.756326 L 104.16225 39.974588 C 103.94609 40.94103 103.782688 41.91631 103.672039 42.900438 L 102.67829 42.788698 Z M 104.01178 36.81602 C 104.340579 35.84775 104.72042 34.899965 105.151309 33.97266 L 106.05818 34.39407 C 105.64241 35.288835 105.27591 36.203325 104.95868 37.137548 L 104.01178 36.81602 Z M 106.590358 31.26715 C 107.11821 30.39187 107.69156 29.547457 108.31039 28.73391 L 109.1063 29.339322 C 108.509189 30.124318 107.95598 30.939072 107.44668 31.783585 L 106.590358 31.26715 Z M 110.29299 26.399556 C 110.99684 25.655913 111.738628 24.952307 112.51834 24.288739 L 113.16644 25.05029 C 112.4141 25.690548 111.69838 26.369439 111.019268 27.08696 L 110.29299 26.399556 Z M 114.946918 22.437008 C 115.795619 21.859148 116.67309 21.32871 117.57933 20.845696 L 118.04967 21.72818 C 117.17527 22.194216 116.32862 22.706023 115.50972 23.2636 L 114.946918 22.437008 Z M 120.33303 19.56175 C 121.28946 19.176508 122.26393 18.84421 123.25646 18.564856 L 123.5274 19.527453 C 122.56976 19.796988 121.62952 20.117615 120.70666 20.489333 L 120.33303 19.56175 Z M 126.21747 17.899477 C 127.231998 17.727707 128.25286 17.61128 129.28005 17.550198 L 129.3394 18.548436 C 128.34828 18.607373 127.36328 18.71971 126.3844 18.885447 L 126.21747 17.899477 Z M 130.97 17.5 L 133.97 17.5 L 133.97 18.5 L 130.97 18.5 L 130.97 17.5 Z "/>
<text xml:space="preserve" transform="matrix(.7192474 0 0 .7192474 0 0)" font-size="12" font-family="ArialMT"><tspan y="15" x="104.125 112.789 119.461 126.132999 132.805 139.47699 146.14899 149.48499 156.15699 162.82898 166.16498 172.16498 178.83698 185.50897 192.18097">Cadena de se&#x00f1;al</tspan></text>
<text xml:space="preserve" transform="matrix(.7192474 0 0 .7192474 0 0)" font-size="12" font-family="ArialMT"><tspan y="40" x="135.76563 144.42963 151.10163 157.77362 164.44562 171.11762 177.78961 181.12561 187.7976 194.4696 197.8056 203.8056 210.4776 217.1496 223.8216 226.4856 229.8216 232.4856 239.1576 245.82959 252.50159 255.16559 258.5016 261.8376 268.50959 275.18159 281.85359 288.52558 295.19758 301.19758 303.86158 310.53358 313.86958">Cadena de se&#x00f1;al ideal, ganancia G</tspan></text>
<text xml:space="preserve" transform="matrix(.7192474 0 0 .7192474 0 0)" font-size="12" font-family="ArialMT"><tspan y="98" x="58.828126 66.16992 72.84192 78.84192">Vext</tspan></text>
<text xml:space="preserve" transform="matrix(.7192474 0 0 .7192474 0 0)" font-size="12" font-family="ArialMT"><tspan y="101" x="504.26564 512.05276 514.71676 521.38876">Vint</tspan></text>
</g>
</g>
</svg>
