<svg width="1653" height="993" xmlns="http://www.w3.org/2000/svg" xmlns:xlink="http://www.w3.org/1999/xlink" overflow="hidden"><defs><clipPath id="clip0"><rect x="1514" y="1730" width="1653" height="993"/></clipPath><clipPath id="clip1"><rect x="1515" y="1731" width="1650" height="990"/></clipPath><clipPath id="clip2"><rect x="1515" y="1731" width="1650" height="990"/></clipPath><clipPath id="clip3"><rect x="1707" y="1901" width="1127" height="575"/></clipPath><clipPath id="clip4"><rect x="1515" y="1731" width="1650" height="990"/></clipPath><clipPath id="clip5"><rect x="1515" y="1731" width="1650" height="990"/></clipPath><clipPath id="clip6"><rect x="1515" y="1731" width="1650" height="990"/></clipPath><clipPath id="clip7"><rect x="1515" y="1731" width="1650" height="990"/></clipPath><clipPath id="clip8"><rect x="1515" y="1731" width="1650" height="990"/></clipPath><clipPath id="clip9"><rect x="1515" y="1731" width="1650" height="990"/></clipPath><clipPath id="clip10"><rect x="1515" y="1731" width="1650" height="990"/></clipPath><clipPath id="clip11"><rect x="1515" y="1731" width="1650" height="990"/></clipPath><clipPath id="clip12"><rect x="1515" y="1731" width="1650" height="990"/></clipPath><clipPath id="clip13"><rect x="1515" y="1731" width="1650" height="990"/></clipPath><clipPath id="clip14"><rect x="1515" y="1731" width="1650" height="990"/></clipPath><clipPath id="clip15"><rect x="1515" y="1731" width="1650" height="990"/></clipPath><clipPath id="clip16"><rect x="1515" y="1731" width="1650" height="990"/></clipPath><clipPath id="clip17"><rect x="1515" y="1731" width="1650" height="990"/></clipPath><clipPath id="clip18"><rect x="1515" y="1731" width="1650" height="990"/></clipPath><clipPath id="clip19"><rect x="1515" y="1731" width="1650" height="990"/></clipPath><clipPath id="clip20"><rect x="1515" y="1731" width="1650" height="990"/></clipPath><clipPath id="clip21"><rect x="1515" y="1731" width="1650" height="990"/></clipPath><clipPath id="clip22"><rect x="1515" y="1731" width="1650" height="990"/></clipPath><clipPath id="clip23"><rect x="1515" y="1731" width="1650" height="990"/></clipPath><clipPath id="clip24"><rect x="1515" y="1731" width="1650" height="990"/></clipPath><clipPath id="clip25"><rect x="1515" y="1731" width="1650" height="990"/></clipPath><clipPath id="clip26"><rect x="1515" y="1731" width="1650" height="990"/></clipPath><clipPath id="clip27"><rect x="1515" y="1731" width="1650" height="990"/></clipPath><clipPath id="clip28"><rect x="1515" y="1731" width="1650" height="990"/></clipPath><clipPath id="clip29"><rect x="1515" y="1731" width="1650" height="990"/></clipPath><clipPath id="clip30"><rect x="1515" y="1731" width="1650" height="990"/></clipPath></defs><g clip-path="url(#clip0)" transform="translate(-1514 -1730)"><rect x="1515" y="1731" width="1650" height="990" fill="#FFFFFF"/><g clip-path="url(#clip1)"><path d="M1707.5 2378.58 2831.5 2378.58M1707.5 2282.57 2831.5 2282.57M1707.5 2187.57 2831.5 2187.57M1707.5 2091.57 2831.5 2091.57M1707.5 1996.57 2831.5 1996.57M1707.5 1901.5 2831.5 1901.5" stroke="#D9D9D9" stroke-width="3.4375" stroke-linejoin="round" stroke-miterlimit="10" fill="none"/></g><g clip-path="url(#clip2)"><path d="M1707.5 2473.5 2831.5 2473.5" stroke="#D9D9D9" stroke-width="3.4375" stroke-linejoin="round" stroke-miterlimit="10" fill="none" fill-rule="evenodd"/></g><g clip-path="url(#clip3)"><path d="M1719 2468.08 1743.06 2474 1767.06 2474 1791.06 2474 1815.06 2474 1839.06 2402.08 1863.06 2432.08 1887.06 2449.08 1911.06 2464.08 1934.06 1998 1958.06 2026.07 1982.07 2026.07 2006.07 2032.07 2030.07 2038.07 2054.07 2043.07 2078.07 2092.07 2102.07 2185.07 2126.07 2234.07 2150.07 2266.07 2174.07 2286.07 2197.07 2298.08 2221.07 2305.08 2245.07 2309.08 2269.07 2314.08 2293.08 2314.08 2317.08 2376.08 2341.08 2084.07 2365.08 2088.07 2389.08 2090.07 2413.08 2092.07 2437.08 2094.07 2461.08 2084.07 2484.08 2090.07 2508.08 2238.07 2532.08 2386.08 2556.08 2436.08 2580.08 2447.08 2604.09 2314.08 2628.09 2258.07 2652.09 2474 2676.09 2474 2700.09 2474 2724.09 2474 2747.09 2474 2771.09 2474 2795.09 2474 2819 2474" stroke="#4472C4" stroke-width="10.3125" stroke-linecap="round" stroke-linejoin="round" stroke-miterlimit="10" fill="none"/></g><g clip-path="url(#clip4)"><text fill="#595959" font-family="Calibri,Calibri_MSFontService,sans-serif" font-weight="400" font-size="41" transform="matrix(1 0 0 1 1648.21 2485)">0</text></g><g clip-path="url(#clip5)"><text fill="#595959" font-family="Calibri,Calibri_MSFontService,sans-serif" font-weight="400" font-size="41" transform="matrix(1 0 0 1 1648.21 2390)">1</text></g><g clip-path="url(#clip6)"><text fill="#595959" font-family="Calibri,Calibri_MSFontService,sans-serif" font-weight="400" font-size="41" transform="matrix(1 0 0 1 1648.21 2294)">2</text></g><g clip-path="url(#clip7)"><text fill="#595959" font-family="Calibri,Calibri_MSFontService,sans-serif" font-weight="400" font-size="41" transform="matrix(1 0 0 1 1648.21 2199)">3</text></g><g clip-path="url(#clip8)"><text fill="#595959" font-family="Calibri,Calibri_MSFontService,sans-serif" font-weight="400" font-size="41" transform="matrix(1 0 0 1 1648.21 2103)">4</text></g><g clip-path="url(#clip9)"><text fill="#595959" font-family="Calibri,Calibri_MSFontService,sans-serif" font-weight="400" font-size="41" transform="matrix(1 0 0 1 1648.21 2008)">5</text></g><g clip-path="url(#clip10)"><text fill="#595959" font-family="Calibri,Calibri_MSFontService,sans-serif" font-weight="400" font-size="41" transform="matrix(1 0 0 1 1648.21 1913)">6</text></g><g clip-path="url(#clip11)"><text fill="#595959" font-family="Calibri,Calibri_MSFontService,sans-serif" font-weight="400" font-size="41" transform="matrix(0.707107 -0.707107 0.707107 0.707107 1573.12 2683)">17:44:34.467</text></g><g clip-path="url(#clip12)"><text fill="#595959" font-family="Calibri,Calibri_MSFontService,sans-serif" font-weight="400" font-size="41" transform="matrix(0.707107 -0.707107 0.707107 0.707107 1644.86 2683)">17:44:40.471</text></g><g clip-path="url(#clip13)"><text fill="#595959" font-family="Calibri,Calibri_MSFontService,sans-serif" font-weight="400" font-size="41" transform="matrix(0.707107 -0.707107 0.707107 0.707107 1716.59 2683)">17:44:46.501</text></g><g clip-path="url(#clip14)"><text fill="#595959" font-family="Calibri,Calibri_MSFontService,sans-serif" font-weight="400" font-size="41" transform="matrix(0.707107 -0.707107 0.707107 0.707107 1788.33 2683)">17:44:52.550</text></g><g clip-path="url(#clip15)"><text fill="#595959" font-family="Calibri,Calibri_MSFontService,sans-serif" font-weight="400" font-size="41" transform="matrix(0.707107 -0.707107 0.707107 0.707107 1860.06 2683)">17:44:58.550</text></g><g clip-path="url(#clip16)"><text fill="#595959" font-family="Calibri,Calibri_MSFontService,sans-serif" font-weight="400" font-size="41" transform="matrix(0.707107 -0.707107 0.707107 0.707107 1931.8 2683)">17:45:04.585</text></g><g clip-path="url(#clip17)"><text fill="#595959" font-family="Calibri,Calibri_MSFontService,sans-serif" font-weight="400" font-size="41" transform="matrix(0.707107 -0.707107 0.707107 0.707107 2003.53 2683)">17:45:10.611</text></g><g clip-path="url(#clip18)"><text fill="#595959" font-family="Calibri,Calibri_MSFontService,sans-serif" font-weight="400" font-size="41" transform="matrix(0.707107 -0.707107 0.707107 0.707107 2075.27 2683)">17:45:16.667</text></g><g clip-path="url(#clip19)"><text fill="#595959" font-family="Calibri,Calibri_MSFontService,sans-serif" font-weight="400" font-size="41" transform="matrix(0.707107 -0.707107 0.707107 0.707107 2147 2683)">17:45:22.704</text></g><g clip-path="url(#clip20)"><text fill="#595959" font-family="Calibri,Calibri_MSFontService,sans-serif" font-weight="400" font-size="41" transform="matrix(0.707107 -0.707107 0.707107 0.707107 2218.74 2683)">17:45:28.743</text></g><g clip-path="url(#clip21)"><text fill="#595959" font-family="Calibri,Calibri_MSFontService,sans-serif" font-weight="400" font-size="41" transform="matrix(0.707107 -0.707107 0.707107 0.707107 2290.47 2683)">17:45:34.744</text></g><g clip-path="url(#clip22)"><text fill="#595959" font-family="Calibri,Calibri_MSFontService,sans-serif" font-weight="400" font-size="41" transform="matrix(0.707107 -0.707107 0.707107 0.707107 2362.21 2683)">17:45:40.778</text></g><g clip-path="url(#clip23)"><text fill="#595959" font-family="Calibri,Calibri_MSFontService,sans-serif" font-weight="400" font-size="41" transform="matrix(0.707107 -0.707107 0.707107 0.707107 2433.94 2683)">17:45:46.810</text></g><g clip-path="url(#clip24)"><text fill="#595959" font-family="Calibri,Calibri_MSFontService,sans-serif" font-weight="400" font-size="41" transform="matrix(0.707107 -0.707107 0.707107 0.707107 2505.68 2683)">17:45:52.853</text></g><g clip-path="url(#clip25)"><text fill="#595959" font-family="Calibri,Calibri_MSFontService,sans-serif" font-weight="400" font-size="41" transform="matrix(0.707107 -0.707107 0.707107 0.707107 2577.41 2683)">17:45:58.881</text></g><g clip-path="url(#clip26)"><text fill="#595959" font-family="Calibri,Calibri_MSFontService,sans-serif" font-weight="400" font-size="41" transform="matrix(0.707107 -0.707107 0.707107 0.707107 2649.15 2683)">17:46:04.897</text></g><g clip-path="url(#clip27)"><text fill="#595959" font-family="Calibri,Calibri_MSFontService,sans-serif" font-weight="400" font-size="46" transform="matrix(6.12323e-17 -1 1 6.12323e-17 1616.54 2241)">VOUT</text></g><g clip-path="url(#clip28)"><text fill="#595959" font-family="Calibri,Calibri_MSFontService,sans-serif" font-weight="400" font-size="64" transform="matrix(1 0 0 1 1838.28 1827)">Tensión de salida del sensor vs Tiempo</text></g><g clip-path="url(#clip29)"><path d="M2924 2286 3012 2286" stroke="#4472C4" stroke-width="10.3125" stroke-linecap="round" stroke-linejoin="round" stroke-miterlimit="10" fill="none" fill-rule="evenodd"/></g><g clip-path="url(#clip30)"><text fill="#595959" font-family="Calibri,Calibri_MSFontService,sans-serif" font-weight="400" font-size="41" transform="matrix(1 0 0 1 3021.56 2297)">VOUT</text></g><rect x="1515.5" y="1731.5" width="1650" height="990" stroke="#D9D9D9" stroke-width="3.4375" stroke-linejoin="round" stroke-miterlimit="10" fill="none"/></g></svg>